<?xml version="1.0" encoding="UTF-8" standalone="no"?><!DOCTYPE svg PUBLIC "-//W3C//DTD SVG 1.1//EN" "http://www.w3.org/Graphics/SVG/1.1/DTD/svg11.dtd"><svg width="100%" height="100%" viewBox="0 0 542 261" version="1.1" xmlns="http://www.w3.org/2000/svg" xmlns:xlink="http://www.w3.org/1999/xlink" xml:space="preserve" xmlns:serif="http://www.serif.com/" style="fill-rule:evenodd;clip-rule:evenodd;stroke-linejoin:round;stroke-miterlimit:1.41421;"><g><path d="M541.821,223.982l-336.09,0c-2.65,0 -5.2,1.053 -7.07,2.929c-5.623,5.621 -18.068,18.067 -25.981,25.98c-3.905,3.905 -10.237,3.905 -14.142,0c-7.913,-7.913 -20.358,-20.359 -25.98,-25.98c-1.875,-1.876 -4.419,-2.929 -7.071,-2.929l-51.278,0c-2.652,0 -5.196,-1.054 -7.071,-2.929c-1.875,-1.875 -2.929,-4.419 -2.929,-7.071l0,-199.175c0,-2.652 1.054,-5.195 2.929,-7.071c1.875,-1.875 4.419,-2.929 7.071,-2.929l467.612,0" style="fill:none;"/><g><clipPath id="_clip1"><path d="M541.821,223.982l-336.09,0c-2.65,0 -5.2,1.053 -7.07,2.929c-5.623,5.621 -18.068,18.067 -25.981,25.98c-3.905,3.905 -10.237,3.905 -14.142,0c-7.913,-7.913 -20.358,-20.359 -25.98,-25.98c-1.875,-1.876 -4.419,-2.929 -7.071,-2.929l-51.278,0c-2.652,0 -5.196,-1.054 -7.071,-2.929c-1.875,-1.875 -2.929,-4.419 -2.929,-7.071l0,-199.175c0,-2.652 1.054,-5.195 2.929,-7.071c1.875,-1.875 4.419,-2.929 7.071,-2.929l467.612,0"/></clipPath><g clip-path="url(#_clip1)"><path d="M125.111,24.77l0.26,0l0.27,0.01l0.26,0l1.04,0.04l0.26,0.02l0.26,0.01l0.26,0.02l0.25,0.02l0.52,0.04l0.26,0.03l0.25,0.02l0.26,0.03l0.25,0.03l0.52,0.06l0.25,0.03l0.25,0.04l0.26,0.03l1,0.16l0.25,0.05l0.25,0.04l1.25,0.25l0.24,0.06l0.25,0.05l0.25,0.06l0.24,0.06l0.25,0.06l0.24,0.06l0.24,0.07l0.25,0.06l1.44,0.42l0.24,0.08l0.24,0.07l0.24,0.08l0.23,0.08l0.24,0.08l0.23,0.08l0.24,0.09l0.23,0.08l0.24,0.09l1.15,0.45l0.23,0.1l0.23,0.09l0.46,0.2l0.22,0.1l0.23,0.1l0.22,0.1l0.23,0.11l0.22,0.1l0.22,0.11l0.22,0.1l0.23,0.11l0.22,0.11l0.22,0.12l0.22,0.11l0.21,0.11l0.44,0.24l0.21,0.11l0.22,0.12l0.21,0.12l0.22,0.13l0.42,0.24l0.42,0.26l0.21,0.12l0.42,0.26l0.2,0.14l0.21,0.13l0.2,0.13l0.21,0.14l0.2,0.14l0.2,0.13l0.21,0.14l0.4,0.28l0.19,0.15l0.4,0.28l0.2,0.15l0.19,0.15l0.2,0.14l0.38,0.3l0.19,0.16l0.38,0.3l0.19,0.16l0.19,0.15l0.19,0.16l0.18,0.16l0.19,0.16l0.18,0.16l0.19,0.16l0.18,0.16l0.18,0.17l0.18,0.16l0.18,0.17l0.18,0.16l0.17,0.17l0.18,0.17l0.17,0.17l0.18,0.17l0.17,0.17l0.17,0.18l0.35,0.35l0.16,0.17l0.34,0.36l0.16,0.18l0.17,0.17l0.16,0.19l0.16,0.18l0.17,0.18l0.16,0.18l0.16,0.19l0.15,0.19l0.16,0.18l0.16,0.19l0.15,0.19l0.16,0.19l0.45,0.57l0.15,0.2l0.15,0.19l0.15,0.2l0.14,0.19l0.15,0.2l0.84,1.2l0.14,0.21l0.13,0.2l0.14,0.21l0.13,0.2l0.26,0.42l0.13,0.2l0.13,0.21l0.12,0.21l0.13,0.21l0.12,0.22l0.13,0.21l0.12,0.21l0.12,0.22l0.12,0.21l0.12,0.22l0.12,0.21l0.11,0.22l0.12,0.22l0.55,1.1l0.1,0.22l0.11,0.23l0.1,0.22l0.11,0.23l0.1,0.22l0.2,0.46l0.09,0.22l0.1,0.23l0.09,0.23l0.1,0.23l0.18,0.46l0.09,0.24l0.08,0.23l0.09,0.23l0.09,0.24l0.08,0.23l0.08,0.24l0.08,0.23l0.16,0.48l0.08,0.23l0.07,0.24l0.08,0.24l0.28,0.96l0.06,0.25l0.07,0.24l0.06,0.24l0.06,0.25l0.06,0.24l0.06,0.25l0.06,0.24l0.06,0.25l0.05,0.25l0.05,0.24l0.06,0.25l0.05,0.25l0.04,0.25l0.1,0.5l0.08,0.5l0.05,0.25l0.03,0.26l0.08,0.5l0.03,0.26l0.04,0.25l0.03,0.25l0.03,0.26l0.03,0.25l0.02,0.26l0.03,0.26l0.02,0.25l0.08,1.04l0.02,0.25l0.01,0.27l0.01,0.25l0.01,0.27l0.03,0.78l0,1.57l-0.01,0.26l-0.01,0.27l-0.01,0.26l-0.01,0.26l-0.01,0.26l-0.01,0.26l-0.02,0.25l-0.02,0.26l-0.02,0.26l-0.02,0.26l-0.02,0.26l-0.02,0.25l-0.03,0.26l-0.02,0.26l-0.03,0.25l-0.03,0.26l-0.03,0.25l-0.04,0.26l-0.03,0.25l-0.04,0.25l-0.04,0.25l-0.03,0.26l-0.05,0.25l-0.04,0.25l-0.04,0.25l-0.05,0.25l-0.05,0.25l-0.04,0.25l-0.05,0.25l-0.06,0.25l-0.05,0.24l-0.05,0.25l-0.06,0.25l-0.06,0.24l-0.06,0.25l-0.06,0.24l-0.06,0.25l-0.06,0.24l-0.07,0.24l-0.06,0.25l-0.07,0.24l-0.07,0.24l-0.07,0.24l-0.07,0.24l-0.08,0.24l-0.07,0.24l-0.08,0.24l-0.08,0.23l-0.08,0.24l-0.08,0.24l-0.08,0.23l-0.08,0.23l-0.09,0.24l-0.09,0.23l-0.08,0.24l-0.09,0.23l-0.09,0.23l-0.09,0.23l-0.1,0.23l-0.09,0.23l-0.1,0.23l-0.09,0.23l-0.1,0.22l-0.1,0.23l-0.1,0.22l-0.11,0.23l-0.1,0.22l-0.11,0.23l-0.1,0.22l-0.11,0.22l-0.11,0.22l-0.11,0.22l-0.11,0.22l-0.11,0.22l-0.12,0.22l-0.11,0.22l-0.12,0.21l-0.12,0.22l-0.12,0.22l-0.12,0.21l-0.12,0.21l-0.13,0.21l-0.12,0.22l-0.13,0.21l-0.12,0.21l-0.13,0.21l-0.13,0.21l-0.13,0.2l-0.13,0.21l-0.13,0.21l-0.14,0.2l-0.13,0.21l-0.14,0.2l-0.14,0.2l-0.14,0.2l-0.14,0.2l-0.14,0.2l-0.14,0.2l-0.14,0.2l-0.15,0.2l-0.14,0.19l-0.15,0.2l-0.15,0.19l-0.15,0.2l-0.15,0.19l-0.15,0.19l-0.15,0.19l-0.16,0.19l-0.15,0.19l-0.16,0.19l-0.16,0.18l-0.15,0.19l-0.16,0.19l-0.16,0.18l-0.17,0.18l-0.16,0.18l-0.16,0.19l-0.17,0.18l-0.16,0.17l-0.17,0.18l-0.17,0.18l-0.16,0.18l-0.18,0.17l-0.17,0.17l-0.17,0.18l-0.17,0.17l-0.18,0.17l-0.17,0.17l-0.18,0.17l-0.17,0.17l-0.18,0.17l-0.18,0.16l-0.18,0.16l-0.18,0.17l-0.18,0.16l-0.19,0.16l-0.18,0.16l-0.19,0.16l-0.18,0.16l-0.19,0.16l-0.19,0.15l-0.19,0.16l-0.19,0.15l-0.19,0.16l-0.19,0.15l-0.19,0.15l-0.19,0.15l-0.2,0.15l-0.19,0.14l-0.2,0.15l-0.2,0.14l-0.2,0.15l-0.19,0.14l-0.2,0.14l-0.2,0.14l-0.21,0.14l-0.2,0.14l-0.2,0.13l-0.21,0.14l-0.2,0.13l-0.21,0.14l-0.2,0.13l-0.21,0.13l-0.21,0.13l-0.21,0.13l-0.21,0.12l-0.21,0.13l-0.21,0.12l-0.21,0.13l-0.22,0.12l-0.21,0.12l-0.22,0.12l-0.21,0.12l-0.22,0.11l-0.22,0.12l-0.21,0.11l-0.22,0.11l-0.22,0.12l-0.22,0.11l-0.23,0.11l-0.22,0.1l-0.22,0.11l-0.22,0.11l-0.23,0.1l-0.22,0.1l-0.23,0.1l-0.22,0.1l-0.23,0.1l-0.23,0.1l-0.23,0.1l-0.23,0.09l-0.23,0.09l-0.23,0.09l-0.23,0.1l-0.23,0.08l-0.23,0.09l-0.24,0.09l-0.23,0.08l-0.24,0.09l-0.23,0.08l-0.24,0.08l-0.23,0.08l-0.24,0.08l-0.24,0.07l-0.24,0.08l-0.24,0.07l-0.24,0.07l-0.24,0.08l-0.24,0.07l-0.24,0.06l-0.24,0.07l-0.25,0.06l-0.24,0.07l-0.24,0.06l-0.25,0.06l-0.24,0.06l-0.25,0.06l-0.25,0.05l-0.24,0.06l-0.25,0.05l-0.25,0.05l-0.25,0.05l-0.25,0.05l-0.25,0.05l-0.25,0.04l-0.25,0.05l-0.25,0.04l-0.25,0.04l-0.25,0.04l-0.25,0.04l-0.26,0.04l-0.25,0.03l-0.25,0.03l-0.26,0.03l-0.26,0.03l-0.25,0.03l-0.26,0.03l-0.25,0.02l-0.26,0.03l-0.26,0.02l-0.26,0.02l-0.25,0.02l-0.26,0.02l-0.26,0.01l-0.26,0.02l-0.26,0.01l-0.26,0.01l-0.26,0.01l-0.26,0.01l-0.26,0l-0.27,0.01l-0.26,0l-0.26,0l-0.26,0l-0.27,0l-0.26,-0.01l-0.26,0l-0.26,-0.01l-0.26,-0.01l-0.26,-0.01l-0.26,-0.01l-0.26,-0.02l-0.26,-0.01l-0.26,-0.02l-0.26,-0.02l-0.25,-0.02l-0.26,-0.02l-0.26,-0.03l-0.26,-0.02l-0.25,-0.03l-0.26,-0.03l-0.25,-0.03l-0.26,-0.03l-0.25,-0.03l-0.25,-0.03l-0.26,-0.04l-0.25,-0.04l-0.25,-0.04l-0.25,-0.04l-0.26,-0.04l-0.25,-0.05l-0.25,-0.04l-0.25,-0.05l-0.25,-0.05l-0.24,-0.05l-0.25,-0.05l-0.25,-0.05l-0.25,-0.06l-0.24,-0.05l-0.25,-0.06l-0.24,-0.06l-0.25,-0.06l-0.24,-0.06l-0.25,-0.07l-0.24,-0.06l-0.24,-0.07l-0.24,-0.06l-0.24,-0.07l-0.24,-0.08l-0.25,-0.07l-0.23,-0.07l-0.24,-0.08l-0.24,-0.07l-0.24,-0.08l-0.24,-0.08l-0.23,-0.08l-0.24,-0.08l-0.23,-0.09l-0.23,-0.08l-0.24,-0.09l-0.23,-0.09l-0.23,-0.08l-0.23,-0.1l-0.24,-0.09l-0.23,-0.09l-0.22,-0.09l-0.23,-0.1l-0.23,-0.1l-0.23,-0.1l-0.22,-0.1l-0.23,-0.1l-0.22,-0.1l-0.23,-0.1l-0.22,-0.11l-0.23,-0.11l-0.22,-0.1l-0.22,-0.11l-0.22,-0.11l-0.22,-0.12l-0.22,-0.11l-0.22,-0.11l-0.21,-0.12l-0.22,-0.11l-0.22,-0.12l-0.21,-0.12l-0.21,-0.12l-0.22,-0.12l-0.21,-0.13l-0.21,-0.12l-0.21,-0.13l-0.21,-0.12l-0.21,-0.13l-0.21,-0.13l-0.21,-0.13l-0.21,-0.13l-0.2,-0.14l-0.21,-0.13l-0.2,-0.14l-0.2,-0.13l-0.21,-0.14l-0.2,-0.14l-0.2,-0.14l-0.2,-0.14l-0.2,-0.14l-0.2,-0.15l-0.19,-0.14l-0.2,-0.15l-0.19,-0.14l-0.2,-0.15l-0.19,-0.15l-0.19,-0.15l-0.2,-0.15l-0.19,-0.16l-0.19,-0.15l-0.19,-0.16l-0.18,-0.15l-0.19,-0.16l-0.19,-0.16l-0.18,-0.16l-0.18,-0.16l-0.19,-0.16l-0.18,-0.16l-0.18,-0.17l-0.18,-0.16l-0.18,-0.16l-0.18,-0.17l-0.18,-0.17l-0.17,-0.17l-0.18,-0.17l-0.17,-0.17l-0.17,-0.17l-0.18,-0.18l-0.17,-0.17l-0.17,-0.17l-0.17,-0.18l-0.16,-0.18l-0.17,-0.18l-0.17,-0.17l-0.16,-0.18l-0.17,-0.19l-0.16,-0.18l-0.16,-0.18l-0.16,-0.18l-0.16,-0.19l-0.16,-0.19l-0.15,-0.18l-0.16,-0.19l-0.16,-0.19l-0.15,-0.19l-0.15,-0.19l-0.15,-0.19l-0.15,-0.19l-0.15,-0.2l-0.15,-0.19l-0.15,-0.2l-0.14,-0.19l-0.15,-0.2l-0.14,-0.2l-0.14,-0.2l-0.15,-0.2l-0.13,-0.2l-0.14,-0.2l-0.14,-0.2l-0.14,-0.2l-0.13,-0.21l-0.14,-0.2l-0.13,-0.21l-0.13,-0.21l-0.13,-0.2l-0.13,-0.21l-0.13,-0.21l-0.13,-0.21l-0.12,-0.21l-0.13,-0.22l-0.12,-0.21l-0.12,-0.21l-0.12,-0.21l-0.12,-0.22l-0.12,-0.22l-0.12,-0.21l-0.11,-0.22l-0.12,-0.22l-0.11,-0.22l-0.11,-0.22l-0.11,-0.22l-0.11,-0.22l-0.11,-0.22l-0.11,-0.22l-0.1,-0.23l-0.1,-0.22l-0.11,-0.23l-0.1,-0.22l-0.1,-0.23l-0.1,-0.22l-0.09,-0.23l-0.1,-0.23l-0.1,-0.23l-0.09,-0.23l-0.09,-0.23l-0.09,-0.23l-0.09,-0.23l-0.09,-0.24l-0.08,-0.23l-0.09,-0.24l-0.08,-0.23l-0.08,-0.23l-0.09,-0.24l-0.08,-0.24l-0.07,-0.23l-0.08,-0.24l-0.08,-0.24l-0.07,-0.24l-0.07,-0.24l-0.07,-0.24l-0.07,-0.24l-0.07,-0.24l-0.07,-0.25l-0.06,-0.24l-0.06,-0.24l-0.07,-0.25l-0.06,-0.24l-0.06,-0.25l-0.05,-0.24l-0.06,-0.25l-0.05,-0.25l-0.06,-0.24l-0.05,-0.25l-0.05,-0.25l-0.05,-0.25l-0.04,-0.25l-0.05,-0.25l-0.04,-0.25l-0.05,-0.25l-0.04,-0.25l-0.04,-0.26l-0.03,-0.25l-0.04,-0.25l-0.03,-0.25l-0.04,-0.26l-0.03,-0.25l-0.03,-0.26l-0.03,-0.25l-0.03,-0.26l-0.02,-0.26l-0.02,-0.25l-0.03,-0.26l-0.02,-0.26l-0.02,-0.26l-0.01,-0.26l-0.02,-0.25l-0.01,-0.26l-0.02,-0.26l-0.01,-0.26l0,-0.26l-0.01,-0.27l-0.01,-0.26l0,-0.26l0,-0.26l-0.01,-0.27l0.01,-0.26l0,-0.26l0,-0.26l0.01,-0.26l0.01,-0.26l0,-0.26l0.01,-0.27l0.02,-0.25l0.01,-0.27l0.02,-0.25l0.01,-0.26l0.02,-0.26l0.02,-0.26l0.03,-0.26l0.02,-0.25l0.02,-0.26l0.03,-0.26l0.03,-0.25l0.03,-0.26l0.03,-0.25l0.04,-0.25l0.03,-0.26l0.04,-0.25l0.03,-0.25l0.04,-0.26l0.04,-0.25l0.05,-0.25l0.04,-0.25l0.05,-0.25l0.04,-0.25l0.05,-0.25l0.05,-0.25l0.05,-0.25l0.06,-0.24l0.05,-0.25l0.06,-0.25l0.05,-0.24l0.06,-0.25l0.06,-0.24l0.07,-0.25l0.06,-0.24l0.06,-0.24l0.07,-0.25l0.07,-0.24l0.07,-0.24l0.07,-0.24l0.07,-0.24l0.07,-0.24l0.08,-0.24l0.08,-0.23l0.07,-0.24l0.08,-0.24l0.09,-0.23l0.08,-0.24l0.08,-0.23l0.09,-0.24l0.08,-0.23l0.09,-0.23l0.09,-0.24l0.09,-0.23l0.09,-0.23l0.09,-0.23l0.1,-0.23l0.1,-0.23l0.09,-0.22l0.1,-0.23l0.1,-0.23l0.1,-0.22l0.11,-0.23l0.1,-0.22l0.1,-0.23l0.11,-0.22l0.11,-0.22l0.11,-0.22l0.11,-0.22l0.11,-0.22l0.11,-0.22l0.12,-0.22l0.11,-0.22l0.12,-0.21l0.12,-0.22l0.12,-0.21l0.12,-0.22l0.12,-0.21l0.12,-0.21l0.13,-0.22l0.12,-0.21l0.13,-0.21l0.13,-0.21l0.13,-0.2l0.13,-0.21l0.13,-0.21l0.13,-0.2l0.14,-0.21l0.13,-0.2l0.14,-0.21l0.14,-0.2l0.14,-0.2l0.13,-0.2l0.15,-0.2l0.14,-0.2l0.14,-0.2l0.15,-0.2l0.14,-0.19l0.15,-0.2l0.15,-0.19l0.15,-0.2l0.15,-0.19l0.15,-0.19l0.15,-0.19l0.15,-0.19l0.16,-0.19l0.16,-0.19l0.15,-0.18l0.16,-0.19l0.16,-0.19l0.16,-0.18l0.16,-0.18l0.16,-0.18l0.17,-0.19l0.16,-0.17l0.17,-0.18l0.17,-0.18l0.16,-0.18l0.17,-0.17l0.17,-0.18l0.17,-0.17l0.18,-0.18l0.17,-0.17l0.17,-0.17l0.18,-0.17l0.17,-0.17l0.18,-0.17l0.18,-0.16l0.18,-0.17l0.18,-0.16l0.18,-0.17l0.18,-0.16l0.19,-0.16l0.18,-0.16l0.18,-0.16l0.19,-0.16l0.19,-0.16l0.18,-0.15l0.19,-0.16l0.19,-0.15l0.19,-0.15l0.2,-0.16l0.19,-0.15l0.19,-0.15l0.2,-0.14l0.19,-0.15l0.2,-0.15l0.19,-0.14l0.2,-0.14l0.2,-0.15l0.2,-0.14l0.2,-0.14l0.2,-0.14l0.21,-0.13l0.2,-0.14l0.2,-0.14l0.21,-0.13l0.2,-0.13l0.21,-0.14l0.21,-0.13l0.21,-0.13l0.21,-0.12l0.21,-0.13l0.21,-0.13l0.21,-0.12l0.21,-0.12l0.22,-0.13l0.21,-0.12l0.21,-0.12l0.22,-0.11l0.22,-0.12l0.21,-0.12l0.22,-0.11l0.22,-0.11l0.22,-0.12l0.22,-0.11l0.22,-0.11l0.22,-0.1l0.23,-0.11l0.22,-0.1l0.23,-0.11l0.22,-0.1l0.23,-0.1l0.22,-0.1l0.23,-0.1l0.23,-0.1l0.23,-0.09l0.22,-0.1l0.23,-0.09l0.24,-0.09l0.23,-0.09l0.23,-0.09l0.23,-0.09l0.24,-0.09l0.23,-0.08l0.23,-0.09l0.24,-0.08l0.23,-0.08l0.24,-0.08l0.24,-0.08l0.24,-0.07l0.24,-0.08l0.23,-0.07l0.25,-0.07l0.24,-0.07l0.24,-0.07l0.24,-0.07l0.24,-0.07l0.24,-0.06l0.25,-0.07l0.24,-0.06l0.25,-0.06l0.24,-0.06l0.25,-0.06l0.24,-0.05l0.25,-0.06l0.25,-0.05l0.25,-0.05l0.24,-0.05l0.25,-0.05l0.25,-0.05l0.25,-0.04l0.25,-0.05l0.26,-0.04l0.25,-0.04l0.25,-0.04l0.25,-0.04l0.26,-0.03l0.25,-0.04l0.25,-0.03l0.26,-0.03l0.25,-0.03l0.26,-0.03l0.25,-0.03l0.26,-0.02l0.26,-0.03l0.26,-0.02l0.25,-0.02l0.26,-0.02l0.26,-0.02l0.26,-0.01l0.26,-0.02l0.26,-0.01l0.26,-0.01l0.26,-0.01l0.26,-0.01l0.26,0l0.26,-0.01l0.79,0Zm-0.49,5.33l-0.23,0.01l-0.23,0l-0.22,0.01l-0.23,0l-0.23,0.01l-0.22,0.01l-0.23,0.01l-0.23,0.01l-0.22,0.02l-0.23,0.01l-0.22,0.02l-0.23,0.02l-0.22,0.02l-0.22,0.02l-0.23,0.02l-0.22,0.02l-0.22,0.02l-0.22,0.03l-0.22,0.03l-0.22,0.03l-0.22,0.03l-0.22,0.03l-0.22,0.03l-0.22,0.04l-0.22,0.03l-0.22,0.04l-0.22,0.04l-0.21,0.04l-0.22,0.04l-0.22,0.04l-0.21,0.04l-0.22,0.05l-0.21,0.04l-0.22,0.05l-0.21,0.05l-0.22,0.05l-0.21,0.05l-0.21,0.05l-0.21,0.06l-0.21,0.05l-0.22,0.06l-0.2,0.06l-0.21,0.06l-0.21,0.06l-0.21,0.06l-0.21,0.06l-0.21,0.06l-0.21,0.07l-0.2,0.07l-0.21,0.06l-0.2,0.07l-0.21,0.07l-0.2,0.07l-0.21,0.08l-0.2,0.07l-0.2,0.08l-0.2,0.07l-0.21,0.08l-0.2,0.08l-0.2,0.08l-0.2,0.08l-0.2,0.08l-0.19,0.08l-0.2,0.09l-0.2,0.08l-0.2,0.09l-0.19,0.09l-0.2,0.09l-0.19,0.09l-0.2,0.09l-0.19,0.09l-0.19,0.09l-0.19,0.1l-0.2,0.09l-0.19,0.1l-0.19,0.1l-0.19,0.1l-0.18,0.1l-0.19,0.1l-0.19,0.11l-0.19,0.1l-0.18,0.1l-0.19,0.11l-0.18,0.11l-0.19,0.1l-0.18,0.11l-0.18,0.11l-0.19,0.11l-0.18,0.12l-0.18,0.11l-0.18,0.12l-0.18,0.11l-0.17,0.12l-0.18,0.12l-0.18,0.11l-0.17,0.12l-0.18,0.12l-0.17,0.13l-0.18,0.12l-0.17,0.12l-0.17,0.13l-0.17,0.12l-0.18,0.13l-0.16,0.13l-0.17,0.13l-0.17,0.13l-0.17,0.13l-0.17,0.13l-0.16,0.13l-0.17,0.13l-0.16,0.14l-0.16,0.14l-0.17,0.13l-0.16,0.14l-0.16,0.14l-0.16,0.14l-0.16,0.14l-0.16,0.14l-0.15,0.14l-0.16,0.14l-0.16,0.15l-0.15,0.15l-0.16,0.14l-0.15,0.15l-0.15,0.14l-0.15,0.15l-0.15,0.15l-0.15,0.15l-0.15,0.16l-0.15,0.15l-0.15,0.15l-0.14,0.16l-0.15,0.15l-0.14,0.16l-0.14,0.15l-0.15,0.16l-0.14,0.16l-0.14,0.16l-0.14,0.16l-0.14,0.16l-0.13,0.16l-0.14,0.16l-0.14,0.17l-0.13,0.16l-0.14,0.17l-0.13,0.16l-0.13,0.17l-0.13,0.17l-0.13,0.16l-0.13,0.17l-0.13,0.17l-0.12,0.17l-0.13,0.17l-0.12,0.18l-0.13,0.17l-0.12,0.17l-0.12,0.18l-0.12,0.17l-0.12,0.18l-0.12,0.17l-0.12,0.18l-0.12,0.18l-0.11,0.18l-0.12,0.18l-0.11,0.18l-0.11,0.18l-0.11,0.18l-0.11,0.19l-0.11,0.18l-0.11,0.18l-0.11,0.19l-0.1,0.18l-0.11,0.19l-0.1,0.19l-0.11,0.18l-0.1,0.19l-0.1,0.19l-0.1,0.19l-0.09,0.19l-0.1,0.19l-0.1,0.19l-0.09,0.2l-0.1,0.19l-0.09,0.19l-0.09,0.2l-0.09,0.19l-0.09,0.19l-0.09,0.2l-0.08,0.2l-0.09,0.2l-0.08,0.19l-0.09,0.2l-0.08,0.2l-0.08,0.2l-0.08,0.2l-0.08,0.2l-0.08,0.2l-0.07,0.2l-0.08,0.21l-0.07,0.2l-0.07,0.2l-0.07,0.21l-0.07,0.2l-0.07,0.21l-0.07,0.2l-0.07,0.21l-0.06,0.21l-0.07,0.21l-0.06,0.2l-0.06,0.21l-0.06,0.21l-0.06,0.21l-0.06,0.21l-0.05,0.21l-0.06,0.21l-0.05,0.22l-0.05,0.21l-0.06,0.21l-0.05,0.21l-0.04,0.22l-0.05,0.21l-0.05,0.22l-0.04,0.21l-0.05,0.22l-0.04,0.22l-0.04,0.21l-0.04,0.22l-0.04,0.22l-0.04,0.21l-0.03,0.22l-0.03,0.22l-0.04,0.22l-0.03,0.22l-0.03,0.22l-0.03,0.22l-0.02,0.22l-0.03,0.23l-0.03,0.22l-0.02,0.22l-0.02,0.22l-0.02,0.23l-0.02,0.22l-0.02,0.23l-0.01,0.22l-0.02,0.22l-0.01,0.23l-0.02,0.23l-0.01,0.22l-0.01,0.23l0,0.22l-0.01,0.23l-0.01,0.23l0,1.37l0.02,0.46l0,0.22l0.02,0.46l0.02,0.22l0.01,0.23l0.02,0.22l0.01,0.23l0.04,0.44l0.02,0.23l0.04,0.44l0.03,0.23l0.03,0.22l0.02,0.22l0.09,0.66l0.04,0.22l0.06,0.44l0.04,0.21l0.12,0.66l0.04,0.21l0.05,0.22l0.04,0.21l0.05,0.22l0.05,0.21l0.04,0.22l0.05,0.21l0.06,0.21l0.05,0.22l0.05,0.21l0.06,0.21l0.05,0.21l0.3,1.05l0.07,0.2l0.06,0.21l0.07,0.21l0.07,0.2l0.07,0.21l0.07,0.2l0.07,0.21l0.14,0.4l0.08,0.21l0.07,0.2l0.4,1l0.09,0.2l0.08,0.2l0.09,0.19l0.08,0.2l0.09,0.2l0.09,0.19l0.09,0.2l0.18,0.38l0.1,0.2l0.09,0.19l0.2,0.38l0.09,0.19l0.3,0.57l0.11,0.19l0.1,0.18l0.11,0.19l0.1,0.18l0.11,0.19l0.11,0.18l0.11,0.19l0.44,0.72l0.12,0.18l0.11,0.18l0.24,0.36l0.12,0.17l0.12,0.18l0.12,0.17l0.12,0.18l0.12,0.17l0.13,0.17l0.12,0.18l0.13,0.17l0.12,0.17l0.39,0.51l0.13,0.16l0.26,0.34l0.14,0.16l0.13,0.16l0.14,0.17l0.14,0.16l0.13,0.16l0.56,0.64l0.15,0.16l0.14,0.15l0.14,0.16l0.15,0.16l0.14,0.15l0.3,0.3l0.15,0.16l0.45,0.45l0.15,0.14l0.15,0.15l0.16,0.15l0.15,0.14l0.16,0.15l0.16,0.14l0.15,0.14l0.8,0.7l0.17,0.14l0.16,0.13l0.16,0.14l0.17,0.13l0.16,0.13l0.68,0.52l0.16,0.13l0.18,0.13l0.17,0.12l0.17,0.13l0.17,0.12l0.18,0.13l0.17,0.12l0.18,0.12l0.17,0.12l0.18,0.12l0.18,0.11l0.17,0.12l0.18,0.12l0.36,0.22l0.18,0.12l0.19,0.11l0.36,0.22l0.19,0.11l0.18,0.1l0.19,0.11l0.18,0.1l0.19,0.11l0.38,0.2l0.18,0.1l0.57,0.3l0.2,0.09l0.19,0.1l0.38,0.18l0.2,0.09l0.19,0.09l0.2,0.09l0.19,0.09l0.2,0.09l0.2,0.08l0.2,0.09l0.19,0.08l0.8,0.32l0.21,0.08l0.2,0.08l0.4,0.14l0.21,0.08l0.2,0.07l0.21,0.07l0.2,0.07l0.21,0.06l0.2,0.07l0.21,0.07l0.42,0.12l0.21,0.07l0.21,0.06l0.21,0.05l0.2,0.06l0.22,0.06l0.21,0.05l0.21,0.06l0.42,0.1l0.22,0.05l0.21,0.05l0.22,0.05l0.21,0.04l0.22,0.05l0.21,0.04l0.44,0.08l0.21,0.04l0.44,0.08l0.22,0.03l0.22,0.04l1.32,0.18l0.44,0.04l0.23,0.03l0.22,0.02l0.22,0.01l0.23,0.02l0.22,0.02l0.23,0.02l0.22,0.01l0.46,0.02l0.22,0.01l0.23,0.01l0.23,0l0.22,0.01l0.23,0l0.23,0.01l0.46,0l0.23,-0.01l0.22,0l0.23,-0.01l0.23,0l0.23,-0.01l0.22,-0.01l0.23,-0.01l0.22,-0.01l0.23,-0.01l0.22,-0.02l0.23,-0.02l0.22,-0.02l0.23,-0.01l0.22,-0.02l0.22,-0.03l0.23,-0.02l0.22,-0.02l0.22,-0.03l0.22,-0.03l0.22,-0.03l0.22,-0.03l0.22,-0.03l0.22,-0.03l0.22,-0.04l0.22,-0.03l0.22,-0.04l0.22,-0.04l0.21,-0.04l0.22,-0.04l0.22,-0.04l0.21,-0.04l0.22,-0.05l0.21,-0.04l0.22,-0.05l0.21,-0.05l0.21,-0.05l0.22,-0.05l0.21,-0.05l0.21,-0.06l0.21,-0.05l0.21,-0.06l0.21,-0.06l0.21,-0.05l0.21,-0.06l0.21,-0.07l0.21,-0.06l0.21,-0.06l0.2,-0.07l0.21,-0.07l0.21,-0.06l0.2,-0.07l0.21,-0.07l0.2,-0.07l0.2,-0.08l0.21,-0.07l0.2,-0.07l0.2,-0.08l0.2,-0.08l0.2,-0.08l0.2,-0.08l0.2,-0.08l0.2,-0.08l0.2,-0.08l0.2,-0.09l0.2,-0.08l0.19,-0.09l0.2,-0.09l0.2,-0.09l0.19,-0.09l0.19,-0.09l0.2,-0.09l0.19,-0.09l0.19,-0.1l0.19,-0.09l0.19,-0.1l0.19,-0.1l0.19,-0.1l0.19,-0.1l0.19,-0.1l0.19,-0.1l0.19,-0.11l0.18,-0.1l0.19,-0.11l0.18,-0.1l0.18,-0.11l0.19,-0.11l0.18,-0.11l0.18,-0.11l0.18,-0.12l0.18,-0.11l0.18,-0.11l0.18,-0.12l0.18,-0.12l0.18,-0.11l0.18,-0.12l0.17,-0.12l0.18,-0.12l0.17,-0.12l0.17,-0.13l0.18,-0.12l0.17,-0.13l0.17,-0.12l0.17,-0.13l0.17,-0.13l0.17,-0.13l0.17,-0.13l0.17,-0.13l0.16,-0.13l0.17,-0.13l0.16,-0.13l0.17,-0.14l0.16,-0.13l0.16,-0.14l0.17,-0.14l0.16,-0.14l0.16,-0.14l0.16,-0.14l0.15,-0.14l0.16,-0.14l0.16,-0.14l0.15,-0.15l0.16,-0.14l0.15,-0.15l0.16,-0.15l0.15,-0.14l0.15,-0.15l0.15,-0.15l0.15,-0.15l0.15,-0.16l0.15,-0.15l0.14,-0.15l0.15,-0.15l0.14,-0.16l0.15,-0.16l0.14,-0.15l0.14,-0.16l0.15,-0.16l0.14,-0.16l0.13,-0.16l0.14,-0.16l0.14,-0.16l0.14,-0.16l0.13,-0.17l0.14,-0.16l0.13,-0.16l0.14,-0.17l0.13,-0.17l0.13,-0.16l0.13,-0.17l0.13,-0.17l0.12,-0.17l0.13,-0.17l0.13,-0.17l0.12,-0.18l0.13,-0.17l0.12,-0.17l0.12,-0.18l0.12,-0.17l0.12,-0.18l0.12,-0.17l0.12,-0.18l0.11,-0.18l0.12,-0.18l0.11,-0.18l0.12,-0.18l0.11,-0.18l0.11,-0.18l0.11,-0.18l0.11,-0.19l0.11,-0.18l0.1,-0.19l0.11,-0.18l0.11,-0.19l0.1,-0.18l0.1,-0.19l0.1,-0.19l0.1,-0.19l0.1,-0.19l0.1,-0.19l0.1,-0.19l0.1,-0.19l0.09,-0.19l0.09,-0.2l0.1,-0.19l0.09,-0.19l0.09,-0.2l0.09,-0.19l0.08,-0.2l0.09,-0.2l0.09,-0.19l0.08,-0.2l0.08,-0.2l0.09,-0.2l0.08,-0.2l0.08,-0.2l0.08,-0.2l0.07,-0.2l0.08,-0.2l0.07,-0.21l0.08,-0.2l0.07,-0.2l0.07,-0.21l0.07,-0.2l0.07,-0.21l0.07,-0.2l0.07,-0.21l0.06,-0.21l0.06,-0.2l0.07,-0.21l0.06,-0.21l0.06,-0.21l0.06,-0.21l0.05,-0.21l0.06,-0.21l0.06,-0.21l0.05,-0.21l0.05,-0.22l0.05,-0.21l0.05,-0.21l0.05,-0.22l0.05,-0.21l0.05,-0.22l0.04,-0.21l0.05,-0.22l0.04,-0.21l0.04,-0.22l0.04,-0.22l0.04,-0.22l0.03,-0.21l0.04,-0.22l0.03,-0.22l0.03,-0.22l0.04,-0.22l0.03,-0.22l0.03,-0.22l0.02,-0.22l0.03,-0.22l0.02,-0.23l0.03,-0.22l0.02,-0.22l0.02,-0.23l0.02,-0.22l0.02,-0.22l0.01,-0.23l0.02,-0.22l0.01,-0.23l0.01,-0.22l0.01,-0.23l0.01,-0.23l0.01,-0.22l0.01,-0.23l0,-0.23l0.01,-0.23l0,-0.23l0,-0.23l0,-0.22l0,-0.23l-0.01,-0.23l0,-0.23l-0.01,-0.23l-0.01,-0.22l-0.01,-0.23l-0.01,-0.22l-0.01,-0.23l-0.01,-0.23l-0.02,-0.22l-0.01,-0.22l-0.02,-0.23l-0.02,-0.22l-0.02,-0.23l-0.02,-0.22l-0.03,-0.22l-0.02,-0.22l-0.03,-0.23l-0.02,-0.22l-0.03,-0.22l-0.03,-0.22l-0.04,-0.22l-0.03,-0.22l-0.03,-0.22l-0.04,-0.21l-0.03,-0.22l-0.04,-0.22l-0.04,-0.22l-0.04,-0.21l-0.04,-0.22l-0.05,-0.22l-0.04,-0.21l-0.05,-0.22l-0.05,-0.21l-0.05,-0.22l-0.05,-0.21l-0.05,-0.21l-0.05,-0.21l-0.05,-0.22l-0.06,-0.21l-0.06,-0.21l-0.05,-0.21l-0.06,-0.21l-0.06,-0.21l-0.06,-0.21l-0.07,-0.2l-0.06,-0.21l-0.06,-0.21l-0.07,-0.21l-0.07,-0.2l-0.07,-0.21l-0.07,-0.2l-0.07,-0.21l-0.07,-0.2l-0.08,-0.2l-0.07,-0.21l-0.08,-0.2l-0.07,-0.2l-0.08,-0.2l-0.08,-0.2l-0.08,-0.2l-0.09,-0.2l-0.08,-0.2l-0.08,-0.19l-0.09,-0.2l-0.09,-0.2l-0.08,-0.2l-0.09,-0.19l-0.09,-0.19l-0.09,-0.2l-0.1,-0.19l-0.09,-0.19l-0.09,-0.2l-0.1,-0.19l-0.1,-0.19l-0.1,-0.19l-0.1,-0.19l-0.1,-0.19l-0.1,-0.19l-0.1,-0.18l-0.1,-0.19l-0.11,-0.19l-0.11,-0.18l-0.1,-0.19l-0.11,-0.18l-0.11,-0.18l-0.11,-0.19l-0.11,-0.18l-0.11,-0.18l-0.12,-0.18l-0.11,-0.18l-0.12,-0.18l-0.11,-0.18l-0.12,-0.18l-0.12,-0.17l-0.12,-0.18l-0.12,-0.17l-0.12,-0.18l-0.12,-0.17l-0.13,-0.17l-0.12,-0.18l-0.13,-0.17l-0.13,-0.17l-0.12,-0.17l-0.13,-0.17l-0.13,-0.16l-0.13,-0.17l-0.13,-0.17l-0.14,-0.16l-0.13,-0.17l-0.14,-0.16l-0.13,-0.17l-0.14,-0.16l-0.14,-0.16l-0.14,-0.16l-0.13,-0.16l-0.14,-0.16l-0.15,-0.16l-0.14,-0.16l-0.14,-0.15l-0.15,-0.16l-0.14,-0.15l-0.15,-0.16l-0.14,-0.15l-0.15,-0.15l-0.15,-0.16l-0.15,-0.15l-0.15,-0.15l-0.15,-0.15l-0.15,-0.14l-0.16,-0.15l-0.15,-0.14l-0.16,-0.15l-0.15,-0.15l-0.16,-0.14l-0.16,-0.14l-0.15,-0.14l-0.16,-0.14l-0.16,-0.14l-0.16,-0.14l-0.17,-0.14l-0.16,-0.13l-0.16,-0.14l-0.17,-0.14l-0.16,-0.13l-0.17,-0.13l-0.16,-0.13l-0.17,-0.13l-0.17,-0.13l-0.17,-0.13l-0.17,-0.13l-0.17,-0.13l-0.17,-0.12l-0.17,-0.13l-0.18,-0.12l-0.17,-0.12l-0.17,-0.13l-0.18,-0.12l-0.17,-0.12l-0.18,-0.11l-0.18,-0.12l-0.18,-0.12l-0.18,-0.11l-0.18,-0.12l-0.18,-0.11l-0.18,-0.12l-0.18,-0.11l-0.18,-0.11l-0.19,-0.11l-0.18,-0.1l-0.18,-0.11l-0.19,-0.11l-0.18,-0.1l-0.19,-0.1l-0.19,-0.11l-0.19,-0.1l-0.19,-0.1l-0.19,-0.1l-0.19,-0.1l-0.19,-0.1l-0.19,-0.09l-0.19,-0.1l-0.19,-0.09l-0.2,-0.09l-0.19,-0.09l-0.2,-0.09l-0.19,-0.09l-0.2,-0.09l-0.19,-0.09l-0.2,-0.08l-0.2,-0.09l-0.2,-0.08l-0.2,-0.08l-0.2,-0.08l-0.2,-0.08l-0.2,-0.08l-0.2,-0.08l-0.2,-0.07l-0.2,-0.08l-0.21,-0.07l-0.2,-0.08l-0.2,-0.07l-0.21,-0.07l-0.2,-0.07l-0.21,-0.06l-0.21,-0.07l-0.2,-0.07l-0.21,-0.06l-0.21,-0.06l-0.21,-0.06l-0.21,-0.06l-0.21,-0.06l-0.21,-0.06l-0.21,-0.06l-0.21,-0.05l-0.21,-0.06l-0.21,-0.05l-0.22,-0.05l-0.21,-0.05l-0.21,-0.05l-0.22,-0.05l-0.21,-0.04l-0.22,-0.05l-0.21,-0.04l-0.22,-0.04l-0.22,-0.04l-0.21,-0.04l-0.22,-0.04l-0.22,-0.04l-0.22,-0.03l-0.22,-0.04l-0.22,-0.03l-0.22,-0.03l-0.22,-0.03l-0.22,-0.03l-0.22,-0.03l-0.22,-0.03l-0.22,-0.02l-0.23,-0.02l-0.22,-0.02l-0.22,-0.02l-0.23,-0.02l-0.22,-0.02l-0.23,-0.02l-0.22,-0.01l-0.23,-0.02l-0.22,-0.01l-0.23,-0.01l-0.22,-0.01l-0.23,-0.01l-0.23,0l-0.23,-0.01l-0.22,0l-0.23,-0.01l-0.23,0l-0.23,0Z" style="fill:#b3b3b3;"/><path d="M341.131,51.65l0.18,0l0.17,0.01l0.18,0l0.18,0.01l0.17,0.01l0.18,0.02l0.17,0.02l0.18,0.02l0.51,0.06l0.51,0.09l0.17,0.04l0.17,0.03l0.17,0.04l0.16,0.04l0.34,0.08l0.16,0.05l0.17,0.05l0.48,0.15l0.32,0.12l0.16,0.05l0.16,0.06l0.15,0.07l0.16,0.06l0.15,0.07l0.16,0.07l0.45,0.21l0.3,0.16l0.15,0.07l0.14,0.08l0.15,0.09l0.14,0.08l0.14,0.09l0.15,0.09l0.14,0.08l0.14,0.09l0.13,0.1l0.14,0.09l0.14,0.1l0.13,0.09l0.13,0.1l0.14,0.1l0.13,0.1l0.13,0.11l0.13,0.1l0.12,0.11l0.13,0.11l0.12,0.1l0.13,0.12l0.24,0.22l0.12,0.12l0.12,0.11l0.11,0.12l0.12,0.12l0.33,0.36l0.11,0.13l0.11,0.12l0.11,0.13l0.2,0.26l0.11,0.13l0.1,0.13l0.09,0.14l0.1,0.13l0.1,0.14l0.09,0.13l0.36,0.56l0.09,0.15l0.08,0.14l0.08,0.15l0.08,0.14l0.16,0.3l0.07,0.15l0.08,0.15l0.21,0.45l0.06,0.16l0.07,0.16l0.06,0.15l0.24,0.64l0.15,0.48l0.05,0.17l0.04,0.16l0.05,0.17l0.04,0.16l0.04,0.17l0.03,0.17l0.04,0.16l0.03,0.17l0.04,0.17l0.03,0.17l0.02,0.17l0.03,0.18l0.06,0.51l0.02,0.18l0.01,0.17l0.02,0.36l0.01,0.17l0.01,0.18l0,0.71l-0.01,0.18l-0.01,0.17l-0.01,0.18l-0.01,0.17l-0.01,0.18l-0.02,0.17l-0.02,0.18l-0.02,0.17l-0.02,0.17l-0.03,0.17l-0.02,0.17l-0.03,0.17l-0.04,0.17l-0.03,0.17l-0.04,0.17l-0.03,0.17l-0.04,0.17l-0.04,0.16l-0.05,0.17l-0.04,0.16l-0.05,0.16l-0.05,0.17l-0.05,0.16l-0.05,0.16l-0.06,0.16l-0.06,0.16l-0.06,0.16l-0.06,0.16l-0.06,0.15l-0.07,0.16l-0.06,0.15l-0.07,0.16l-0.07,0.15l-0.07,0.15l-0.08,0.15l-0.07,0.15l-0.08,0.15l-0.08,0.15l-0.08,0.14l-0.08,0.15l-0.08,0.14l-0.09,0.14l-0.09,0.15l-0.09,0.14l-0.09,0.14l-0.09,0.13l-0.09,0.14l-0.1,0.14l-0.1,0.13l-0.09,0.14l-0.1,0.13l-0.11,0.13l-0.1,0.13l-0.1,0.13l-0.11,0.12l-0.11,0.13l-0.11,0.12l-0.11,0.13l-0.11,0.12l-0.11,0.12l-0.12,0.12l-0.11,0.12l-0.12,0.11l-0.12,0.12l-0.12,0.11l-0.12,0.11l-0.13,0.11l-0.12,0.11l-0.13,0.11l-0.12,0.11l-0.13,0.1l-0.13,0.1l-0.13,0.11l-0.14,0.1l-0.13,0.1l-0.13,0.09l-0.14,0.1l-0.14,0.09l-0.13,0.09l-0.14,0.09l-0.14,0.09l-0.15,0.09l-0.14,0.09l-0.14,0.08l-0.15,0.08l-0.14,0.08l-0.15,0.08l-0.15,0.08l-0.15,0.07l-0.15,0.08l-0.15,0.07l-0.15,0.07l-0.16,0.07l-0.15,0.07l-0.16,0.06l-0.15,0.06l-0.16,0.06l-0.16,0.06l-0.16,0.06l-0.16,0.06l-0.16,0.05l-0.16,0.05l-0.16,0.05l-0.17,0.05l-0.16,0.04l-0.17,0.05l-0.17,0.04l-0.16,0.04l-0.17,0.04l-0.17,0.03l-0.17,0.04l-0.17,0.03l-0.17,0.03l-0.17,0.02l-0.17,0.03l-0.17,0.02l-0.17,0.02l-0.18,0.02l-0.17,0.02l-0.18,0.01l-0.17,0.01l-0.18,0.01l-0.18,0.01l-0.17,0.01l-0.18,0l-0.17,0l-138.86,0l-0.17,0l-0.18,0l-0.17,-0.01l-0.18,-0.01l-0.17,-0.01l-0.18,-0.01l-0.17,-0.01l-0.18,-0.02l-0.17,-0.02l-0.17,-0.02l-0.18,-0.02l-0.17,-0.03l-0.17,-0.02l-0.17,-0.03l-0.17,-0.03l-0.17,-0.04l-0.17,-0.03l-0.16,-0.04l-0.17,-0.04l-0.17,-0.04l-0.16,-0.05l-0.17,-0.04l-0.16,-0.05l-0.16,-0.05l-0.17,-0.05l-0.16,-0.05l-0.16,-0.06l-0.16,-0.06l-0.15,-0.06l-0.16,-0.06l-0.16,-0.06l-0.16,-0.06l-0.15,-0.07l-0.15,-0.07l-0.16,-0.07l-0.15,-0.07l-0.15,-0.08l-0.15,-0.07l-0.15,-0.08l-0.14,-0.08l-0.15,-0.08l-0.14,-0.08l-0.15,-0.08l-0.14,-0.09l-0.14,-0.09l-0.14,-0.09l-0.14,-0.09l-0.14,-0.09l-0.14,-0.09l-0.13,-0.1l-0.14,-0.09l-0.13,-0.1l-0.13,-0.1l-0.13,-0.11l-0.13,-0.1l-0.13,-0.1l-0.13,-0.11l-0.13,-0.11l-0.12,-0.11l-0.12,-0.11l-0.12,-0.11l-0.13,-0.11l-0.12,-0.12l-0.11,-0.11l-0.12,-0.12l-0.11,-0.12l-0.12,-0.12l-0.11,-0.12l-0.11,-0.13l-0.11,-0.12l-0.11,-0.13l-0.1,-0.12l-0.11,-0.13l-0.1,-0.13l-0.1,-0.13l-0.1,-0.13l-0.1,-0.14l-0.1,-0.13l-0.09,-0.14l-0.1,-0.14l-0.09,-0.13l-0.09,-0.14l-0.09,-0.14l-0.09,-0.14l-0.08,-0.15l-0.09,-0.14l-0.08,-0.15l-0.08,-0.14l-0.08,-0.15l-0.07,-0.15l-0.08,-0.15l-0.07,-0.15l-0.08,-0.15l-0.07,-0.15l-0.06,-0.16l-0.07,-0.15l-0.07,-0.16l-0.06,-0.15l-0.06,-0.16l-0.06,-0.16l-0.06,-0.16l-0.05,-0.16l-0.05,-0.16l-0.06,-0.16l-0.05,-0.17l-0.04,-0.16l-0.05,-0.16l-0.04,-0.17l-0.05,-0.16l-0.03,-0.17l-0.04,-0.17l-0.04,-0.17l-0.03,-0.17l-0.03,-0.17l-0.03,-0.17l-0.03,-0.17l-0.02,-0.17l-0.03,-0.17l-0.02,-0.17l-0.02,-0.18l-0.01,-0.17l-0.02,-0.18l-0.01,-0.17l-0.01,-0.18l-0.01,-0.17l0,-0.18l-0.01,-0.18l0,-0.18l0,-0.17l0.01,-0.18l0,-0.18l0.01,-0.17l0.01,-0.18l0.01,-0.18l0.02,-0.17l0.01,-0.18l0.02,-0.17l0.02,-0.17l0.03,-0.17l0.02,-0.18l0.03,-0.17l0.03,-0.17l0.03,-0.17l0.03,-0.17l0.04,-0.16l0.04,-0.17l0.03,-0.17l0.05,-0.16l0.04,-0.17l0.05,-0.16l0.04,-0.17l0.05,-0.16l0.06,-0.16l0.05,-0.16l0.05,-0.16l0.06,-0.16l0.06,-0.16l0.06,-0.16l0.06,-0.15l0.07,-0.16l0.07,-0.15l0.06,-0.16l0.07,-0.15l0.08,-0.15l0.07,-0.15l0.08,-0.15l0.07,-0.15l0.08,-0.15l0.08,-0.14l0.08,-0.15l0.09,-0.14l0.08,-0.15l0.09,-0.14l0.09,-0.14l0.09,-0.14l0.09,-0.14l0.1,-0.13l0.09,-0.14l0.1,-0.13l0.1,-0.14l0.1,-0.13l0.1,-0.13l0.1,-0.13l0.11,-0.13l0.1,-0.13l0.11,-0.12l0.11,-0.13l0.11,-0.12l0.11,-0.12l0.12,-0.12l0.11,-0.12l0.12,-0.12l0.11,-0.11l0.12,-0.12l0.13,-0.11l0.12,-0.12l0.12,-0.11l0.12,-0.1l0.13,-0.11l0.13,-0.11l0.13,-0.1l0.13,-0.11l0.13,-0.1l0.13,-0.1l0.13,-0.1l0.14,-0.09l0.13,-0.1l0.14,-0.09l0.14,-0.1l0.14,-0.09l0.14,-0.08l0.14,-0.09l0.14,-0.09l0.15,-0.08l0.14,-0.09l0.15,-0.08l0.14,-0.07l0.15,-0.08l0.15,-0.08l0.15,-0.07l0.15,-0.07l0.16,-0.07l0.15,-0.07l0.15,-0.07l0.16,-0.06l0.16,-0.07l0.16,-0.06l0.15,-0.05l0.16,-0.06l0.16,-0.06l0.16,-0.05l0.17,-0.05l0.16,-0.05l0.16,-0.05l0.17,-0.05l0.16,-0.04l0.17,-0.04l0.17,-0.04l0.16,-0.04l0.17,-0.03l0.17,-0.04l0.17,-0.03l0.17,-0.03l0.17,-0.03l0.17,-0.02l0.18,-0.02l0.17,-0.02l0.17,-0.02l0.18,-0.02l0.17,-0.02l0.18,-0.01l0.17,-0.01l0.18,0l0.17,-0.01l0.18,0l0.17,-0.01l138.86,0l0.17,0.01Zm-139.01,5.33l-0.12,0l-0.11,0l-0.11,0.01l-0.11,0l-0.11,0.01l-0.1,0l-0.11,0.01l-0.11,0.01l-0.1,0.01l-0.11,0.02l-0.11,0.01l-0.1,0.02l-0.11,0.01l-0.1,0.02l-0.11,0.02l-0.1,0.02l-0.1,0.02l-0.1,0.03l-0.11,0.02l-0.1,0.03l-0.1,0.02l-0.1,0.03l-0.1,0.03l-0.1,0.03l-0.1,0.03l-0.1,0.03l-0.09,0.04l-0.1,0.03l-0.1,0.04l-0.1,0.04l-0.09,0.03l-0.1,0.04l-0.09,0.04l-0.09,0.05l-0.1,0.04l-0.09,0.04l-0.09,0.05l-0.09,0.05l-0.09,0.04l-0.09,0.05l-0.1,0.05l-0.08,0.05l-0.09,0.05l-0.09,0.05l-0.09,0.06l-0.08,0.05l-0.09,0.06l-0.08,0.06l-0.09,0.05l-0.08,0.06l-0.08,0.06l-0.09,0.06l-0.08,0.06l-0.08,0.07l-0.08,0.06l-0.08,0.06l-0.08,0.07l-0.07,0.07l-0.08,0.06l-0.08,0.07l-0.07,0.07l-0.07,0.07l-0.08,0.07l-0.07,0.07l-0.07,0.08l-0.07,0.07l-0.07,0.07l-0.07,0.08l-0.07,0.07l-0.07,0.08l-0.06,0.08l-0.07,0.08l-0.06,0.07l-0.07,0.09l-0.06,0.08l-0.06,0.08l-0.06,0.08l-0.06,0.08l-0.06,0.09l-0.06,0.08l-0.06,0.08l-0.05,0.09l-0.05,0.09l-0.06,0.08l-0.05,0.09l-0.05,0.09l-0.05,0.09l-0.05,0.09l-0.05,0.09l-0.05,0.09l-0.04,0.09l-0.05,0.09l-0.04,0.1l-0.05,0.09l-0.04,0.09l-0.04,0.1l-0.04,0.09l-0.04,0.1l-0.03,0.1l-0.04,0.09l-0.04,0.1l-0.03,0.1l-0.03,0.1l-0.03,0.09l-0.03,0.1l-0.03,0.1l-0.03,0.11l-0.03,0.1l-0.02,0.1l-0.03,0.1l-0.02,0.1l-0.02,0.11l-0.02,0.1l-0.02,0.1l-0.02,0.11l-0.02,0.1l-0.01,0.11l-0.02,0.1l-0.01,0.11l-0.01,0.1l-0.01,0.11l-0.01,0.11l-0.01,0.11l0,0.11l-0.01,0.1l0,0.66l0.01,0.11l0,0.11l0.02,0.22l0.01,0.1l0.02,0.22l0.02,0.1l0.01,0.11l0.02,0.1l0.02,0.11l0.04,0.2l0.02,0.11l0.02,0.1l0.03,0.1l0.02,0.1l0.06,0.2l0.02,0.1l0.04,0.1l0.09,0.3l0.04,0.1l0.04,0.09l0.03,0.1l0.04,0.09l0.04,0.1l0.04,0.09l0.04,0.1l0.05,0.09l0.04,0.09l0.05,0.1l0.04,0.09l0.25,0.45l0.05,0.08l0.06,0.09l0.05,0.09l0.05,0.08l0.06,0.09l0.06,0.08l0.06,0.09l0.24,0.32l0.07,0.08l0.06,0.08l0.07,0.08l0.06,0.08l0.07,0.07l0.14,0.16l0.14,0.14l0.07,0.08l0.07,0.07l0.08,0.07l0.14,0.14l0.08,0.06l0.08,0.07l0.07,0.07l0.08,0.06l0.08,0.07l0.16,0.12l0.08,0.07l0.09,0.06l0.08,0.06l0.08,0.05l0.09,0.06l0.08,0.06l0.09,0.05l0.08,0.06l0.09,0.05l0.09,0.06l0.09,0.05l0.08,0.05l0.1,0.05l0.09,0.04l0.18,0.1l0.09,0.04l0.09,0.05l0.1,0.04l0.18,0.08l0.1,0.04l0.09,0.04l0.1,0.04l0.1,0.03l0.1,0.04l0.09,0.03l0.1,0.04l0.4,0.12l0.1,0.02l0.1,0.03l0.11,0.02l0.1,0.03l0.2,0.04l0.11,0.02l0.1,0.01l0.11,0.02l0.1,0.02l0.22,0.02l0.1,0.02l0.11,0l0.11,0.01l0.1,0.01l0.11,0.01l0.11,0l0.11,0.01l139.28,0l0.11,-0.01l0.11,0l0.11,-0.01l0.11,-0.01l0.1,-0.01l0.11,0l0.11,-0.02l0.11,-0.01l0.1,-0.01l0.11,-0.02l0.1,-0.02l0.11,-0.01l0.1,-0.02l0.1,-0.02l0.11,-0.02l0.1,-0.03l0.1,-0.02l0.1,-0.03l0.1,-0.02l0.1,-0.03l0.1,-0.03l0.1,-0.03l0.1,-0.03l0.1,-0.04l0.1,-0.03l0.1,-0.04l0.09,-0.03l0.1,-0.04l0.09,-0.04l0.1,-0.04l0.09,-0.04l0.1,-0.04l0.09,-0.04l0.09,-0.05l0.1,-0.04l0.09,-0.05l0.09,-0.05l0.09,-0.04l0.09,-0.05l0.09,-0.05l0.09,-0.05l0.08,-0.06l0.09,-0.05l0.09,-0.06l0.08,-0.05l0.09,-0.06l0.08,-0.06l0.09,-0.05l0.08,-0.06l0.08,-0.06l0.08,-0.07l0.08,-0.06l0.08,-0.06l0.08,-0.07l0.08,-0.06l0.08,-0.07l0.07,-0.07l0.08,-0.06l0.07,-0.07l0.08,-0.07l0.07,-0.07l0.07,-0.07l0.08,-0.08l0.07,-0.07l0.07,-0.07l0.07,-0.08l0.06,-0.08l0.07,-0.07l0.07,-0.08l0.06,-0.08l0.07,-0.08l0.06,-0.08l0.06,-0.08l0.07,-0.08l0.06,-0.08l0.06,-0.08l0.05,-0.09l0.06,-0.08l0.06,-0.09l0.05,-0.08l0.06,-0.09l0.05,-0.09l0.05,-0.08l0.06,-0.09l0.05,-0.09l0.05,-0.09l0.05,-0.09l0.04,-0.09l0.05,-0.09l0.04,-0.1l0.05,-0.09l0.04,-0.09l0.04,-0.1l0.04,-0.09l0.04,-0.1l0.04,-0.09l0.04,-0.1l0.03,-0.09l0.04,-0.1l0.03,-0.1l0.04,-0.1l0.03,-0.1l0.03,-0.1l0.03,-0.1l0.03,-0.1l0.02,-0.1l0.03,-0.1l0.02,-0.1l0.02,-0.1l0.03,-0.11l0.02,-0.1l0.02,-0.1l0.01,-0.11l0.02,-0.1l0.02,-0.11l0.01,-0.1l0.01,-0.11l0.01,-0.11l0.02,-0.1l0,-0.11l0.01,-0.11l0.01,-0.11l0,-0.11l0,-0.11l0.01,-0.11l0,-0.11l0,-0.11l-0.01,-0.11l0,-0.11l0,-0.1l-0.01,-0.11l-0.01,-0.11l0,-0.11l-0.02,-0.11l-0.01,-0.1l-0.01,-0.11l-0.01,-0.1l-0.02,-0.11l-0.02,-0.1l-0.01,-0.11l-0.02,-0.1l-0.02,-0.1l-0.03,-0.11l-0.02,-0.1l-0.02,-0.1l-0.03,-0.1l-0.02,-0.1l-0.03,-0.11l-0.03,-0.1l-0.03,-0.1l-0.03,-0.09l-0.04,-0.1l-0.03,-0.1l-0.04,-0.1l-0.03,-0.09l-0.04,-0.1l-0.04,-0.1l-0.04,-0.09l-0.04,-0.1l-0.04,-0.09l-0.04,-0.09l-0.05,-0.1l-0.04,-0.09l-0.05,-0.09l-0.04,-0.09l-0.05,-0.09l-0.05,-0.09l-0.05,-0.09l-0.06,-0.09l-0.05,-0.09l-0.05,-0.08l-0.06,-0.09l-0.05,-0.09l-0.06,-0.08l-0.06,-0.08l-0.05,-0.09l-0.06,-0.08l-0.06,-0.08l-0.07,-0.08l-0.06,-0.08l-0.06,-0.09l-0.07,-0.07l-0.06,-0.08l-0.07,-0.08l-0.07,-0.08l-0.06,-0.07l-0.07,-0.08l-0.07,-0.07l-0.07,-0.07l-0.08,-0.08l-0.07,-0.07l-0.07,-0.07l-0.08,-0.07l-0.07,-0.07l-0.08,-0.07l-0.07,-0.06l-0.08,-0.07l-0.08,-0.07l-0.08,-0.06l-0.08,-0.06l-0.08,-0.07l-0.08,-0.06l-0.08,-0.06l-0.08,-0.06l-0.09,-0.06l-0.08,-0.05l-0.09,-0.06l-0.08,-0.06l-0.09,-0.05l-0.09,-0.06l-0.08,-0.05l-0.09,-0.05l-0.09,-0.05l-0.09,-0.05l-0.09,-0.05l-0.09,-0.04l-0.09,-0.05l-0.1,-0.05l-0.09,-0.04l-0.09,-0.04l-0.1,-0.05l-0.09,-0.04l-0.1,-0.04l-0.09,-0.03l-0.1,-0.04l-0.09,-0.04l-0.1,-0.03l-0.1,-0.04l-0.1,-0.03l-0.1,-0.03l-0.1,-0.03l-0.1,-0.03l-0.1,-0.03l-0.1,-0.02l-0.1,-0.03l-0.1,-0.02l-0.1,-0.03l-0.11,-0.02l-0.1,-0.02l-0.1,-0.02l-0.11,-0.02l-0.1,-0.01l-0.11,-0.02l-0.1,-0.01l-0.11,-0.02l-0.11,-0.01l-0.11,-0.01l-0.1,-0.01l-0.11,0l-0.11,-0.01l-0.11,0l-0.11,-0.01l-0.11,0l-0.12,0l-138.82,0Z" style="fill:#b3b3b3;"/><rect x="188.301" y="109.9" width="203.028" height="5.333" style="fill:#b3b3b3;"/><rect x="412.871" y="109.9" width="54.471" height="5.333" style="fill:#b3b3b3;"/><rect x="188.301" y="128.6" width="62.47" height="5.333" style="fill:#b3b3b3;"/><rect x="271.471" y="128.6" width="92.753" height="5.333" style="fill:#b3b3b3;"/><rect x="386.001" y="128.6" width="134.463" height="5.333" style="fill:#b3b3b3;"/><rect x="188.301" y="147.29" width="117.704" height="5.333" style="fill:#b3b3b3;"/><path d="M216.531,164.87l0.48,0.03l0.32,0.04l0.48,0.09l0.3,0.08l0.45,0.15l0.15,0.06l0.14,0.05l0.15,0.07l0.14,0.06l0.14,0.07l0.13,0.07l0.14,0.08l0.39,0.24l0.13,0.09l0.12,0.09l0.12,0.1l0.12,0.09l0.12,0.1l0.11,0.1l0.12,0.11l0.11,0.1l0.1,0.11l0.11,0.12l0.1,0.11l0.1,0.12l0.09,0.12l0.1,0.12l0.09,0.12l0.08,0.13l0.09,0.13l0.16,0.26l0.08,0.14l0.07,0.13l0.07,0.14l0.06,0.14l0.07,0.15l0.06,0.14l0.2,0.6l0.08,0.3l0.09,0.48l0.02,0.15l0.02,0.17l0.03,0.48l0,7.79l-0.01,0.16l-0.01,0.17l-0.01,0.16l-0.02,0.16l-0.02,0.16l-0.03,0.16l-0.03,0.15l-0.03,0.16l-0.04,0.15l-0.04,0.16l-0.05,0.15l-0.05,0.15l-0.05,0.15l-0.06,0.14l-0.05,0.15l-0.07,0.14l-0.06,0.14l-0.07,0.14l-0.07,0.14l-0.08,0.13l-0.08,0.14l-0.08,0.13l-0.09,0.12l-0.08,0.13l-0.09,0.12l-0.1,0.13l-0.09,0.12l-0.1,0.11l-0.1,0.12l-0.11,0.11l-0.1,0.11l-0.11,0.11l-0.12,0.1l-0.11,0.1l-0.12,0.1l-0.12,0.1l-0.12,0.09l-0.12,0.09l-0.13,0.09l-0.13,0.08l-0.13,0.09l-0.13,0.07l-0.14,0.08l-0.13,0.07l-0.14,0.07l-0.14,0.07l-0.15,0.06l-0.14,0.06l-0.15,0.05l-0.15,0.06l-0.15,0.05l-0.15,0.04l-0.15,0.04l-0.15,0.04l-0.16,0.03l-0.16,0.03l-0.16,0.03l-0.16,0.02l-0.16,0.02l-0.16,0.01l-0.16,0.02l-0.16,0l-0.15,0l-21.7,0l-0.14,0l-0.17,0l-0.16,-0.02l-0.16,-0.01l-0.16,-0.02l-0.16,-0.02l-0.16,-0.03l-0.16,-0.03l-0.15,-0.03l-0.16,-0.04l-0.15,-0.04l-0.15,-0.04l-0.15,-0.05l-0.15,-0.06l-0.15,-0.05l-0.14,-0.06l-0.14,-0.06l-0.14,-0.07l-0.14,-0.07l-0.14,-0.07l-0.14,-0.08l-0.13,-0.07l-0.13,-0.09l-0.13,-0.08l-0.12,-0.09l-0.13,-0.09l-0.12,-0.09l-0.12,-0.1l-0.12,-0.1l-0.11,-0.1l-0.11,-0.1l-0.11,-0.11l-0.11,-0.11l-0.1,-0.11l-0.11,-0.12l-0.09,-0.11l-0.1,-0.12l-0.09,-0.13l-0.09,-0.12l-0.09,-0.13l-0.09,-0.12l-0.08,-0.13l-0.08,-0.14l-0.07,-0.13l-0.08,-0.14l-0.07,-0.14l-0.06,-0.14l-0.06,-0.14l-0.06,-0.15l-0.06,-0.14l-0.05,-0.15l-0.05,-0.15l-0.04,-0.15l-0.05,-0.16l-0.03,-0.15l-0.04,-0.16l-0.03,-0.15l-0.02,-0.16l-0.03,-0.16l-0.02,-0.16l-0.01,-0.16l-0.01,-0.17l0,-0.16l-0.01,-0.15l0,-7.49l0.01,-0.15l0,-0.16l0.01,-0.16l0.01,-0.16l0.02,-0.17l0.03,-0.15l0.02,-0.16l0.03,-0.16l0.04,-0.16l0.03,-0.15l0.05,-0.15l0.04,-0.15l0.05,-0.15l0.05,-0.15l0.06,-0.15l0.06,-0.14l0.06,-0.15l0.06,-0.14l0.07,-0.14l0.08,-0.13l0.07,-0.14l0.08,-0.13l0.08,-0.13l0.09,-0.13l0.09,-0.13l0.09,-0.12l0.09,-0.12l0.1,-0.12l0.09,-0.12l0.11,-0.11l0.1,-0.12l0.11,-0.11l0.11,-0.1l0.11,-0.11l0.11,-0.1l0.12,-0.1l0.12,-0.09l0.12,-0.1l0.13,-0.09l0.12,-0.09l0.13,-0.08l0.13,-0.08l0.13,-0.08l0.14,-0.08l0.14,-0.07l0.14,-0.07l0.14,-0.06l0.14,-0.07l0.14,-0.05l0.15,-0.06l0.15,-0.05l0.15,-0.05l0.15,-0.05l0.15,-0.04l0.16,-0.04l0.15,-0.03l0.16,-0.03l0.16,-0.03l0.16,-0.02l0.16,-0.02l0.16,-0.01l0.16,-0.01l0.17,-0.01l21.99,0Zm-21.81,5.33l-0.05,0l-0.03,0l-0.02,0.01l-0.03,0l-0.03,0l-0.02,0.01l-0.03,0l-0.03,0l-0.02,0.01l-0.03,0.01l-0.02,0l-0.03,0.01l-0.02,0.01l-0.03,0.01l-0.02,0.01l-0.02,0.01l-0.03,0.01l-0.02,0.01l-0.02,0.01l-0.02,0.01l-0.03,0.01l-0.02,0.02l-0.02,0.01l-0.02,0.01l-0.02,0.02l-0.02,0.01l-0.02,0.02l-0.02,0.02l-0.02,0.01l-0.02,0.02l-0.02,0.02l-0.02,0.01l-0.02,0.02l-0.02,0.02l-0.02,0.02l-0.01,0.02l-0.02,0.02l-0.01,0.02l-0.02,0.02l-0.01,0.03l-0.02,0.02l-0.01,0.02l-0.01,0.02l-0.02,0.02l-0.01,0.02l-0.01,0.03l-0.01,0.02l-0.01,0.03l-0.01,0.02l-0.01,0.02l-0.01,0.03l-0.01,0.02l0,0.02l-0.01,0.03l-0.01,0.03l0,0.02l-0.01,0.03l0,0.02l-0.01,0.03l0,7.73l0.01,0.03l0,0.03l0.01,0.02l0,0.03l0.01,0.02l0.01,0.03l0,0.02l0.01,0.03l0.02,0.04l0.01,0.03l0.02,0.04l0.01,0.03l0.01,0.02l0.02,0.02l0.01,0.02l0.01,0.03l0.02,0.02l0.01,0.02l0.02,0.02l0.01,0.02l0.02,0.02l0.01,0.02l0.06,0.06l0.02,0.01l0.06,0.06l0.02,0.01l0.02,0.02l0.02,0.01l0.02,0.02l0.02,0.01l0.02,0.02l0.02,0.01l0.03,0.01l0.02,0.01l0.02,0.02l0.02,0.01l0.03,0.01l0.04,0.02l0.03,0l0.02,0.01l0.03,0.01l0.02,0.01l0.03,0l0.02,0.01l0.03,0l0.03,0.01l0.05,0l0.03,0.01l21.83,0l0.02,-0.01l0.06,0l0.02,-0.01l0.03,0l0.02,-0.01l0.03,0l0.02,-0.01l0.03,-0.01l0.02,-0.01l0.03,0l0.02,-0.01l0.02,-0.01l0.03,-0.01l0.02,-0.01l0.02,-0.02l0.03,-0.01l0.02,-0.01l0.02,-0.01l0.02,-0.02l0.02,-0.01l0.03,-0.02l0.02,-0.01l0.02,-0.02l0.02,-0.01l0.02,-0.02l0.02,-0.02l0.02,-0.02l0.01,-0.01l0.02,-0.02l0.02,-0.02l0.02,-0.02l0.01,-0.02l0.02,-0.02l0.02,-0.02l0.01,-0.02l0.02,-0.02l0.01,-0.02l0.01,-0.03l0.02,-0.02l0.01,-0.02l0.01,-0.02l0.01,-0.03l0.01,-0.02l0.01,-0.02l0.01,-0.03l0.01,-0.02l0.01,-0.02l0.01,-0.03l0.01,-0.02l0,-0.03l0.01,-0.02l0,-0.03l0.01,-0.02l0,-0.03l0.01,-0.03l0,-0.02l0,-0.03l0,-0.03l0.01,-0.02l0,-0.05l0,-7.43l0,-0.04l-0.01,-0.03l0,-0.03l0,-0.02l0,-0.03l-0.01,-0.03l0,-0.02l-0.01,-0.03l0,-0.02l-0.01,-0.03l0,-0.03l-0.01,-0.02l-0.01,-0.02l-0.01,-0.03l-0.01,-0.02l-0.01,-0.02l-0.01,-0.03l-0.01,-0.02l-0.01,-0.03l-0.01,-0.02l-0.01,-0.02l-0.02,-0.02l-0.01,-0.02l-0.01,-0.02l-0.02,-0.03l-0.01,-0.02l-0.02,-0.02l-0.02,-0.02l-0.01,-0.02l-0.02,-0.02l-0.02,-0.02l-0.02,-0.02l-0.01,-0.01l-0.02,-0.02l-0.02,-0.02l-0.02,-0.01l-0.02,-0.02l-0.02,-0.02l-0.02,-0.01l-0.03,-0.02l-0.02,-0.01l-0.02,-0.01l-0.02,-0.02l-0.02,-0.01l-0.03,-0.01l-0.02,-0.01l-0.02,-0.01l-0.02,-0.01l-0.03,-0.01l-0.02,-0.01l-0.03,-0.01l-0.02,-0.01l-0.03,-0.01l-0.02,0l-0.03,-0.01l-0.02,-0.01l-0.03,0l-0.02,0l-0.03,-0.01l-0.03,0l-0.02,0l-0.03,-0.01l-0.03,0l-0.04,0l-21.63,0Z" style="fill:#b3b3b3;"/><path d="M258.151,164.87l0.48,0.03l0.32,0.04l0.48,0.09l0.3,0.08l0.45,0.15l0.15,0.06l0.14,0.05l0.15,0.07l0.14,0.06l0.14,0.07l0.13,0.07l0.14,0.08l0.39,0.24l0.13,0.09l0.12,0.09l0.12,0.1l0.12,0.09l0.12,0.1l0.11,0.1l0.12,0.11l0.11,0.1l0.1,0.11l0.11,0.12l0.1,0.11l0.1,0.12l0.09,0.12l0.1,0.12l0.09,0.12l0.08,0.13l0.09,0.13l0.16,0.26l0.08,0.14l0.07,0.13l0.07,0.14l0.06,0.14l0.07,0.15l0.06,0.14l0.2,0.6l0.08,0.3l0.09,0.48l0.02,0.15l0.02,0.17l0.03,0.48l0,7.79l-0.01,0.16l-0.01,0.17l-0.01,0.16l-0.02,0.16l-0.02,0.16l-0.03,0.16l-0.03,0.15l-0.03,0.16l-0.04,0.15l-0.04,0.16l-0.05,0.15l-0.05,0.15l-0.05,0.15l-0.06,0.14l-0.05,0.15l-0.07,0.14l-0.06,0.14l-0.07,0.14l-0.07,0.14l-0.08,0.13l-0.08,0.14l-0.08,0.13l-0.09,0.12l-0.08,0.13l-0.09,0.12l-0.1,0.13l-0.09,0.12l-0.1,0.11l-0.1,0.12l-0.11,0.11l-0.1,0.11l-0.11,0.11l-0.12,0.1l-0.11,0.1l-0.12,0.1l-0.12,0.1l-0.12,0.09l-0.12,0.09l-0.13,0.09l-0.13,0.08l-0.13,0.09l-0.13,0.07l-0.14,0.08l-0.13,0.07l-0.14,0.07l-0.14,0.07l-0.15,0.06l-0.14,0.06l-0.15,0.05l-0.15,0.06l-0.15,0.05l-0.15,0.04l-0.15,0.04l-0.15,0.04l-0.16,0.03l-0.16,0.03l-0.16,0.03l-0.16,0.02l-0.16,0.02l-0.16,0.01l-0.16,0.02l-0.16,0l-0.15,0l-21.7,0l-0.14,0l-0.17,0l-0.16,-0.02l-0.16,-0.01l-0.16,-0.02l-0.16,-0.02l-0.16,-0.03l-0.16,-0.03l-0.15,-0.03l-0.16,-0.04l-0.15,-0.04l-0.15,-0.04l-0.15,-0.05l-0.15,-0.06l-0.15,-0.05l-0.14,-0.06l-0.14,-0.06l-0.14,-0.07l-0.14,-0.07l-0.14,-0.07l-0.14,-0.08l-0.13,-0.07l-0.13,-0.09l-0.13,-0.08l-0.12,-0.09l-0.13,-0.09l-0.12,-0.09l-0.12,-0.1l-0.12,-0.1l-0.11,-0.1l-0.11,-0.1l-0.11,-0.11l-0.11,-0.11l-0.1,-0.11l-0.11,-0.12l-0.09,-0.11l-0.1,-0.12l-0.09,-0.13l-0.09,-0.12l-0.09,-0.13l-0.09,-0.12l-0.08,-0.13l-0.08,-0.14l-0.07,-0.13l-0.08,-0.14l-0.07,-0.14l-0.06,-0.14l-0.06,-0.14l-0.06,-0.15l-0.06,-0.14l-0.05,-0.15l-0.05,-0.15l-0.04,-0.15l-0.05,-0.16l-0.03,-0.15l-0.04,-0.16l-0.03,-0.15l-0.02,-0.16l-0.03,-0.16l-0.02,-0.16l-0.01,-0.16l-0.01,-0.17l-0.01,-0.16l0,-0.15l0,-7.49l0,-0.15l0.01,-0.16l0.01,-0.16l0.01,-0.16l0.02,-0.17l0.03,-0.15l0.02,-0.16l0.03,-0.16l0.04,-0.16l0.03,-0.15l0.05,-0.15l0.04,-0.15l0.05,-0.15l0.05,-0.15l0.06,-0.15l0.06,-0.14l0.06,-0.15l0.06,-0.14l0.07,-0.14l0.08,-0.13l0.07,-0.14l0.08,-0.13l0.08,-0.13l0.09,-0.13l0.09,-0.13l0.09,-0.12l0.09,-0.12l0.1,-0.12l0.09,-0.12l0.11,-0.11l0.1,-0.12l0.11,-0.11l0.11,-0.1l0.11,-0.11l0.11,-0.1l0.12,-0.1l0.12,-0.09l0.12,-0.1l0.13,-0.09l0.12,-0.09l0.13,-0.08l0.13,-0.08l0.13,-0.08l0.14,-0.08l0.14,-0.07l0.14,-0.07l0.14,-0.06l0.14,-0.07l0.14,-0.05l0.15,-0.06l0.15,-0.05l0.15,-0.05l0.15,-0.05l0.15,-0.04l0.16,-0.04l0.15,-0.03l0.16,-0.03l0.16,-0.03l0.16,-0.02l0.16,-0.02l0.16,-0.01l0.16,-0.01l0.17,-0.01l21.99,0Zm-21.81,5.33l-0.05,0l-0.03,0l-0.02,0.01l-0.03,0l-0.03,0l-0.02,0.01l-0.03,0l-0.03,0l-0.02,0.01l-0.03,0.01l-0.02,0l-0.03,0.01l-0.02,0.01l-0.03,0.01l-0.02,0.01l-0.02,0.01l-0.03,0.01l-0.02,0.01l-0.02,0.01l-0.02,0.01l-0.03,0.01l-0.02,0.02l-0.02,0.01l-0.02,0.01l-0.02,0.02l-0.02,0.01l-0.02,0.02l-0.02,0.02l-0.02,0.01l-0.02,0.02l-0.02,0.02l-0.02,0.01l-0.02,0.02l-0.02,0.02l-0.02,0.02l-0.01,0.02l-0.02,0.02l-0.01,0.02l-0.02,0.02l-0.01,0.03l-0.02,0.02l-0.01,0.02l-0.01,0.02l-0.02,0.02l-0.01,0.02l-0.01,0.03l-0.01,0.02l-0.01,0.03l-0.01,0.02l-0.01,0.02l-0.01,0.03l-0.01,0.02l0,0.02l-0.01,0.03l-0.01,0.03l0,0.02l-0.01,0.03l0,0.02l-0.01,0.03l0,7.73l0.01,0.03l0,0.03l0.01,0.02l0,0.03l0.01,0.02l0.01,0.03l0,0.02l0.01,0.03l0.02,0.04l0.01,0.03l0.02,0.04l0.01,0.03l0.01,0.02l0.02,0.02l0.01,0.02l0.01,0.03l0.02,0.02l0.01,0.02l0.02,0.02l0.01,0.02l0.02,0.02l0.01,0.02l0.06,0.06l0.02,0.01l0.06,0.06l0.02,0.01l0.02,0.02l0.02,0.01l0.02,0.02l0.02,0.01l0.02,0.02l0.02,0.01l0.03,0.01l0.02,0.01l0.02,0.02l0.02,0.01l0.03,0.01l0.04,0.02l0.03,0l0.02,0.01l0.03,0.01l0.02,0.01l0.03,0l0.02,0.01l0.03,0l0.03,0.01l0.05,0l0.03,0.01l21.83,0l0.02,-0.01l0.06,0l0.02,-0.01l0.03,0l0.02,-0.01l0.03,0l0.02,-0.01l0.03,-0.01l0.02,-0.01l0.03,0l0.02,-0.01l0.02,-0.01l0.03,-0.01l0.02,-0.01l0.02,-0.02l0.03,-0.01l0.02,-0.01l0.02,-0.01l0.02,-0.02l0.02,-0.01l0.02,-0.01l0.03,-0.02l0.02,-0.02l0.02,-0.01l0.02,-0.02l0.02,-0.02l0.02,-0.01l0.01,-0.02l0.02,-0.02l0.02,-0.02l0.02,-0.02l0.01,-0.02l0.02,-0.02l0.02,-0.02l0.01,-0.02l0.02,-0.02l0.01,-0.02l0.01,-0.02l0.02,-0.03l0.01,-0.02l0.01,-0.02l0.01,-0.03l0.01,-0.02l0.01,-0.02l0.01,-0.03l0.01,-0.02l0.01,-0.02l0.01,-0.03l0.01,-0.02l0,-0.03l0.01,-0.02l0,-0.03l0.01,-0.02l0,-0.03l0.01,-0.03l0,-0.02l0,-0.03l0,-0.03l0.01,-0.02l0,-0.05l0,-7.43l0,-0.04l-0.01,-0.03l0,-0.03l0,-0.02l0,-0.03l-0.01,-0.03l0,-0.02l-0.01,-0.03l0,-0.02l-0.01,-0.03l0,-0.03l-0.01,-0.02l-0.01,-0.02l-0.01,-0.03l-0.01,-0.02l-0.01,-0.02l-0.01,-0.03l-0.01,-0.02l-0.01,-0.03l-0.01,-0.02l-0.01,-0.02l-0.02,-0.02l-0.01,-0.02l-0.01,-0.02l-0.02,-0.03l-0.01,-0.02l-0.02,-0.02l-0.02,-0.02l-0.01,-0.02l-0.02,-0.02l-0.02,-0.02l-0.02,-0.02l-0.01,-0.01l-0.02,-0.02l-0.02,-0.02l-0.02,-0.01l-0.02,-0.02l-0.02,-0.02l-0.03,-0.01l-0.02,-0.02l-0.02,-0.01l-0.02,-0.01l-0.02,-0.02l-0.02,-0.01l-0.03,-0.01l-0.02,-0.01l-0.02,-0.01l-0.02,-0.01l-0.03,-0.01l-0.02,-0.01l-0.03,-0.01l-0.02,-0.01l-0.03,-0.01l-0.02,0l-0.03,-0.01l-0.02,-0.01l-0.03,0l-0.02,0l-0.03,-0.01l-0.03,0l-0.02,0l-0.03,-0.01l-0.03,0l-0.04,0l-21.63,0Z" style="fill:#b3b3b3;"/></g></g><path d="M544.481,7.474l-470.264,0l-0.099,0.001l-0.091,0.001l-0.091,0.003l-0.091,0.004l-0.09,0.005l-0.09,0.006l-0.091,0.008l-0.09,0.008l-0.09,0.009l-0.089,0.011l-0.09,0.012l-0.089,0.012l-0.089,0.014l-0.088,0.015l-0.089,0.016l-0.088,0.017l-0.088,0.018l-0.088,0.02l-0.087,0.02l-0.087,0.021l-0.087,0.023l-0.087,0.023l-0.086,0.025l-0.086,0.025l-0.085,0.027l-0.085,0.027l-0.085,0.029l-0.084,0.03l-0.084,0.03l-0.084,0.032l-0.083,0.033l-0.083,0.033l-0.083,0.035l-0.082,0.036l-0.081,0.037l-0.081,0.037l-0.081,0.039l-0.08,0.04l-0.08,0.04l-0.079,0.042l-0.079,0.043l-0.078,0.043l-0.078,0.045l-0.077,0.045l-0.077,0.047l-0.076,0.047l-0.075,0.049l-0.075,0.049l-0.075,0.051l-0.074,0.051l-0.073,0.052l-0.073,0.053l-0.072,0.054l-0.071,0.055l-0.071,0.056l-0.07,0.057l-0.07,0.058l-0.069,0.058l-0.068,0.06l-0.068,0.06l-0.067,0.062l-0.066,0.062l-0.065,0.063l-0.065,0.064l-0.064,0.065l-0.063,0.065l-0.063,0.067l-0.061,0.067l-0.061,0.067l-0.059,0.068l-0.059,0.069l-0.057,0.07l-0.057,0.07l-0.056,0.071l-0.055,0.071l-0.054,0.073l-0.053,0.072l-0.052,0.074l-0.052,0.073l-0.05,0.075l-0.049,0.075l-0.049,0.075l-0.047,0.077l-0.047,0.076l-0.045,0.077l-0.045,0.078l-0.044,0.078l-0.042,0.079l-0.042,0.079l-0.041,0.08l-0.039,0.08l-0.039,0.081l-0.038,0.081l-0.036,0.082l-0.036,0.082l-0.035,0.082l-0.034,0.083l-0.032,0.083l-0.032,0.084l-0.031,0.084l-0.029,0.084l-0.029,0.085l-0.028,0.085l-0.026,0.086l-0.026,0.086l-0.024,0.086l-0.024,0.086l-0.022,0.087l-0.021,0.087l-0.021,0.087l-0.019,0.088l-0.018,0.088l-0.017,0.088l-0.016,0.089l-0.015,0.089l-0.014,0.088l-0.013,0.09l-0.011,0.089l-0.011,0.09l-0.009,0.09l-0.009,0.09l-0.007,0.09l-0.006,0.09l-0.005,0.091l-0.004,0.09l-0.003,0.091l-0.002,0.091l0,199.357l0.002,0.091l0.003,0.091l0.004,0.091l0.005,0.09l0.006,0.091l0.007,0.09l0.018,0.18l0.011,0.089l0.011,0.09l0.013,0.089l0.014,0.089l0.015,0.089l0.016,0.088l0.017,0.088l0.018,0.088l0.019,0.088l0.042,0.174l0.022,0.087l0.024,0.087l0.024,0.086l0.026,0.086l0.026,0.085l0.028,0.085l0.029,0.085l0.029,0.084l0.031,0.085l0.064,0.166l0.034,0.083l0.035,0.083l0.036,0.082l0.036,0.081l0.038,0.081l0.039,0.081l0.039,0.08l0.041,0.08l0.084,0.158l0.044,0.078l0.045,0.078l0.045,0.077l0.047,0.077l0.047,0.076l0.098,0.15l0.05,0.075l0.052,0.074l0.052,0.073l0.053,0.073l0.054,0.072l0.055,0.071l0.056,0.071l0.114,0.14l0.059,0.069l0.12,0.136l0.061,0.067l0.126,0.132l0.064,0.064l0.13,0.128l0.066,0.062l0.067,0.061l0.068,0.061l0.068,0.059l0.069,0.059l0.14,0.114l0.071,0.056l0.071,0.055l0.072,0.054l0.146,0.106l0.074,0.051l0.075,0.05l0.15,0.098l0.076,0.047l0.077,0.047l0.077,0.045l0.078,0.045l0.078,0.044l0.158,0.084l0.08,0.041l0.08,0.039l0.081,0.039l0.081,0.038l0.081,0.037l0.082,0.035l0.083,0.035l0.083,0.034l0.083,0.032l0.084,0.032l0.084,0.031l0.084,0.029l0.085,0.029l0.085,0.028l0.085,0.026l0.086,0.026l0.086,0.024l0.087,0.024l0.087,0.022l0.174,0.042l0.088,0.019l0.088,0.018l0.088,0.017l0.089,0.016l0.088,0.015l0.089,0.014l0.09,0.013l0.178,0.022l0.18,0.018l0.09,0.007l0.091,0.006l0.09,0.005l0.091,0.004l0.091,0.003l0.091,0.002l51.377,0l0.15,0.001l0.157,0.003l0.156,0.005l0.157,0.007l0.156,0.009l0.157,0.01l0.155,0.013l0.156,0.014l0.155,0.017l0.155,0.018l0.155,0.02l0.154,0.022l0.153,0.024l0.154,0.026l0.152,0.027l0.153,0.03l0.152,0.031l0.151,0.033l0.151,0.035l0.151,0.037l0.15,0.039l0.149,0.04l0.149,0.043l0.148,0.044l0.148,0.046l0.147,0.047l0.146,0.05l0.146,0.051l0.145,0.053l0.145,0.055l0.143,0.056l0.143,0.058l0.143,0.06l0.141,0.062l0.141,0.064l0.14,0.065l0.14,0.067l0.138,0.068l0.138,0.07l0.137,0.072l0.136,0.074l0.135,0.075l0.134,0.077l0.133,0.079l0.133,0.08l0.131,0.082l0.131,0.084l0.129,0.085l0.129,0.087l0.128,0.089l0.126,0.09l0.126,0.092l0.125,0.093l0.123,0.095l0.122,0.097l0.122,0.098l0.12,0.1l0.119,0.101l0.118,0.103l0.117,0.104l0.115,0.106l0.115,0.108l0.113,0.109l0.106,0.104l26.053,26.053l0.069,0.066l0.069,0.065l0.07,0.064l0.07,0.062l0.071,0.062l0.071,0.06l0.144,0.118l0.073,0.057l0.074,0.056l0.073,0.055l0.075,0.054l0.075,0.053l0.075,0.052l0.076,0.051l0.076,0.049l0.077,0.049l0.077,0.048l0.156,0.092l0.079,0.044l0.158,0.086l0.08,0.041l0.08,0.04l0.081,0.04l0.081,0.038l0.081,0.037l0.082,0.036l0.082,0.035l0.082,0.034l0.083,0.033l0.083,0.032l0.083,0.031l0.084,0.03l0.168,0.056l0.085,0.027l0.085,0.026l0.17,0.048l0.172,0.044l0.172,0.04l0.086,0.018l0.174,0.034l0.087,0.015l0.087,0.014l0.087,0.013l0.088,0.012l0.087,0.011l0.088,0.01l0.088,0.009l0.087,0.008l0.088,0.007l0.088,0.006l0.176,0.008l0.089,0.003l0.176,0.002l0.088,-0.001l0.088,-0.001l0.088,-0.003l0.088,-0.004l0.088,-0.004l0.089,-0.006l0.088,-0.007l0.087,-0.008l0.088,-0.009l0.088,-0.01l0.087,-0.011l0.088,-0.012l0.087,-0.013l0.087,-0.014l0.087,-0.015l0.087,-0.017l0.087,-0.017l0.086,-0.018l0.086,-0.02l0.086,-0.02l0.086,-0.022l0.086,-0.022l0.085,-0.024l0.085,-0.024l0.085,-0.026l0.085,-0.027l0.084,-0.028l0.084,-0.028l0.084,-0.03l0.083,-0.031l0.083,-0.032l0.083,-0.033l0.082,-0.034l0.082,-0.035l0.082,-0.036l0.081,-0.037l0.081,-0.038l0.081,-0.04l0.08,-0.04l0.08,-0.041l0.079,-0.043l0.079,-0.043l0.079,-0.044l0.078,-0.046l0.077,-0.046l0.078,-0.048l0.077,-0.049l0.076,-0.049l0.076,-0.051l0.075,-0.052l0.075,-0.053l0.075,-0.054l0.073,-0.055l0.074,-0.056l0.073,-0.057l0.072,-0.059l0.072,-0.059l0.071,-0.06l0.071,-0.062l0.07,-0.062l0.07,-0.064l0.069,-0.065l0.068,-0.066l0.074,-0.073l25.981,-25.98l0.1,-0.104l0.12,-0.109l0.11,-0.108l0.12,-0.106l0.12,-0.104l0.11,-0.103l0.12,-0.101l0.12,-0.1l0.12,-0.098l0.13,-0.097l0.12,-0.095l0.12,-0.093l0.13,-0.092l0.13,-0.09l0.12,-0.089l0.13,-0.087l0.13,-0.085l0.13,-0.084l0.13,-0.082l0.14,-0.08l0.13,-0.079l0.13,-0.077l0.14,-0.075l0.13,-0.074l0.14,-0.072l0.14,-0.07l0.14,-0.068l0.14,-0.067l0.14,-0.065l0.14,-0.064l0.14,-0.062l0.14,-0.06l0.14,-0.058l0.15,-0.056l0.14,-0.055l0.15,-0.053l0.15,-0.051l0.14,-0.05l0.15,-0.047l0.15,-0.046l0.14,-0.044l0.15,-0.043l0.15,-0.04l0.15,-0.039l0.15,-0.037l0.15,-0.035l0.16,-0.033l0.15,-0.031l0.15,-0.03l0.15,-0.027l0.16,-0.026l0.15,-0.024l0.15,-0.022l0.16,-0.02l0.15,-0.018l0.16,-0.017l0.15,-0.014l0.16,-0.013l0.16,-0.01l0.15,-0.009l0.16,-0.007l0.16,-0.005l0.15,-0.003l0.15,-0.001l338.76,0l0,5.334l-338.74,0l-0.1,0l-0.09,0.002l-0.09,0.003l-0.09,0.004l-0.1,0.005l-0.08,0.006l-0.09,0.007l-0.1,0.009l-0.08,0.009l-0.09,0.011l-0.09,0.011l-0.09,0.013l-0.09,0.014l-0.09,0.015l-0.09,0.016l-0.09,0.017l-0.08,0.018l-0.09,0.019l-0.09,0.02l-0.09,0.022l-0.08,0.022l-0.09,0.024l-0.09,0.024l-0.08,0.026l-0.09,0.026l-0.08,0.028l-0.09,0.028l-0.08,0.03l-0.09,0.031l-0.08,0.031l-0.08,0.033l-0.09,0.034l-0.08,0.035l-0.08,0.035l-0.08,0.037l-0.08,0.038l-0.08,0.038l-0.08,0.04l-0.08,0.041l-0.08,0.042l-0.08,0.042l-0.08,0.044l-0.08,0.044l-0.07,0.046l-0.08,0.046l-0.08,0.048l-0.07,0.048l-0.08,0.05l-0.07,0.05l-0.08,0.051l-0.07,0.052l-0.07,0.054l-0.07,0.054l-0.08,0.055l-0.07,0.056l-0.07,0.056l-0.07,0.058l-0.07,0.059l-0.06,0.059l-0.07,0.061l-0.07,0.061l-0.06,0.062l-0.07,0.063l-0.07,0.07l-25.981,25.98l-0.11,0.109l-0.118,0.113l-0.118,0.111l-0.119,0.109l-0.121,0.107l-0.122,0.106l-0.122,0.104l-0.124,0.103l-0.125,0.1l-0.126,0.099l-0.126,0.097l-0.128,0.095l-0.129,0.093l-0.129,0.092l-0.131,0.089l-0.131,0.088l-0.133,0.087l-0.133,0.084l-0.134,0.082l-0.134,0.081l-0.136,0.079l-0.136,0.077l-0.137,0.075l-0.138,0.074l-0.139,0.072l-0.139,0.07l-0.14,0.068l-0.14,0.066l-0.141,0.064l-0.142,0.063l-0.142,0.061l-0.143,0.059l-0.143,0.057l-0.144,0.055l-0.145,0.053l-0.145,0.052l-0.145,0.05l-0.146,0.048l-0.146,0.046l-0.147,0.045l-0.147,0.042l-0.148,0.041l-0.148,0.039l-0.148,0.037l-0.149,0.035l-0.149,0.034l-0.149,0.032l-0.149,0.03l-0.15,0.028l-0.15,0.026l-0.15,0.024l-0.151,0.023l-0.15,0.021l-0.151,0.019l-0.151,0.017l-0.151,0.015l-0.152,0.014l-0.151,0.012l-0.152,0.01l-0.151,0.008l-0.152,0.006l-0.151,0.005l-0.152,0.002l-0.152,0.001l-0.152,-0.001l-0.152,-0.002l-0.151,-0.005l-0.152,-0.006l-0.152,-0.008l-0.151,-0.01l-0.151,-0.012l-0.152,-0.014l-0.151,-0.015l-0.151,-0.017l-0.151,-0.019l-0.15,-0.021l-0.151,-0.023l-0.15,-0.024l-0.15,-0.026l-0.15,-0.028l-0.15,-0.03l-0.149,-0.032l-0.149,-0.034l-0.148,-0.035l-0.148,-0.037l-0.148,-0.039l-0.148,-0.041l-0.147,-0.042l-0.147,-0.045l-0.146,-0.046l-0.146,-0.048l-0.146,-0.05l-0.144,-0.052l-0.145,-0.053l-0.144,-0.055l-0.143,-0.057l-0.143,-0.059l-0.142,-0.061l-0.142,-0.063l-0.141,-0.064l-0.141,-0.066l-0.139,-0.068l-0.14,-0.07l-0.138,-0.072l-0.138,-0.073l-0.137,-0.076l-0.136,-0.077l-0.136,-0.079l-0.135,-0.081l-0.133,-0.082l-0.133,-0.084l-0.133,-0.087l-0.131,-0.088l-0.131,-0.089l-0.129,-0.092l-0.129,-0.093l-0.128,-0.095l-0.127,-0.097l-0.125,-0.099l-0.125,-0.1l-0.124,-0.103l-0.123,-0.104l-0.121,-0.106l-0.121,-0.107l-0.119,-0.109l-0.119,-0.111l-0.117,-0.113l-0.11,-0.109l-25.98,-25.98l-0.07,-0.07l-0.066,-0.063l-0.066,-0.062l-0.067,-0.061l-0.068,-0.061l-0.068,-0.059l-0.069,-0.059l-0.069,-0.058l-0.071,-0.056l-0.07,-0.056l-0.072,-0.055l-0.072,-0.054l-0.073,-0.054l-0.073,-0.052l-0.074,-0.051l-0.074,-0.05l-0.075,-0.05l-0.076,-0.048l-0.076,-0.048l-0.077,-0.046l-0.077,-0.046l-0.078,-0.044l-0.078,-0.044l-0.079,-0.042l-0.079,-0.042l-0.08,-0.041l-0.08,-0.04l-0.08,-0.038l-0.082,-0.038l-0.081,-0.037l-0.082,-0.035l-0.083,-0.035l-0.082,-0.034l-0.084,-0.033l-0.083,-0.031l-0.084,-0.031l-0.085,-0.03l-0.085,-0.028l-0.085,-0.028l-0.085,-0.026l-0.086,-0.026l-0.086,-0.024l-0.087,-0.024l-0.087,-0.022l-0.087,-0.022l-0.087,-0.02l-0.088,-0.019l-0.087,-0.018l-0.089,-0.017l-0.088,-0.016l-0.089,-0.015l-0.089,-0.014l-0.089,-0.013l-0.09,-0.011l-0.089,-0.011l-0.09,-0.009l-0.09,-0.009l-0.09,-0.007l-0.091,-0.006l-0.09,-0.005l-0.091,-0.004l-0.091,-0.003l-0.091,-0.002l-0.099,0l-51.278,0l-0.149,-0.001l-0.157,-0.003l-0.157,-0.005l-0.157,-0.007l-0.156,-0.009l-0.156,-0.01l-0.156,-0.013l-0.156,-0.014l-0.155,-0.017l-0.155,-0.018l-0.154,-0.02l-0.154,-0.022l-0.154,-0.024l-0.153,-0.026l-0.153,-0.028l-0.152,-0.029l-0.153,-0.031l-0.151,-0.034l-0.151,-0.035l-0.15,-0.036l-0.15,-0.039l-0.15,-0.041l-0.149,-0.042l-0.148,-0.044l-0.147,-0.046l-0.148,-0.047l-0.146,-0.05l-0.146,-0.051l-0.145,-0.053l-0.144,-0.055l-0.144,-0.056l-0.143,-0.059l-0.142,-0.06l-0.142,-0.061l-0.141,-0.064l-0.14,-0.065l-0.139,-0.067l-0.139,-0.068l-0.137,-0.071l-0.137,-0.072l-0.136,-0.073l-0.136,-0.076l-0.134,-0.077l-0.133,-0.078l-0.133,-0.081l-0.131,-0.082l-0.131,-0.083l-0.129,-0.085l-0.129,-0.087l-0.128,-0.089l-0.126,-0.09l-0.126,-0.092l-0.124,-0.093l-0.124,-0.095l-0.122,-0.097l-0.121,-0.098l-0.121,-0.1l-0.119,-0.101l-0.118,-0.103l-0.116,-0.104l-0.116,-0.106l-0.114,-0.108l-0.114,-0.109l-0.112,-0.11l-0.11,-0.112l-0.109,-0.113l-0.108,-0.115l-0.106,-0.115l-0.104,-0.117l-0.103,-0.118l-0.101,-0.119l-0.1,-0.12l-0.098,-0.122l-0.097,-0.122l-0.095,-0.124l-0.093,-0.124l-0.092,-0.126l-0.09,-0.126l-0.088,-0.128l-0.087,-0.129l-0.086,-0.129l-0.083,-0.131l-0.082,-0.131l-0.081,-0.133l-0.078,-0.133l-0.077,-0.134l-0.076,-0.136l-0.073,-0.136l-0.072,-0.136l-0.071,-0.138l-0.068,-0.139l-0.067,-0.139l-0.065,-0.14l-0.064,-0.141l-0.061,-0.141l-0.06,-0.143l-0.059,-0.143l-0.056,-0.144l-0.055,-0.144l-0.053,-0.145l-0.051,-0.146l-0.049,-0.146l-0.048,-0.147l-0.046,-0.148l-0.044,-0.148l-0.042,-0.149l-0.041,-0.15l-0.039,-0.15l-0.036,-0.15l-0.035,-0.151l-0.034,-0.151l-0.031,-0.152l-0.029,-0.153l-0.028,-0.153l-0.026,-0.153l-0.024,-0.154l-0.022,-0.154l-0.02,-0.154l-0.018,-0.155l-0.017,-0.155l-0.014,-0.156l-0.013,-0.156l-0.01,-0.156l-0.009,-0.156l-0.007,-0.157l-0.005,-0.157l-0.003,-0.157l0,-0.149l0,-199.191l0,-0.149l0.003,-0.157l0.005,-0.157l0.007,-0.157l0.009,-0.156l0.01,-0.156l0.013,-0.156l0.014,-0.155l0.017,-0.156l0.018,-0.154l0.02,-0.155l0.022,-0.154l0.024,-0.154l0.026,-0.153l0.028,-0.153l0.029,-0.152l0.031,-0.152l0.034,-0.152l0.035,-0.151l0.037,-0.15l0.038,-0.15l0.041,-0.15l0.042,-0.148l0.044,-0.149l0.046,-0.147l0.048,-0.147l0.049,-0.147l0.051,-0.146l0.053,-0.145l0.055,-0.144l0.056,-0.144l0.059,-0.143l0.06,-0.142l0.061,-0.142l0.064,-0.141l0.065,-0.14l0.067,-0.139l0.068,-0.139l0.071,-0.137l0.072,-0.137l0.073,-0.136l0.076,-0.135l0.077,-0.135l0.078,-0.133l0.081,-0.132l0.082,-0.132l0.083,-0.13l0.086,-0.13l0.087,-0.129l0.088,-0.127l0.09,-0.127l0.092,-0.126l0.093,-0.124l0.095,-0.124l0.097,-0.122l0.098,-0.121l0.1,-0.12l0.101,-0.12l0.103,-0.117l0.104,-0.117l0.106,-0.116l0.108,-0.114l0.109,-0.113l0.11,-0.112l0.112,-0.111l0.114,-0.109l0.114,-0.107l0.116,-0.106l0.116,-0.105l0.118,-0.103l0.119,-0.101l0.12,-0.1l0.122,-0.098l0.122,-0.096l0.124,-0.095l0.124,-0.094l0.126,-0.092l0.126,-0.09l0.128,-0.088l0.129,-0.087l0.129,-0.085l0.131,-0.084l0.131,-0.082l0.133,-0.08l0.133,-0.079l0.134,-0.077l0.136,-0.075l0.136,-0.074l0.136,-0.072l0.138,-0.07l0.139,-0.069l0.139,-0.067l0.14,-0.065l0.141,-0.063l0.141,-0.062l0.143,-0.06l0.143,-0.058l0.144,-0.057l0.144,-0.055l0.145,-0.053l0.146,-0.051l0.146,-0.049l0.148,-0.048l0.147,-0.046l0.148,-0.044l0.149,-0.042l0.15,-0.041l0.15,-0.038l0.15,-0.037l0.151,-0.035l0.152,-0.033l0.151,-0.032l0.153,-0.029l0.153,-0.028l0.153,-0.026l0.154,-0.023l0.154,-0.023l0.154,-0.02l0.155,-0.018l0.155,-0.016l0.156,-0.015l0.156,-0.012l0.156,-0.011l0.156,-0.009l0.157,-0.007l0.157,-0.004l0.157,-0.003l0.149,-0.001l470.28,0l0,5.333Z" style="fill:#b3b3b3;"/></g><g><circle cx="54.847" cy="161.119" r="30.824" style="fill:#ffe680;"/><path d="M60.337,147.269l0,27.718l-7.84,0l0,-21.659l-5.148,0l0,-6.059l12.988,0Z" style="fill:#282a2f;fill-rule:nonzero;"/><path d="M55.13,116.971l0.565,0l0.282,0.016l0.283,0l0.847,0.047l0.283,0l0.282,0.031l0.848,0.047l0.267,0.032l0.282,0.031l0.283,0.016l0.266,0.031l0.565,0.063l0.267,0.031l0.283,0.047l0.282,0.032l0.267,0.047l0.282,0.031l0.534,0.094l0.283,0.048l0.533,0.094l0.283,0.047l0.266,0.063l0.267,0.047l0.267,0.062l0.283,0.048l1.6,0.376l0.267,0.079l0.251,0.062l0.534,0.157l0.267,0.063l0.251,0.094l0.267,0.063l0.251,0.094l0.267,0.079l0.251,0.078l0.266,0.079l0.252,0.094l0.266,0.094l0.251,0.078l0.503,0.189l0.266,0.094l0.754,0.282l0.251,0.11l0.251,0.094l0.251,0.11l0.236,0.095l0.753,0.329l0.235,0.11l0.251,0.11l0.236,0.11l0.251,0.125l0.235,0.11l0.251,0.11l0.471,0.251l0.236,0.11l0.251,0.125l0.941,0.503l0.22,0.141l0.471,0.251l0.235,0.141l0.22,0.126l0.471,0.282l0.439,0.283l0.236,0.141l0.659,0.424l0.235,0.157l0.22,0.141l0.22,0.157l0.204,0.141l0.659,0.471l0.22,0.141l0.204,0.157l0.219,0.157l0.204,0.173l0.22,0.157l0.204,0.157l0.204,0.172l0.22,0.157l0.204,0.173l0.204,0.157l0.612,0.518l0.204,0.157l0.188,0.172l0.204,0.189l0.205,0.172l0.188,0.173l0.204,0.173l0.188,0.172l0.204,0.189l0.189,0.172l0.376,0.377l0.189,0.173l0.941,0.941l0.173,0.189l0.188,0.204l0.189,0.188l0.172,0.188l0.173,0.204l0.188,0.189l0.173,0.204l0.172,0.188l0.864,1.02l0.157,0.204l0.172,0.204l0.157,0.204l0.173,0.204l0.157,0.204l0.172,0.22l0.157,0.204l0.157,0.22l0.157,0.204l0.314,0.439l0.157,0.204l0.157,0.22l0.141,0.22l0.157,0.219l0.141,0.22l0.157,0.22l0.283,0.439l0.157,0.22l0.141,0.235l0.141,0.22l0.142,0.235l0.141,0.22l0.125,0.236l0.142,0.219l0.141,0.236l0.125,0.235l0.142,0.22l1.004,1.883l0.11,0.251l0.251,0.471l0.11,0.251l0.11,0.236l0.11,0.251l0.109,0.235l0.126,0.251l0.11,0.236l0.094,0.251l0.22,0.502l0.094,0.251l0.11,0.251l0.188,0.502l0.11,0.252l0.188,0.502l0.079,0.251l0.094,0.267l0.188,0.502l0.079,0.267l0.078,0.251l0.094,0.267l0.079,0.251l0.078,0.267l0.079,0.251l0.157,0.533l0.063,0.251l0.078,0.267l0.063,0.267l0.078,0.267l0.44,1.867l0.047,0.267l0.063,0.283l0.094,0.533l0.062,0.267l0.048,0.283l0.047,0.266l0.047,0.283l0.031,0.267l0.047,0.282l0.032,0.267l0.047,0.267l0.062,0.565l0.032,0.267l0.063,0.565l0.031,0.266l0.031,0.283l0.016,0.282l0.031,0.283l0.032,0.565l0.016,0.267l0.047,0.847l0,0.283l0.015,0.282l0,0.565l0.016,0.283l0,0.58l-0.016,0.283l0,0.565l-0.015,0.282l0,0.267l-0.016,0.298l-0.016,0.267l-0.015,0.283l-0.016,0.282l-0.016,0.283l-0.016,0.282l-0.031,0.283l-0.016,0.282l-0.031,0.267l-0.031,0.282l-0.032,0.283l-0.031,0.267l-0.032,0.282l-0.031,0.283l-0.031,0.267l-0.047,0.282l-0.032,0.267l-0.047,0.282l-0.031,0.267l-0.047,0.283l-0.047,0.266l-0.048,0.267l-0.062,0.283l-0.047,0.267l-0.047,0.266l-0.063,0.283l-0.047,0.267l-0.063,0.266l-0.063,0.267l-0.063,0.267l-0.062,0.267l-0.063,0.267l-0.063,0.266l-0.063,0.267l-0.078,0.267l-0.063,0.267l-0.078,0.251l-0.063,0.267l-0.079,0.267l-0.078,0.266l-0.079,0.251l-0.078,0.267l-0.079,0.251l-0.094,0.267l-0.078,0.251l-0.079,0.251l-0.094,0.267l-0.094,0.251l-0.094,0.251l-0.079,0.267l-0.094,0.251l-0.094,0.251l-0.11,0.252l-0.094,0.251l-0.094,0.251l-0.11,0.251l-0.094,0.251l-0.11,0.251l-0.11,0.251l-0.094,0.236l-0.11,0.251l-0.126,0.235l-0.109,0.251l-0.11,0.251l-0.11,0.236l-0.11,0.251l-0.126,0.235l-0.125,0.236l-0.11,0.235l-0.126,0.251l-0.125,0.236l-0.126,0.235l-0.125,0.235l-0.126,0.236l-0.125,0.235l-0.126,0.236l-0.125,0.235l-0.142,0.22l-0.125,0.235l-0.141,0.236l-0.142,0.219l-0.125,0.236l-0.141,0.22l-0.142,0.235l-0.141,0.22l-0.141,0.219l-0.157,0.22l-0.141,0.236l-0.142,0.219l-0.157,0.22l-0.141,0.22l-0.157,0.219l-0.141,0.22l-0.157,0.204l-0.157,0.22l-0.157,0.22l-0.157,0.219l-0.157,0.204l-0.157,0.22l-0.157,0.204l-0.172,0.204l-0.157,0.22l-0.173,0.204l-0.157,0.204l-0.172,0.204l-0.157,0.204l-0.173,0.204l-0.173,0.204l-0.172,0.204l-0.173,0.204l-0.173,0.188l-0.172,0.204l-0.173,0.204l-0.188,0.189l-0.173,0.188l-0.172,0.204l-0.189,0.188l-0.188,0.189l-0.173,0.204l-0.188,0.188l-0.188,0.188l-0.189,0.189l-0.188,0.188l-0.188,0.173l-0.189,0.188l-0.188,0.188l-0.188,0.173l-0.189,0.188l-0.204,0.173l-0.188,0.188l-0.204,0.173l-0.188,0.173l-0.205,0.172l-0.204,0.173l-0.188,0.173l-0.204,0.172l-0.204,0.173l-0.204,0.172l-0.204,0.157l-0.204,0.173l-0.204,0.173l-0.22,0.157l-0.204,0.172l-0.204,0.157l-0.22,0.157l-0.204,0.157l-0.219,0.157l-0.204,0.157l-0.22,0.157l-0.22,0.157l-0.219,0.157l-0.22,0.157l-0.204,0.141l-0.22,0.157l-0.22,0.141l-0.235,0.141l-0.22,0.157l-0.219,0.142l-0.22,0.141l-0.236,0.141l-0.219,0.141l-0.22,0.142l-0.235,0.141l-0.236,0.125l-0.22,0.142l-0.235,0.125l-0.235,0.141l-0.236,0.126l-0.22,0.126l-0.235,0.141l-0.235,0.125l-0.236,0.126l-0.235,0.126l-0.251,0.109l-0.236,0.126l-0.235,0.125l-0.236,0.11l-0.251,0.126l-0.235,0.11l-0.251,0.11l-0.236,0.125l-0.251,0.11l-0.235,0.11l-0.251,0.11l-0.251,0.11l-0.251,0.094l-0.236,0.11l-0.251,0.109l-0.251,0.095l-0.251,0.094l-0.251,0.11l-0.251,0.094l-0.252,0.094l-0.266,0.094l-0.251,0.094l-0.252,0.079l-0.251,0.094l-0.266,0.094l-0.252,0.079l-0.266,0.094l-0.251,0.078l-0.267,0.079l-0.251,0.078l-0.267,0.079l-0.251,0.078l-0.267,0.079l-0.267,0.078l-0.267,0.063l-0.251,0.078l-0.267,0.063l-0.266,0.063l-0.267,0.078l-0.267,0.063l-0.267,0.063l-0.267,0.063l-0.266,0.062l-0.283,0.048l-0.267,0.062l-0.267,0.047l-0.266,0.063l-0.283,0.047l-0.267,0.047l-0.266,0.047l-0.283,0.048l-0.267,0.047l-0.267,0.031l-0.282,0.047l-0.267,0.047l-0.282,0.032l-0.283,0.031l-0.267,0.047l-0.282,0.031l-0.283,0.032l-0.266,0.015l-0.283,0.032l-0.282,0.031l-0.267,0.016l-0.283,0.031l-0.282,0.016l-0.283,0.016l-0.282,0.015l-0.283,0.016l-0.282,0.016l-0.283,0.016l-0.282,0l-0.283,0.015l-0.282,0l-0.283,0.016l-0.282,0l-0.283,0l-0.282,0l-0.283,0l-0.282,-0.016l-0.283,0l-0.282,-0.015l-0.283,0l-0.282,-0.016l-0.283,-0.016l-0.282,-0.016l-0.283,-0.015l-0.282,-0.016l-0.267,-0.016l-0.283,-0.031l-0.282,-0.016l-0.283,-0.031l-0.266,-0.032l-0.283,-0.015l-0.282,-0.032l-0.267,-0.031l-0.283,-0.047l-0.282,-0.031l-0.267,-0.032l-0.282,-0.047l-0.267,-0.047l-0.283,-0.031l-0.267,-0.047l-0.282,-0.048l-0.267,-0.047l-0.267,-0.047l-0.282,-0.047l-0.267,-0.063l-0.267,-0.047l-0.267,-0.062l-0.266,-0.048l-0.267,-0.062l-0.267,-0.063l-0.267,-0.063l-0.267,-0.063l-0.282,-0.078l-0.251,-0.063l-0.267,-0.063l-0.267,-0.078l-0.267,-0.063l-0.266,-0.078l-0.251,-0.079l-0.267,-0.078l-0.267,-0.079l-0.251,-0.078l-0.267,-0.079l-0.251,-0.078l-0.267,-0.094l-0.251,-0.079l-0.251,-0.094l-0.267,-0.094l-0.251,-0.079l-0.251,-0.094l-0.251,-0.094l-0.251,-0.094l-0.267,-0.094l-0.251,-0.11l-0.251,-0.094l-0.236,-0.095l-0.251,-0.109l-0.251,-0.11l-0.251,-0.094l-0.251,-0.11l-0.236,-0.11l-0.251,-0.11l-0.251,-0.11l-0.235,-0.125l-0.251,-0.11l-0.236,-0.11l-0.235,-0.126l-0.251,-0.11l-0.236,-0.125l-0.235,-0.126l-0.236,-0.109l-0.235,-0.126l-0.235,-0.126l-0.236,-0.125l-0.235,-0.141l-0.236,-0.126l-0.235,-0.126l-0.235,-0.141l-0.22,-0.125l-0.236,-0.142l-0.235,-0.125l-0.22,-0.141l-0.235,-0.142l-0.22,-0.141l-0.235,-0.141l-0.22,-0.141l-0.22,-0.142l-0.219,-0.157l-0.22,-0.141l-0.22,-0.141l-0.22,-0.157l-0.219,-0.141l-0.22,-0.157l-0.22,-0.157l-0.219,-0.157l-0.204,-0.157l-0.22,-0.157l-0.22,-0.157l-0.204,-0.157l-0.22,-0.157l-0.204,-0.157l-0.204,-0.172l-0.204,-0.157l-0.219,-0.173l-0.205,-0.173l-0.204,-0.157l-0.204,-0.172l-0.204,-0.173l-0.188,-0.172l-0.204,-0.173l-0.204,-0.173l-0.188,-0.172l-0.204,-0.173l-0.204,-0.173l-0.189,-0.188l-0.188,-0.173l-0.204,-0.188l-0.188,-0.173l-0.189,-0.188l-0.188,-0.188l-0.188,-0.189l-0.189,-0.172l-0.188,-0.189l-0.188,-0.188l-0.173,-0.188l-0.188,-0.204l-0.189,-0.189l-0.172,-0.188l-0.189,-0.204l-0.172,-0.188l-0.173,-0.189l-0.188,-0.204l-0.173,-0.204l-0.173,-0.188l-0.172,-0.204l-0.173,-0.204l-0.172,-0.204l-0.157,-0.204l-0.173,-0.204l-0.173,-0.204l-0.157,-0.204l-0.172,-0.204l-0.157,-0.22l-0.157,-0.204l-0.173,-0.204l-0.157,-0.22l-0.157,-0.204l-0.157,-0.219l-0.157,-0.22l-0.156,-0.22l-0.142,-0.204l-0.157,-0.22l-0.157,-0.219l-0.141,-0.22l-0.157,-0.22l-0.141,-0.219l-0.141,-0.236l-0.142,-0.22l-0.141,-0.219l-0.157,-0.22l-0.141,-0.235l-0.126,-0.22l-0.141,-0.236l-0.141,-0.219l-0.126,-0.236l-0.141,-0.235l-0.125,-0.22l-0.142,-0.235l-0.125,-0.236l-0.126,-0.235l-0.125,-0.236l-0.126,-0.235l-0.125,-0.235l-0.126,-0.236l-0.126,-0.251l-0.109,-0.235l-0.126,-0.236l-0.11,-0.235l-0.125,-0.251l-0.11,-0.236l-0.11,-0.251l-0.11,-0.251l-0.11,-0.235l-0.11,-0.251l-0.109,-0.236l-0.11,-0.251l-0.11,-0.251l-0.094,-0.251l-0.095,-0.251l-0.109,-0.251l-0.095,-0.251l-0.094,-0.252l-0.094,-0.251l-0.094,-0.251l-0.094,-0.267l-0.094,-0.251l-0.095,-0.251l-0.078,-0.267l-0.094,-0.251l-0.079,-0.251l-0.094,-0.267l-0.078,-0.251l-0.079,-0.267l-0.078,-0.251l-0.079,-0.266l-0.078,-0.267l-0.063,-0.267l-0.078,-0.251l-0.063,-0.267l-0.079,-0.267l-0.062,-0.267l-0.063,-0.266l-0.063,-0.267l-0.063,-0.267l-0.063,-0.267l-0.062,-0.267l-0.063,-0.266l-0.047,-0.267l-0.063,-0.283l-0.047,-0.266l-0.047,-0.267l-0.047,-0.283l-0.047,-0.267l-0.063,-0.266l-0.031,-0.283l-0.048,-0.267l-0.047,-0.282l-0.031,-0.267l-0.047,-0.282l-0.032,-0.267l-0.031,-0.283l-0.031,-0.282l-0.032,-0.267l-0.031,-0.283l-0.031,-0.282l-0.016,-0.267l-0.032,-0.282l-0.015,-0.283l-0.032,-0.282l-0.015,-0.283l-0.016,-0.282l-0.016,-0.283l-0.015,-0.267l0,-0.298l-0.016,-0.267l-0.016,-0.282l0,-0.298l0,-0.267l0,-0.298l0,-0.283l0,-0.282l0,-0.283l0,-0.282l0,-0.283l0.016,-0.282l0.016,-0.283l0,-0.282l0.015,-0.283l0.016,-0.282l0.016,-0.267l0.015,-0.283l0.032,-0.282l0.015,-0.283l0.032,-0.282l0.016,-0.283l0.031,-0.266l0.031,-0.283l0.032,-0.282l0.031,-0.267l0.031,-0.283l0.032,-0.282l0.047,-0.267l0.031,-0.267l0.047,-0.282l0.048,-0.267l0.031,-0.283l0.063,-0.266l0.047,-0.283l0.047,-0.267l0.047,-0.267l0.047,-0.266l0.063,-0.283l0.047,-0.267l0.063,-0.266l0.062,-0.267l0.063,-0.267l0.063,-0.267l0.063,-0.267l0.063,-0.266l0.062,-0.267l0.079,-0.267l0.063,-0.267l0.078,-0.267l0.063,-0.251l0.078,-0.267l0.079,-0.266l0.078,-0.251l0.079,-0.267l0.078,-0.251l0.094,-0.267l0.079,-0.251l0.094,-0.267l0.078,-0.251l0.095,-0.251l0.094,-0.267l0.094,-0.251l0.094,-0.251l0.094,-0.251l0.094,-0.252l0.095,-0.251l0.109,-0.251l0.095,-0.251l0.094,-0.251l0.11,-0.251l0.11,-0.251l0.109,-0.251l0.11,-0.236l0.11,-0.251l0.11,-0.235l0.11,-0.251l0.11,-0.236l0.125,-0.251l0.11,-0.235l0.126,-0.236l0.109,-0.251l0.126,-0.235l0.126,-0.236l0.125,-0.235l0.126,-0.235l0.125,-0.236l0.126,-0.235l0.125,-0.236l0.142,-0.235l0.125,-0.22l0.141,-0.235l0.126,-0.236l0.141,-0.219l0.141,-0.236l0.126,-0.22l0.141,-0.235l0.157,-0.22l0.141,-0.235l0.142,-0.22l0.141,-0.22l0.141,-0.219l0.157,-0.22l0.141,-0.22l0.157,-0.219l0.157,-0.22l0.142,-0.22l0.156,-0.204l0.157,-0.22l0.157,-0.219l0.157,-0.204l0.157,-0.22l0.173,-0.204l0.157,-0.22l0.157,-0.204l0.172,-0.204l0.157,-0.204l0.173,-0.204l0.173,-0.204l0.157,-0.204l0.172,-0.204l0.173,-0.204l0.172,-0.204l0.173,-0.204l0.173,-0.188l0.188,-0.204l0.173,-0.189l0.172,-0.204l0.189,-0.188l0.172,-0.188l0.189,-0.204l0.188,-0.189l0.173,-0.188l0.188,-0.188l0.188,-0.189l0.189,-0.188l0.188,-0.188l0.188,-0.173l0.189,-0.188l0.188,-0.189l0.204,-0.172l0.188,-0.189l0.189,-0.172l0.204,-0.173l0.204,-0.173l0.188,-0.172l0.204,-0.189l0.204,-0.172l0.188,-0.157l0.204,-0.173l0.204,-0.172l0.204,-0.173l0.205,-0.157l0.219,-0.173l0.204,-0.157l0.204,-0.172l0.204,-0.157l0.22,-0.157l0.204,-0.173l0.22,-0.157l0.22,-0.157l0.204,-0.141l0.219,-0.157l0.22,-0.157l0.22,-0.157l0.219,-0.141l0.22,-0.157l0.22,-0.141l0.22,-0.157l0.219,-0.141l0.22,-0.142l0.22,-0.141l0.235,-0.141l0.22,-0.141l0.235,-0.142l0.22,-0.141l0.235,-0.141l0.236,-0.126l0.22,-0.141l0.235,-0.125l0.235,-0.126l0.236,-0.141l0.235,-0.126l0.236,-0.125l0.235,-0.126l0.235,-0.126l0.236,-0.125l0.235,-0.11l0.236,-0.125l0.251,-0.126l0.235,-0.11l0.236,-0.11l0.251,-0.125l0.235,-0.11l0.251,-0.11l0.251,-0.11l0.236,-0.11l0.251,-0.11l0.251,-0.109l0.251,-0.095l0.251,-0.11l0.236,-0.094l0.251,-0.11l0.251,-0.094l0.267,-0.094l0.251,-0.094l0.251,-0.094l0.251,-0.094l0.251,-0.095l0.267,-0.078l0.251,-0.094l0.251,-0.094l0.267,-0.079l0.251,-0.078l0.267,-0.079l0.251,-0.094l0.267,-0.063l0.267,-0.094l0.251,-0.063l0.266,-0.078l0.267,-0.079l0.267,-0.062l0.267,-0.079l0.251,-0.063l0.282,-0.062l0.267,-0.063l0.267,-0.063l0.267,-0.063l0.267,-0.062l0.266,-0.048l0.267,-0.062l0.267,-0.047l0.267,-0.063l0.282,-0.047l0.267,-0.047l0.267,-0.047l0.282,-0.048l0.267,-0.047l0.283,-0.047l0.267,-0.031l0.282,-0.047l0.267,-0.032l0.282,-0.047l0.283,-0.031l0.267,-0.031l0.282,-0.032l0.283,-0.031l0.266,-0.016l0.283,-0.031l0.282,-0.032l0.283,-0.015l0.267,-0.016l0.282,-0.016l0.283,-0.031l0.282,0l0.283,-0.016l0.282,-0.016l0.283,-0.015l0.282,0l0.283,-0.016l1.13,0Zm-0.487,13.325l-0.188,0.015l-0.204,0l-0.204,0l-0.188,0l-0.205,0.016l-0.188,0l-0.204,0.016l-0.188,0.015l-0.204,0l-0.189,0.016l-0.204,0.016l-0.188,0.015l-0.204,0.016l-0.188,0.016l-0.204,0.015l-0.189,0.032l-0.188,0.016l-0.204,0.031l-0.188,0.016l-0.189,0.031l-0.188,0.016l-0.204,0.031l-0.188,0.032l-0.189,0.031l-0.188,0.031l-0.188,0.032l-0.189,0.031l-0.188,0.031l-0.188,0.032l-0.204,0.047l-0.173,0.031l-0.188,0.047l-0.189,0.032l-0.188,0.047l-0.188,0.047l-0.189,0.047l-0.188,0.031l-0.188,0.048l-0.173,0.047l-0.188,0.047l-0.189,0.047l-0.188,0.063l-0.173,0.047l-0.188,0.047l-0.188,0.062l-0.173,0.048l-0.188,0.062l-0.173,0.047l-0.188,0.063l-0.173,0.063l-0.188,0.063l-0.173,0.063l-0.172,0.062l-0.189,0.063l-0.172,0.063l-0.173,0.063l-0.173,0.062l-0.188,0.063l-0.173,0.079l-0.172,0.062l-0.173,0.079l-0.173,0.063l-0.172,0.078l-0.173,0.079l-0.172,0.062l-0.173,0.079l-0.173,0.078l-0.172,0.079l-0.173,0.078l-0.157,0.079l-0.173,0.078l-0.172,0.079l-0.157,0.094l-0.173,0.078l-0.172,0.079l-0.157,0.094l-0.173,0.078l-0.157,0.095l-0.173,0.094l-0.157,0.078l-0.172,0.094l-0.157,0.095l-0.157,0.094l-0.157,0.094l-0.173,0.094l-0.157,0.094l-0.157,0.094l-0.156,0.095l-0.157,0.094l-0.157,0.11l-0.157,0.094l-0.157,0.094l-0.157,0.11l-0.157,0.094l-0.157,0.11l-0.141,0.11l-0.157,0.094l-0.157,0.11l-0.141,0.11l-0.157,0.109l-0.157,0.11l-0.142,0.11l-0.157,0.11l-0.141,0.11l-0.141,0.11l-0.157,0.11l-0.141,0.125l-0.141,0.11l-0.157,0.11l-0.142,0.125l-0.141,0.11l-0.141,0.126l-0.141,0.11l-0.142,0.125l-0.141,0.126l-0.141,0.11l-0.141,0.125l-0.126,0.126l-0.141,0.125l-0.141,0.126l-0.142,0.125l-0.125,0.126l-0.142,0.126l-0.125,0.125l-0.141,0.126l-0.126,0.141l-0.125,0.125l-0.142,0.126l-0.125,0.141l-0.126,0.126l-0.125,0.141l-0.126,0.126l-0.141,0.141l-0.11,0.125l-0.126,0.142l-0.125,0.141l-0.126,0.141l-0.125,0.126l-0.126,0.141l-0.11,0.141l-0.125,0.141l-0.126,0.142l-0.11,0.141l-0.125,0.141l-0.11,0.157l-0.126,0.141l-0.109,0.142l-0.11,0.141l-0.11,0.157l-0.11,0.141l-0.126,0.157l-0.109,0.141l-0.11,0.157l-0.094,0.141l-0.11,0.157l-0.11,0.142l-0.11,0.157l-0.11,0.157l-0.094,0.157l-0.11,0.141l-0.094,0.157l-0.11,0.157l-0.094,0.157l-0.11,0.157l-0.094,0.156l-0.094,0.157l-0.094,0.157l-0.11,0.157l-0.094,0.173l-0.095,0.157l-0.078,0.157l-0.094,0.157l-0.094,0.172l-0.095,0.157l-0.094,0.173l-0.078,0.157l-0.094,0.157l-0.079,0.173l-0.094,0.172l-0.079,0.157l-0.094,0.173l-0.078,0.172l-0.079,0.157l-0.078,0.173l-0.079,0.173l-0.078,0.172l-0.079,0.157l-0.078,0.173l-0.078,0.172l-0.079,0.173l-0.063,0.173l-0.078,0.172l-0.079,0.173l-0.062,0.173l-0.079,0.188l-0.063,0.173l-0.062,0.172l-0.063,0.173l-0.079,0.172l-0.062,0.189l-0.063,0.172l-0.063,0.173l-0.063,0.188l-0.047,0.173l-0.063,0.188l-0.062,0.173l-0.063,0.188l-0.047,0.173l-0.063,0.188l-0.047,0.173l-0.047,0.188l-0.063,0.189l-0.047,0.172l-0.047,0.189l-0.047,0.188l-0.047,0.188l-0.047,0.173l-0.048,0.188l-0.047,0.189l-0.031,0.188l-0.047,0.188l-0.047,0.189l-0.032,0.188l-0.031,0.188l-0.047,0.189l-0.031,0.188l-0.032,0.188l-0.031,0.189l-0.032,0.188l-0.031,0.188l-0.031,0.189l-0.032,0.204l-0.031,0.188l-0.032,0.188l-0.015,0.189l-0.032,0.204l-0.015,0.188l-0.032,0.188l-0.015,0.204l-0.016,0.189l-0.016,0.204l-0.015,0.188l-0.016,0.188l-0.016,0.204l-0.016,0.189l-0.015,0.204l0,0.188l-0.016,0.204l-0.016,0.204l0,0.581l-0.015,0.204l0,0.8l0.015,0.189l0,0.596l0.016,0.204l0.016,0.188l0,0.204l0.015,0.189l0.016,0.204l0.016,0.188l0.016,0.204l0.015,0.188l0.016,0.204l0.031,0.377l0.032,0.204l0.015,0.188l0.032,0.189l0.015,0.204l0.095,0.565l0.031,0.204l0.157,0.941l0.047,0.189l0.063,0.376l0.094,0.377l0.031,0.188l0.047,0.189l0.048,0.172l0.141,0.565l0.047,0.173l0.047,0.188l0.063,0.189l0.047,0.172l0.047,0.189l0.063,0.188l0.047,0.173l0.063,0.188l0.062,0.173l0.063,0.188l0.047,0.173l0.063,0.172l0.063,0.189l0.125,0.345l0.079,0.188l0.188,0.518l0.079,0.173l0.062,0.172l0.079,0.189l0.078,0.172l0.063,0.157l0.079,0.189l0.078,0.157l0.392,0.863l0.079,0.157l0.078,0.172l0.094,0.173l0.079,0.157l0.094,0.172l0.079,0.157l0.094,0.173l0.078,0.157l0.094,0.173l0.189,0.314l0.094,0.172l0.078,0.157l0.189,0.314l0.11,0.157l0.094,0.173l0.188,0.313l0.11,0.157l0.094,0.157l0.11,0.157l0.094,0.142l0.11,0.156l0.094,0.157l0.11,0.157l0.11,0.142l0.22,0.314l0.094,0.141l0.11,0.157l0.109,0.141l0.126,0.157l0.22,0.282l0.11,0.157l0.109,0.142l0.126,0.141l0.11,0.141l0.125,0.141l0.11,0.142l0.251,0.282l0.11,0.141l0.502,0.565l0.126,0.126l0.11,0.141l0.267,0.267l0.125,0.141l0.126,0.126l0.125,0.141l0.142,0.126l0.517,0.517l0.142,0.126l0.125,0.126l0.424,0.376l0.126,0.126l0.141,0.11l0.282,0.251l0.142,0.11l0.282,0.251l0.141,0.11l0.142,0.125l0.157,0.11l0.282,0.22l0.157,0.125l0.282,0.22l0.157,0.11l0.142,0.11l0.314,0.219l0.141,0.11l0.157,0.094l0.157,0.11l0.141,0.11l0.157,0.094l0.157,0.11l0.157,0.094l0.157,0.11l0.314,0.189l0.157,0.109l0.47,0.283l0.173,0.094l0.471,0.283l0.172,0.078l0.157,0.094l0.173,0.094l0.157,0.079l0.173,0.094l0.157,0.078l0.172,0.095l0.173,0.078l0.157,0.079l0.172,0.094l0.173,0.078l0.157,0.079l0.518,0.235l0.173,0.063l0.517,0.235l0.173,0.063l0.173,0.079l0.345,0.125l0.188,0.079l0.518,0.188l0.189,0.063l0.345,0.125l0.188,0.063l0.173,0.063l0.188,0.047l0.173,0.063l0.188,0.062l0.173,0.048l0.188,0.062l0.188,0.047l0.173,0.047l0.565,0.142l0.173,0.062l0.188,0.032l0.565,0.141l0.188,0.032l0.189,0.047l0.188,0.031l0.173,0.047l0.204,0.031l0.188,0.032l0.188,0.047l0.942,0.157l0.204,0.016l0.377,0.062l0.188,0.016l0.204,0.031l0.377,0.032l0.204,0.016l0.188,0.031l0.204,0.016l0.188,0.015l0.204,0.016l0.189,0l0.204,0.016l0.188,0.015l0.204,0l0.188,0.016l0.205,0l0.188,0.016l1.601,0l0.188,-0.016l0.204,0l0.204,-0.016l0.188,0l0.204,-0.015l0.189,-0.016l0.204,0l0.188,-0.016l0.204,-0.015l0.188,-0.016l0.189,-0.031l0.204,-0.016l0.188,-0.016l0.204,-0.016l0.189,-0.031l0.188,-0.016l0.188,-0.031l0.204,-0.031l0.189,-0.016l0.188,-0.032l0.188,-0.031l0.189,-0.031l0.204,-0.032l0.188,-0.031l0.188,-0.047l0.189,-0.032l0.188,-0.031l0.188,-0.047l0.189,-0.031l0.188,-0.047l0.188,-0.032l0.173,-0.047l0.188,-0.047l0.189,-0.047l0.188,-0.032l0.188,-0.062l0.173,-0.047l0.188,-0.047l0.188,-0.048l0.173,-0.047l0.188,-0.047l0.189,-0.062l0.172,-0.048l0.189,-0.062l0.172,-0.063l0.189,-0.047l0.172,-0.063l0.189,-0.063l0.172,-0.063l0.189,-0.062l0.172,-0.063l0.173,-0.063l0.173,-0.063l0.188,-0.062l0.173,-0.079l0.172,-0.063l0.173,-0.062l0.172,-0.079l0.173,-0.063l0.173,-0.078l0.172,-0.079l0.173,-0.078l0.173,-0.063l0.172,-0.078l0.173,-0.079l0.173,-0.078l0.172,-0.079l0.157,-0.078l0.173,-0.094l0.172,-0.079l0.157,-0.078l0.173,-0.095l0.173,-0.078l0.157,-0.094l0.172,-0.079l0.157,-0.094l0.157,-0.094l0.173,-0.078l0.157,-0.095l0.157,-0.094l0.172,-0.094l0.157,-0.094l0.157,-0.094l0.157,-0.094l0.157,-0.095l0.157,-0.109l0.157,-0.095l0.157,-0.094l0.157,-0.11l0.157,-0.094l0.157,-0.11l0.157,-0.094l0.157,-0.11l0.141,-0.11l0.157,-0.094l0.157,-0.11l0.141,-0.109l0.157,-0.11l0.141,-0.11l0.157,-0.11l0.141,-0.11l0.157,-0.11l0.142,-0.125l0.141,-0.11l0.157,-0.11l0.141,-0.11l0.141,-0.125l0.141,-0.11l0.142,-0.126l0.141,-0.125l0.141,-0.11l0.141,-0.126l0.142,-0.125l0.141,-0.11l0.141,-0.126l0.126,-0.125l0.141,-0.126l0.141,-0.125l0.126,-0.126l0.141,-0.126l0.126,-0.125l0.141,-0.141l0.125,-0.126l0.142,-0.125l0.125,-0.126l0.126,-0.141l0.125,-0.126l0.142,-0.141l0.125,-0.126l0.126,-0.141l0.125,-0.141l0.126,-0.126l0.125,-0.141l0.11,-0.141l0.126,-0.141l0.125,-0.142l0.126,-0.141l0.11,-0.141l0.125,-0.141l0.11,-0.142l0.126,-0.141l0.11,-0.141l0.125,-0.141l0.11,-0.142l0.11,-0.157l0.125,-0.141l0.11,-0.141l0.11,-0.157l0.11,-0.141l0.11,-0.157l0.11,-0.141l0.094,-0.157l0.11,-0.157l0.11,-0.142l0.109,-0.157l0.11,-0.157l0.094,-0.156l0.11,-0.142l0.094,-0.157l0.11,-0.157l0.094,-0.157l0.095,-0.156l0.094,-0.157l0.11,-0.173l0.094,-0.157l0.094,-0.157l0.094,-0.157l0.094,-0.157l0.095,-0.172l0.078,-0.157l0.094,-0.157l0.094,-0.173l0.094,-0.157l0.079,-0.173l0.094,-0.157l0.079,-0.172l0.094,-0.157l0.078,-0.173l0.079,-0.172l0.078,-0.157l0.079,-0.173l0.094,-0.173l0.078,-0.172l0.079,-0.173l0.063,-0.172l0.078,-0.157l0.078,-0.189l0.079,-0.157l0.063,-0.172l0.078,-0.189l0.063,-0.172l0.078,-0.173l0.063,-0.173l0.063,-0.172l0.078,-0.173l0.063,-0.188l0.063,-0.173l0.063,-0.172l0.063,-0.189l0.062,-0.172l0.063,-0.173l0.047,-0.188l0.063,-0.173l0.063,-0.188l0.047,-0.173l0.063,-0.188l0.047,-0.189l0.047,-0.172l0.063,-0.189l0.047,-0.188l0.047,-0.173l0.047,-0.188l0.047,-0.188l0.047,-0.189l0.047,-0.172l0.047,-0.189l0.032,-0.188l0.047,-0.188l0.047,-0.189l0.031,-0.188l0.047,-0.188l0.032,-0.189l0.031,-0.188l0.031,-0.188l0.047,-0.189l0.032,-0.188l0.016,-0.188l0.031,-0.204l0.031,-0.189l0.032,-0.188l0.031,-0.188l0.016,-0.204l0.031,-0.189l0.016,-0.188l0.031,-0.204l0.016,-0.188l0.016,-0.189l0.015,-0.204l0.016,-0.188l0.016,-0.204l0.015,-0.188l0.016,-0.204l0.016,-0.189l0.015,-0.204l0,-0.188l0.016,-0.204l0,-0.188l0.016,-0.204l0,-0.204l0,-0.189l0,-0.204l0,-0.204l0,-0.188l0,-0.204l0,-0.204l0,-0.189l-0.016,-0.204l0,-0.188l-0.016,-0.204l0,-0.204l-0.015,-0.188l-0.016,-0.204l-0.016,-0.189l-0.015,-0.204l-0.016,-0.188l-0.016,-0.188l-0.015,-0.204l-0.016,-0.189l-0.016,-0.204l-0.031,-0.188l-0.016,-0.188l-0.031,-0.204l-0.016,-0.189l-0.031,-0.188l-0.032,-0.188l-0.031,-0.204l-0.031,-0.189l-0.016,-0.188l-0.032,-0.188l-0.047,-0.189l-0.031,-0.188l-0.031,-0.188l-0.032,-0.189l-0.047,-0.188l-0.031,-0.188l-0.047,-0.189l-0.047,-0.188l-0.032,-0.188l-0.047,-0.189l-0.047,-0.188l-0.047,-0.173l-0.047,-0.188l-0.047,-0.188l-0.047,-0.189l-0.047,-0.172l-0.063,-0.189l-0.047,-0.188l-0.047,-0.173l-0.063,-0.188l-0.047,-0.173l-0.063,-0.188l-0.063,-0.173l-0.047,-0.188l-0.063,-0.173l-0.062,-0.188l-0.063,-0.173l-0.063,-0.172l-0.063,-0.189l-0.063,-0.172l-0.078,-0.173l-0.063,-0.172l-0.063,-0.173l-0.078,-0.188l-0.063,-0.173l-0.078,-0.173l-0.063,-0.172l-0.079,-0.173l-0.078,-0.173l-0.078,-0.172l-0.063,-0.173l-0.079,-0.157l-0.078,-0.172l-0.094,-0.173l-0.079,-0.173l-0.078,-0.157l-0.079,-0.172l-0.078,-0.173l-0.094,-0.157l-0.079,-0.172l-0.094,-0.173l-0.079,-0.157l-0.094,-0.157l-0.094,-0.173l-0.094,-0.157l-0.078,-0.172l-0.095,-0.157l-0.094,-0.157l-0.094,-0.157l-0.094,-0.173l-0.094,-0.157l-0.11,-0.157l-0.094,-0.157l-0.095,-0.156l-0.094,-0.157l-0.11,-0.157l-0.094,-0.157l-0.11,-0.157l-0.094,-0.141l-0.11,-0.157l-0.109,-0.157l-0.11,-0.157l-0.11,-0.142l-0.094,-0.157l-0.11,-0.141l-0.11,-0.157l-0.11,-0.141l-0.11,-0.157l-0.11,-0.141l-0.125,-0.157l-0.11,-0.141l-0.11,-0.142l-0.125,-0.141l-0.11,-0.157l-0.126,-0.141l-0.11,-0.141l-0.125,-0.142l-0.11,-0.141l-0.126,-0.141l-0.125,-0.141l-0.126,-0.126l-0.11,-0.141l-0.125,-0.141l-0.126,-0.142l-0.125,-0.125l-0.126,-0.141l-0.125,-0.126l-0.142,-0.141l-0.125,-0.126l-0.126,-0.141l-0.125,-0.126l-0.142,-0.125l-0.125,-0.141l-0.141,-0.126l-0.126,-0.125l-0.141,-0.126l-0.126,-0.126l-0.141,-0.125l-0.141,-0.126l-0.126,-0.125l-0.141,-0.126l-0.141,-0.125l-0.142,-0.11l-0.141,-0.126l-0.141,-0.125l-0.141,-0.11l-0.142,-0.126l-0.141,-0.11l-0.141,-0.125l-0.141,-0.11l-0.157,-0.11l-0.141,-0.125l-0.142,-0.11l-0.157,-0.11l-0.141,-0.11l-0.157,-0.11l-0.141,-0.11l-0.157,-0.11l-0.141,-0.109l-0.157,-0.11l-0.157,-0.11l-0.141,-0.094l-0.157,-0.11l-0.157,-0.11l-0.157,-0.094l-0.157,-0.11l-0.157,-0.094l-0.157,-0.094l-0.157,-0.11l-0.157,-0.094l-0.157,-0.095l-0.157,-0.094l-0.157,-0.094l-0.157,-0.094l-0.172,-0.094l-0.157,-0.094l-0.157,-0.095l-0.173,-0.094l-0.157,-0.078l-0.157,-0.094l-0.172,-0.095l-0.157,-0.078l-0.173,-0.094l-0.173,-0.079l-0.157,-0.078l-0.172,-0.094l-0.173,-0.079l-0.157,-0.078l-0.172,-0.079l-0.173,-0.078l-0.173,-0.079l-0.172,-0.078l-0.173,-0.079l-0.173,-0.062l-0.172,-0.079l-0.173,-0.078l-0.173,-0.063l-0.172,-0.079l-0.173,-0.062l-0.172,-0.079l-0.173,-0.063l-0.188,-0.062l-0.173,-0.063l-0.173,-0.063l-0.172,-0.063l-0.189,-0.062l-0.172,-0.063l-0.189,-0.063l-0.172,-0.063l-0.189,-0.063l-0.172,-0.047l-0.189,-0.062l-0.172,-0.048l-0.189,-0.062l-0.188,-0.047l-0.173,-0.047l-0.188,-0.063l-0.188,-0.047l-0.173,-0.047l-0.188,-0.047l-0.188,-0.048l-0.189,-0.031l-0.188,-0.047l-0.173,-0.047l-0.188,-0.047l-0.188,-0.032l-0.189,-0.047l-0.188,-0.031l-0.188,-0.047l-0.189,-0.032l-0.188,-0.031l-0.188,-0.031l-0.204,-0.032l-0.189,-0.031l-0.188,-0.031l-0.188,-0.032l-0.189,-0.031l-0.204,-0.016l-0.188,-0.031l-0.188,-0.016l-0.189,-0.031l-0.204,-0.016l-0.188,-0.032l-0.204,-0.015l-0.189,-0.016l-0.188,-0.016l-0.204,-0.015l-0.188,-0.016l-0.204,-0.016l-0.189,0l-0.204,-0.015l-0.188,-0.016l-0.204,0l-0.204,-0.016l-0.188,0l-0.204,0l-0.189,0l-0.204,-0.015l-0.204,0l-0.204,0Z" style="fill:#282a2f;"/></g></svg>