<?xml version="1.0" encoding="UTF-8" standalone="no"?>
<!DOCTYPE svg PUBLIC "-//W3C//DTD SVG 1.1//EN" "http://www.w3.org/Graphics/SVG/1.1/DTD/svg11.dtd">
<svg width="100%" height="100%" viewBox="0 0 542 265" version="1.1" xmlns="http://www.w3.org/2000/svg" xmlns:xlink="http://www.w3.org/1999/xlink" xml:space="preserve" xmlns:serif="http://www.serif.com/" style="fill-rule:evenodd;clip-rule:evenodd;stroke-linejoin:round;stroke-miterlimit:1.41421;">
    <g transform="matrix(1,0,0,1,-137.701,-347.527)">
        <g>
            <path d="M137.701,354.521L477.236,354.521C479.888,354.521 482.431,355.575 484.307,357.45C486.182,359.325 487.236,361.869 487.236,364.521C487.236,405.128 487.236,557.45 487.236,598.057C487.236,600.709 486.182,603.253 484.307,605.128C482.431,607.003 479.888,608.057 477.236,608.057L137.701,608.057" style="fill:none;"/>
            <clipPath id="_clip1">
                <path d="M137.701,354.521L477.236,354.521C479.888,354.521 482.431,355.575 484.307,357.45C486.182,359.325 487.236,361.869 487.236,364.521C487.236,405.128 487.236,557.45 487.236,598.057C487.236,600.709 486.182,603.253 484.307,605.128C482.431,607.003 479.888,608.057 477.236,608.057L137.701,608.057"/>
            </clipPath>
            <g clip-path="url(#_clip1)">
                <g transform="matrix(1.90819,0,0,1,-5478.79,-2443.71)">
                    <path d="M3084.04,3012.91L3084.15,3012.91L3084.26,3012.92L3084.37,3012.93L3084.48,3012.94L3084.59,3012.95L3084.7,3012.97L3084.81,3012.99L3084.91,3013.01L3085.02,3013.04L3085.13,3013.06L3085.24,3013.09L3085.34,3013.13L3085.45,3013.16L3085.55,3013.2L3085.66,3013.24L3085.76,3013.28L3085.87,3013.32L3085.97,3013.37L3086.07,3013.42L3086.17,3013.47L3086.28,3013.53L3086.38,3013.58L3086.48,3013.64L3086.58,3013.7L3086.68,3013.76L3086.78,3013.83L3086.88,3013.9L3086.97,3013.97L3087.07,3014.04L3087.17,3014.12L3087.27,3014.19L3087.36,3014.27L3087.46,3014.35L3087.55,3014.43L3087.64,3014.52L3087.74,3014.61L3087.83,3014.7L3087.92,3014.79L3088.01,3014.88L3088.11,3014.97L3088.2,3015.07L3088.28,3015.17L3088.37,3015.27L3088.46,3015.38L3088.55,3015.48L3088.64,3015.59L3088.72,3015.7L3088.81,3015.81L3088.89,3015.92L3088.97,3016.04L3089.06,3016.15L3089.14,3016.27L3089.22,3016.39L3089.3,3016.51L3089.38,3016.64L3089.46,3016.76L3089.54,3016.89L3089.61,3017.02L3089.69,3017.15L3089.76,3017.28L3089.84,3017.42L3089.91,3017.55L3089.99,3017.69L3090.06,3017.83L3090.13,3017.97L3090.2,3018.12L3090.27,3018.26L3090.34,3018.41L3090.41,3018.55L3090.47,3018.7L3090.54,3018.85L3090.6,3019L3090.67,3019.16L3090.73,3019.31L3090.79,3019.47L3090.85,3019.63L3090.91,3019.79L3090.97,3019.95L3091.03,3020.11L3091.09,3020.27L3091.14,3020.44L3091.2,3020.6L3091.25,3020.77L3091.31,3020.94L3091.36,3021.11L3091.41,3021.28L3091.46,3021.46L3091.51,3021.63L3091.56,3021.81L3091.6,3021.98L3091.65,3022.16L3091.7,3022.34L3091.74,3022.52L3091.78,3022.7L3091.82,3022.89L3091.86,3023.07L3091.9,3023.25L3091.94,3023.44L3091.97,3023.63L3092.01,3023.82L3092.05,3024.01L3092.08,3024.2L3092.11,3024.39L3092.14,3024.58L3092.17,3024.77L3092.2,3024.97L3092.23,3025.16L3092.25,3025.36L3092.28,3025.56L3092.3,3025.76L3092.32,3025.95L3092.34,3026.16L3092.36,3026.36L3092.38,3026.56L3092.4,3026.76L3092.41,3026.96L3092.43,3027.17L3092.44,3027.37L3092.45,3027.58L3092.46,3027.78L3092.47,3027.99L3092.48,3028.2L3092.49,3028.41L3092.49,3028.62L3092.49,3028.82L3092.49,3029.03L3092.5,3029.24L3092.5,3056.6L3092.49,3056.8L3092.49,3057.01L3092.49,3057.22L3092.49,3057.43L3092.48,3057.64L3092.47,3057.84L3092.46,3058.05L3092.45,3058.26L3092.44,3058.46L3092.43,3058.67L3092.41,3058.87L3092.4,3059.07L3092.38,3059.28L3092.36,3059.48L3092.34,3059.68L3092.32,3059.88L3092.3,3060.08L3092.28,3060.28L3092.25,3060.47L3092.23,3060.67L3092.2,3060.87L3092.17,3061.06L3092.14,3061.25L3092.11,3061.45L3092.08,3061.64L3092.05,3061.83L3092.01,3062.02L3091.97,3062.2L3091.94,3062.39L3091.9,3062.58L3091.86,3062.76L3091.82,3062.95L3091.78,3063.13L3091.74,3063.31L3091.7,3063.49L3091.65,3063.67L3091.6,3063.85L3091.56,3064.03L3091.51,3064.2L3091.46,3064.38L3091.41,3064.55L3091.36,3064.72L3091.31,3064.89L3091.25,3065.06L3091.2,3065.23L3091.14,3065.4L3091.09,3065.56L3091.03,3065.72L3090.97,3065.89L3090.91,3066.05L3090.85,3066.21L3090.79,3066.36L3090.73,3066.52L3090.67,3066.68L3090.6,3066.83L3090.54,3066.98L3090.47,3067.13L3090.41,3067.28L3090.34,3067.43L3090.27,3067.57L3090.2,3067.72L3090.13,3067.86L3090.06,3068L3089.99,3068.14L3089.91,3068.28L3089.84,3068.41L3089.76,3068.55L3089.69,3068.68L3089.61,3068.81L3089.54,3068.94L3089.46,3069.07L3089.38,3069.19L3089.3,3069.32L3089.22,3069.44L3089.14,3069.56L3089.06,3069.68L3088.97,3069.8L3088.89,3069.91L3088.81,3070.02L3088.72,3070.13L3088.64,3070.24L3088.55,3070.35L3088.46,3070.46L3088.37,3070.56L3088.28,3070.66L3088.2,3070.76L3088.11,3070.86L3088.01,3070.95L3087.92,3071.05L3087.83,3071.14L3087.74,3071.23L3087.64,3071.31L3087.55,3071.4L3087.46,3071.48L3087.36,3071.56L3087.27,3071.64L3087.17,3071.72L3087.07,3071.79L3086.97,3071.87L3086.88,3071.93L3086.78,3072L3086.68,3072.07L3086.58,3072.13L3086.48,3072.19L3086.38,3072.25L3086.28,3072.31L3086.17,3072.36L3086.07,3072.41L3085.97,3072.46L3085.87,3072.51L3085.76,3072.55L3085.66,3072.6L3085.55,3072.64L3085.45,3072.67L3085.34,3072.71L3085.24,3072.74L3085.13,3072.77L3085.02,3072.8L3084.91,3072.82L3084.81,3072.84L3084.7,3072.86L3084.59,3072.88L3084.48,3072.89L3084.37,3072.91L3084.26,3072.92L3084.15,3072.92L3084.04,3072.93L3083.94,3072.93L2948.21,3072.93L2948.11,3072.93L2948,3072.92L2947.89,3072.92L2947.78,3072.91L2947.67,3072.89L2947.56,3072.88L2947.45,3072.86L2947.34,3072.84L2947.24,3072.82L2947.13,3072.8L2947.02,3072.77L2946.92,3072.74L2946.81,3072.71L2946.7,3072.67L2946.6,3072.64L2946.49,3072.6L2946.39,3072.55L2946.29,3072.51L2946.18,3072.46L2946.08,3072.41L2945.98,3072.36L2945.88,3072.31L2945.77,3072.25L2945.67,3072.19L2945.57,3072.13L2945.47,3072.07L2945.37,3072L2945.27,3071.93L2945.18,3071.87L2945.08,3071.79L2944.98,3071.72L2944.89,3071.64L2944.79,3071.56L2944.69,3071.48L2944.6,3071.4L2944.51,3071.31L2944.41,3071.23L2944.32,3071.14L2944.23,3071.05L2944.14,3070.95L2944.05,3070.86L2943.96,3070.76L2943.87,3070.66L2943.78,3070.56L2943.69,3070.46L2943.6,3070.35L2943.52,3070.24L2943.43,3070.13L2943.35,3070.02L2943.26,3069.91L2943.18,3069.8L2943.1,3069.68L2943.01,3069.56L2942.93,3069.44L2942.85,3069.32L2942.77,3069.19L2942.69,3069.07L2942.62,3068.94L2942.54,3068.81L2942.46,3068.68L2942.39,3068.55L2942.31,3068.41L2942.24,3068.28L2942.16,3068.14L2942.09,3068L2942.02,3067.86L2941.95,3067.72L2941.88,3067.57L2941.81,3067.43L2941.74,3067.28L2941.68,3067.13L2941.61,3066.98L2941.55,3066.83L2941.48,3066.68L2941.42,3066.52L2941.36,3066.36L2941.3,3066.21L2941.24,3066.05L2941.18,3065.89L2941.12,3065.72L2941.06,3065.56L2941.01,3065.4L2940.95,3065.23L2940.9,3065.06L2940.84,3064.89L2940.79,3064.72L2940.74,3064.55L2940.69,3064.38L2940.64,3064.2L2940.59,3064.03L2940.55,3063.85L2940.5,3063.67L2940.46,3063.49L2940.41,3063.31L2940.37,3063.13L2940.33,3062.95L2940.29,3062.76L2940.25,3062.58L2940.21,3062.39L2940.18,3062.2L2940.14,3062.02L2940.11,3061.83L2940.07,3061.64L2940.04,3061.45L2940.01,3061.25L2939.98,3061.06L2939.95,3060.87L2939.93,3060.67L2939.9,3060.47L2939.88,3060.28L2939.85,3060.08L2939.83,3059.88L2939.81,3059.68L2939.79,3059.48L2939.77,3059.28L2939.75,3059.07L2939.74,3058.87L2939.72,3058.67L2939.71,3058.46L2939.7,3058.26L2939.69,3058.05L2939.68,3057.84L2939.67,3057.64L2939.67,3057.43L2939.66,3057.22L2939.66,3057.01L2939.66,3056.8L2939.66,3056.6L2939.66,3029.24L2939.66,3029.03L2939.66,3028.82L2939.66,3028.62L2939.67,3028.41L2939.67,3028.2L2939.68,3027.99L2939.69,3027.78L2939.7,3027.58L2939.71,3027.37L2939.72,3027.17L2939.74,3026.96L2939.75,3026.76L2939.77,3026.56L2939.79,3026.36L2939.81,3026.16L2939.83,3025.95L2939.85,3025.76L2939.88,3025.56L2939.9,3025.36L2939.93,3025.16L2939.95,3024.97L2939.98,3024.77L2940.01,3024.58L2940.04,3024.39L2940.07,3024.2L2940.11,3024.01L2940.14,3023.82L2940.18,3023.63L2940.21,3023.44L2940.25,3023.25L2940.29,3023.07L2940.33,3022.89L2940.37,3022.7L2940.41,3022.52L2940.46,3022.34L2940.5,3022.16L2940.55,3021.98L2940.59,3021.81L2940.64,3021.63L2940.69,3021.46L2940.74,3021.28L2940.79,3021.11L2940.84,3020.94L2940.9,3020.77L2940.95,3020.6L2941.01,3020.44L2941.06,3020.27L2941.12,3020.11L2941.18,3019.95L2941.24,3019.79L2941.3,3019.63L2941.36,3019.47L2941.42,3019.31L2941.48,3019.16L2941.55,3019L2941.61,3018.85L2941.68,3018.7L2941.74,3018.55L2941.81,3018.41L2941.88,3018.26L2941.95,3018.12L2942.02,3017.97L2942.09,3017.83L2942.16,3017.69L2942.24,3017.55L2942.31,3017.42L2942.39,3017.28L2942.46,3017.15L2942.54,3017.02L2942.62,3016.89L2942.69,3016.76L2942.77,3016.64L2942.85,3016.51L2942.93,3016.39L2943.01,3016.27L2943.1,3016.15L2943.18,3016.04L2943.26,3015.92L2943.35,3015.81L2943.43,3015.7L2943.52,3015.59L2943.6,3015.48L2943.69,3015.38L2943.78,3015.27L2943.87,3015.17L2943.96,3015.07L2944.05,3014.97L2944.14,3014.88L2944.23,3014.79L2944.32,3014.7L2944.41,3014.61L2944.51,3014.52L2944.6,3014.43L2944.69,3014.35L2944.79,3014.27L2944.89,3014.19L2944.98,3014.12L2945.08,3014.04L2945.18,3013.97L2945.27,3013.9L2945.37,3013.83L2945.47,3013.76L2945.57,3013.7L2945.67,3013.64L2945.77,3013.58L2945.88,3013.53L2945.98,3013.47L2946.08,3013.42L2946.18,3013.37L2946.29,3013.32L2946.39,3013.28L2946.49,3013.24L2946.6,3013.2L2946.7,3013.16L2946.81,3013.13L2946.92,3013.09L2947.02,3013.06L2947.13,3013.04L2947.24,3013.01L2947.34,3012.99L2947.45,3012.97L2947.56,3012.95L2947.67,3012.94L2947.78,3012.93L2947.89,3012.92L2948,3012.91L2948.11,3012.91L2948.21,3012.91L3083.94,3012.91L3084.04,3012.91ZM2948.22,3018.24L2948.14,3018.24L2948.07,3018.24L2947.99,3018.25L2947.92,3018.25L2947.85,3018.26L2947.77,3018.27L2947.7,3018.28L2947.63,3018.3L2947.55,3018.31L2947.48,3018.33L2947.41,3018.35L2947.34,3018.37L2947.27,3018.39L2947.2,3018.41L2947.13,3018.44L2947.05,3018.46L2946.99,3018.49L2946.91,3018.52L2946.85,3018.55L2946.78,3018.59L2946.71,3018.62L2946.64,3018.66L2946.57,3018.69L2946.5,3018.73L2946.44,3018.77L2946.37,3018.82L2946.3,3018.86L2946.24,3018.91L2946.17,3018.95L2946.11,3019L2946.04,3019.05L2945.97,3019.1L2945.91,3019.16L2945.85,3019.21L2945.78,3019.27L2945.72,3019.32L2945.66,3019.38L2945.59,3019.44L2945.53,3019.5L2945.47,3019.57L2945.41,3019.63L2945.35,3019.7L2945.29,3019.76L2945.23,3019.83L2945.17,3019.9L2945.11,3019.97L2945.05,3020.04L2944.99,3020.12L2944.94,3020.19L2944.88,3020.27L2944.83,3020.35L2944.77,3020.43L2944.71,3020.51L2944.66,3020.59L2944.61,3020.67L2944.55,3020.75L2944.5,3020.84L2944.45,3020.92L2944.39,3021.01L2944.34,3021.1L2944.29,3021.19L2944.24,3021.28L2944.19,3021.37L2944.14,3021.46L2944.09,3021.56L2944.04,3021.65L2944,3021.75L2943.95,3021.85L2943.9,3021.95L2943.86,3022.05L2943.81,3022.14L2943.77,3022.25L2943.72,3022.35L2943.68,3022.45L2943.64,3022.56L2943.6,3022.66L2943.55,3022.77L2943.51,3022.88L2943.47,3022.99L2943.43,3023.1L2943.4,3023.21L2943.36,3023.32L2943.32,3023.43L2943.28,3023.54L2943.25,3023.66L2943.21,3023.77L2943.18,3023.89L2943.15,3024L2943.11,3024.12L2943.08,3024.24L2943.05,3024.36L2943.02,3024.48L2942.99,3024.6L2942.96,3024.72L2942.93,3024.84L2942.9,3024.96L2942.88,3025.09L2942.85,3025.21L2942.83,3025.34L2942.8,3025.46L2942.78,3025.59L2942.75,3025.72L2942.73,3025.84L2942.71,3025.97L2942.69,3026.1L2942.67,3026.23L2942.65,3026.36L2942.63,3026.49L2942.61,3026.63L2942.6,3026.76L2942.58,3026.89L2942.57,3027.03L2942.55,3027.16L2942.54,3027.3L2942.53,3027.43L2942.52,3027.57L2942.51,3027.7L2942.5,3027.84L2942.49,3027.98L2942.48,3028.12L2942.47,3028.26L2942.47,3028.4L2942.46,3028.54L2942.46,3028.68L2942.45,3028.82L2942.45,3028.96L2942.45,3029.1L2942.45,3029.25L2942.45,3056.58L2942.45,3056.73L2942.45,3056.87L2942.45,3057.02L2942.46,3057.16L2942.46,3057.3L2942.47,3057.44L2942.47,3057.58L2942.48,3057.72L2942.49,3057.86L2942.5,3057.99L2942.51,3058.13L2942.52,3058.27L2942.53,3058.4L2942.54,3058.54L2942.55,3058.67L2942.57,3058.81L2942.58,3058.94L2942.6,3059.08L2942.61,3059.21L2942.63,3059.34L2942.65,3059.47L2942.67,3059.6L2942.69,3059.73L2942.71,3059.86L2942.73,3059.99L2942.75,3060.12L2942.78,3060.24L2942.8,3060.37L2942.83,3060.5L2942.85,3060.62L2942.88,3060.75L2942.9,3060.87L2942.93,3060.99L2942.96,3061.11L2942.99,3061.24L2943.02,3061.36L2943.05,3061.48L2943.08,3061.6L2943.11,3061.71L2943.15,3061.83L2943.18,3061.95L2943.21,3062.06L2943.25,3062.18L2943.28,3062.29L2943.32,3062.4L2943.36,3062.52L2943.4,3062.63L2943.43,3062.74L2943.47,3062.85L2943.51,3062.96L2943.55,3063.06L2943.6,3063.17L2943.64,3063.28L2943.68,3063.38L2943.72,3063.48L2943.77,3063.59L2943.81,3063.69L2943.86,3063.79L2943.9,3063.89L2943.95,3063.99L2944,3064.08L2944.04,3064.18L2944.09,3064.28L2944.14,3064.37L2944.19,3064.46L2944.24,3064.55L2944.29,3064.64L2944.34,3064.73L2944.39,3064.82L2944.45,3064.91L2944.5,3065L2944.55,3065.08L2944.61,3065.16L2944.66,3065.25L2944.71,3065.33L2944.77,3065.41L2944.83,3065.49L2944.88,3065.56L2944.94,3065.64L2945,3065.72L2945.05,3065.79L2945.11,3065.86L2945.17,3065.93L2945.23,3066L2945.29,3066.07L2945.35,3066.14L2945.41,3066.2L2945.47,3066.27L2945.53,3066.33L2945.6,3066.39L2945.66,3066.45L2945.72,3066.51L2945.78,3066.57L2945.85,3066.62L2945.91,3066.68L2945.97,3066.73L2946.04,3066.78L2946.11,3066.83L2946.17,3066.88L2946.24,3066.93L2946.3,3066.97L2946.37,3067.02L2946.44,3067.06L2946.5,3067.1L2946.57,3067.14L2946.64,3067.18L2946.71,3067.21L2946.78,3067.25L2946.85,3067.28L2946.91,3067.31L2946.99,3067.34L2947.05,3067.37L2947.13,3067.4L2947.2,3067.42L2947.27,3067.45L2947.34,3067.47L2947.41,3067.49L2947.48,3067.51L2947.55,3067.52L2947.63,3067.54L2947.7,3067.55L2947.77,3067.56L2947.85,3067.57L2947.92,3067.58L2947.99,3067.59L2948.07,3067.59L2948.14,3067.59L2948.22,3067.6L3083.93,3067.6L3084.01,3067.59L3084.08,3067.59L3084.16,3067.59L3084.23,3067.58L3084.31,3067.57L3084.38,3067.56L3084.45,3067.55L3084.52,3067.54L3084.6,3067.52L3084.67,3067.51L3084.74,3067.49L3084.81,3067.47L3084.88,3067.45L3084.95,3067.42L3085.03,3067.4L3085.1,3067.37L3085.17,3067.34L3085.24,3067.31L3085.31,3067.28L3085.37,3067.25L3085.44,3067.21L3085.51,3067.18L3085.58,3067.14L3085.65,3067.1L3085.72,3067.06L3085.78,3067.02L3085.85,3066.97L3085.91,3066.93L3085.98,3066.88L3086.05,3066.83L3086.11,3066.78L3086.18,3066.73L3086.24,3066.68L3086.31,3066.62L3086.37,3066.57L3086.43,3066.51L3086.49,3066.45L3086.56,3066.39L3086.62,3066.33L3086.68,3066.27L3086.74,3066.2L3086.8,3066.14L3086.86,3066.07L3086.92,3066L3086.98,3065.93L3087.04,3065.86L3087.1,3065.79L3087.16,3065.72L3087.21,3065.64L3087.27,3065.56L3087.33,3065.49L3087.38,3065.41L3087.44,3065.33L3087.49,3065.25L3087.55,3065.16L3087.6,3065.08L3087.65,3065L3087.71,3064.91L3087.76,3064.82L3087.81,3064.73L3087.86,3064.64L3087.91,3064.55L3087.96,3064.46L3088.01,3064.37L3088.06,3064.28L3088.11,3064.18L3088.16,3064.08L3088.2,3063.99L3088.25,3063.89L3088.29,3063.79L3088.34,3063.69L3088.38,3063.59L3088.43,3063.48L3088.47,3063.38L3088.51,3063.28L3088.56,3063.17L3088.6,3063.06L3088.64,3062.96L3088.68,3062.85L3088.72,3062.74L3088.75,3062.63L3088.79,3062.52L3088.83,3062.4L3088.87,3062.29L3088.9,3062.18L3088.94,3062.06L3088.97,3061.95L3089.01,3061.83L3089.04,3061.71L3089.07,3061.6L3089.1,3061.48L3089.13,3061.36L3089.16,3061.24L3089.19,3061.11L3089.22,3060.99L3089.25,3060.87L3089.28,3060.75L3089.3,3060.62L3089.33,3060.5L3089.35,3060.37L3089.38,3060.24L3089.4,3060.12L3089.42,3059.99L3089.44,3059.86L3089.46,3059.73L3089.48,3059.6L3089.5,3059.47L3089.52,3059.34L3089.54,3059.21L3089.55,3059.08L3089.57,3058.94L3089.58,3058.81L3089.6,3058.67L3089.61,3058.54L3089.62,3058.4L3089.63,3058.27L3089.64,3058.13L3089.65,3057.99L3089.66,3057.86L3089.67,3057.72L3089.68,3057.58L3089.68,3057.44L3089.69,3057.3L3089.69,3057.16L3089.7,3057.02L3089.7,3056.87L3089.7,3056.73L3089.7,3056.58L3089.7,3029.25L3089.7,3029.1L3089.7,3028.96L3089.7,3028.82L3089.69,3028.68L3089.69,3028.53L3089.68,3028.4L3089.68,3028.26L3089.67,3028.12L3089.66,3027.98L3089.65,3027.84L3089.64,3027.7L3089.63,3027.57L3089.62,3027.43L3089.61,3027.3L3089.6,3027.16L3089.58,3027.03L3089.57,3026.89L3089.55,3026.76L3089.54,3026.63L3089.52,3026.49L3089.5,3026.36L3089.48,3026.23L3089.46,3026.1L3089.44,3025.97L3089.42,3025.85L3089.4,3025.72L3089.38,3025.59L3089.35,3025.46L3089.33,3025.34L3089.3,3025.21L3089.28,3025.09L3089.25,3024.96L3089.22,3024.84L3089.19,3024.72L3089.16,3024.6L3089.13,3024.48L3089.1,3024.36L3089.07,3024.24L3089.04,3024.12L3089.01,3024L3088.97,3023.89L3088.94,3023.77L3088.9,3023.66L3088.87,3023.54L3088.83,3023.43L3088.79,3023.32L3088.75,3023.21L3088.72,3023.1L3088.68,3022.99L3088.64,3022.88L3088.6,3022.77L3088.56,3022.66L3088.51,3022.56L3088.47,3022.45L3088.43,3022.35L3088.38,3022.25L3088.34,3022.14L3088.29,3022.05L3088.25,3021.95L3088.2,3021.85L3088.16,3021.75L3088.11,3021.65L3088.06,3021.56L3088.01,3021.46L3087.96,3021.37L3087.91,3021.28L3087.86,3021.19L3087.81,3021.1L3087.76,3021.01L3087.71,3020.92L3087.65,3020.84L3087.6,3020.75L3087.55,3020.67L3087.49,3020.59L3087.44,3020.51L3087.38,3020.43L3087.33,3020.35L3087.27,3020.27L3087.21,3020.19L3087.16,3020.12L3087.1,3020.04L3087.04,3019.97L3086.98,3019.9L3086.92,3019.83L3086.86,3019.76L3086.8,3019.7L3086.74,3019.63L3086.68,3019.57L3086.62,3019.5L3086.56,3019.44L3086.49,3019.38L3086.43,3019.32L3086.37,3019.27L3086.31,3019.21L3086.24,3019.16L3086.18,3019.1L3086.11,3019.05L3086.05,3019L3085.98,3018.95L3085.91,3018.91L3085.85,3018.86L3085.78,3018.82L3085.72,3018.77L3085.65,3018.73L3085.58,3018.69L3085.51,3018.66L3085.44,3018.62L3085.37,3018.59L3085.31,3018.55L3085.24,3018.52L3085.17,3018.49L3085.1,3018.46L3085.03,3018.44L3084.95,3018.41L3084.88,3018.39L3084.81,3018.37L3084.74,3018.35L3084.67,3018.33L3084.6,3018.31L3084.52,3018.3L3084.45,3018.28L3084.38,3018.27L3084.3,3018.26L3084.23,3018.25L3084.16,3018.25L3084.08,3018.24L3084.01,3018.24L3083.93,3018.24L2948.22,3018.24Z" style="fill:rgb(179,179,179);"/>
                </g>
                <g transform="matrix(1.90819,0,0,1,-5478.79,-2514.49)">
                    <path d="M3084.04,3012.91L3084.15,3012.91L3084.26,3012.92L3084.37,3012.93L3084.48,3012.94L3084.59,3012.95L3084.7,3012.97L3084.81,3012.99L3084.91,3013.01L3085.02,3013.04L3085.13,3013.06L3085.24,3013.09L3085.34,3013.13L3085.45,3013.16L3085.55,3013.2L3085.66,3013.24L3085.76,3013.28L3085.87,3013.32L3085.97,3013.37L3086.07,3013.42L3086.17,3013.47L3086.28,3013.53L3086.38,3013.58L3086.48,3013.64L3086.58,3013.7L3086.68,3013.76L3086.78,3013.83L3086.88,3013.9L3086.97,3013.97L3087.07,3014.04L3087.17,3014.12L3087.27,3014.19L3087.36,3014.27L3087.46,3014.35L3087.55,3014.43L3087.64,3014.52L3087.74,3014.61L3087.83,3014.7L3087.92,3014.79L3088.01,3014.88L3088.11,3014.97L3088.2,3015.07L3088.28,3015.17L3088.37,3015.27L3088.46,3015.38L3088.55,3015.48L3088.64,3015.59L3088.72,3015.7L3088.81,3015.81L3088.89,3015.92L3088.97,3016.04L3089.06,3016.15L3089.14,3016.27L3089.22,3016.39L3089.3,3016.51L3089.38,3016.64L3089.46,3016.76L3089.54,3016.89L3089.61,3017.02L3089.69,3017.15L3089.76,3017.28L3089.84,3017.42L3089.91,3017.55L3089.99,3017.69L3090.06,3017.83L3090.13,3017.97L3090.2,3018.12L3090.27,3018.26L3090.34,3018.41L3090.41,3018.55L3090.47,3018.7L3090.54,3018.85L3090.6,3019L3090.67,3019.16L3090.73,3019.31L3090.79,3019.47L3090.85,3019.63L3090.91,3019.79L3090.97,3019.95L3091.03,3020.11L3091.09,3020.27L3091.14,3020.44L3091.2,3020.6L3091.25,3020.77L3091.31,3020.94L3091.36,3021.11L3091.41,3021.28L3091.46,3021.46L3091.51,3021.63L3091.56,3021.81L3091.6,3021.98L3091.65,3022.16L3091.7,3022.34L3091.74,3022.52L3091.78,3022.7L3091.82,3022.89L3091.86,3023.07L3091.9,3023.25L3091.94,3023.44L3091.97,3023.63L3092.01,3023.82L3092.05,3024.01L3092.08,3024.2L3092.11,3024.39L3092.14,3024.58L3092.17,3024.77L3092.2,3024.97L3092.23,3025.16L3092.25,3025.36L3092.28,3025.56L3092.3,3025.76L3092.32,3025.95L3092.34,3026.16L3092.36,3026.36L3092.38,3026.56L3092.4,3026.76L3092.41,3026.96L3092.43,3027.17L3092.44,3027.37L3092.45,3027.58L3092.46,3027.78L3092.47,3027.99L3092.48,3028.2L3092.49,3028.41L3092.49,3028.62L3092.49,3028.82L3092.49,3029.03L3092.5,3029.24L3092.5,3056.6L3092.49,3056.8L3092.49,3057.01L3092.49,3057.22L3092.49,3057.43L3092.48,3057.64L3092.47,3057.84L3092.46,3058.05L3092.45,3058.26L3092.44,3058.46L3092.43,3058.67L3092.41,3058.87L3092.4,3059.07L3092.38,3059.28L3092.36,3059.48L3092.34,3059.68L3092.32,3059.88L3092.3,3060.08L3092.28,3060.28L3092.25,3060.47L3092.23,3060.67L3092.2,3060.87L3092.17,3061.06L3092.14,3061.25L3092.11,3061.45L3092.08,3061.64L3092.05,3061.83L3092.01,3062.02L3091.97,3062.2L3091.94,3062.39L3091.9,3062.58L3091.86,3062.76L3091.82,3062.95L3091.78,3063.13L3091.74,3063.31L3091.7,3063.49L3091.65,3063.67L3091.6,3063.85L3091.56,3064.03L3091.51,3064.2L3091.46,3064.38L3091.41,3064.55L3091.36,3064.72L3091.31,3064.89L3091.25,3065.06L3091.2,3065.23L3091.14,3065.4L3091.09,3065.56L3091.03,3065.72L3090.97,3065.89L3090.91,3066.05L3090.85,3066.21L3090.79,3066.37L3090.73,3066.52L3090.67,3066.68L3090.6,3066.83L3090.54,3066.98L3090.47,3067.13L3090.41,3067.28L3090.34,3067.43L3090.27,3067.57L3090.2,3067.72L3090.13,3067.86L3090.06,3068L3089.99,3068.14L3089.91,3068.28L3089.84,3068.41L3089.76,3068.55L3089.69,3068.68L3089.61,3068.81L3089.54,3068.94L3089.46,3069.07L3089.38,3069.19L3089.3,3069.32L3089.22,3069.44L3089.14,3069.56L3089.06,3069.68L3088.97,3069.8L3088.89,3069.91L3088.81,3070.02L3088.72,3070.13L3088.64,3070.24L3088.55,3070.35L3088.46,3070.46L3088.37,3070.56L3088.28,3070.66L3088.2,3070.76L3088.11,3070.86L3088.01,3070.95L3087.92,3071.05L3087.83,3071.14L3087.74,3071.23L3087.64,3071.31L3087.55,3071.4L3087.46,3071.48L3087.36,3071.56L3087.27,3071.64L3087.17,3071.72L3087.07,3071.79L3086.97,3071.87L3086.88,3071.93L3086.78,3072L3086.68,3072.07L3086.58,3072.13L3086.48,3072.19L3086.38,3072.25L3086.28,3072.31L3086.17,3072.36L3086.07,3072.41L3085.97,3072.46L3085.87,3072.51L3085.76,3072.55L3085.66,3072.6L3085.55,3072.64L3085.45,3072.67L3085.34,3072.71L3085.24,3072.74L3085.13,3072.77L3085.02,3072.8L3084.91,3072.82L3084.81,3072.84L3084.7,3072.86L3084.59,3072.88L3084.48,3072.89L3084.37,3072.91L3084.26,3072.92L3084.15,3072.92L3084.04,3072.93L3083.94,3072.93L2948.21,3072.93L2948.11,3072.93L2948,3072.92L2947.89,3072.92L2947.78,3072.91L2947.67,3072.89L2947.56,3072.88L2947.45,3072.86L2947.34,3072.84L2947.24,3072.82L2947.13,3072.8L2947.02,3072.77L2946.92,3072.74L2946.81,3072.71L2946.7,3072.67L2946.6,3072.64L2946.49,3072.6L2946.39,3072.55L2946.29,3072.51L2946.18,3072.46L2946.08,3072.41L2945.98,3072.36L2945.88,3072.31L2945.77,3072.25L2945.67,3072.19L2945.57,3072.13L2945.47,3072.07L2945.37,3072L2945.27,3071.93L2945.18,3071.87L2945.08,3071.79L2944.98,3071.72L2944.89,3071.64L2944.79,3071.56L2944.69,3071.48L2944.6,3071.4L2944.51,3071.31L2944.41,3071.23L2944.32,3071.14L2944.23,3071.05L2944.14,3070.95L2944.05,3070.86L2943.96,3070.76L2943.87,3070.66L2943.78,3070.56L2943.69,3070.46L2943.6,3070.35L2943.52,3070.24L2943.43,3070.13L2943.35,3070.02L2943.26,3069.91L2943.18,3069.8L2943.1,3069.68L2943.01,3069.56L2942.93,3069.44L2942.85,3069.32L2942.77,3069.19L2942.69,3069.07L2942.62,3068.94L2942.54,3068.81L2942.46,3068.68L2942.39,3068.55L2942.31,3068.41L2942.24,3068.28L2942.16,3068.14L2942.09,3068L2942.02,3067.86L2941.95,3067.72L2941.88,3067.57L2941.81,3067.43L2941.74,3067.28L2941.68,3067.13L2941.61,3066.98L2941.55,3066.83L2941.48,3066.68L2941.42,3066.52L2941.36,3066.37L2941.3,3066.21L2941.24,3066.05L2941.18,3065.89L2941.12,3065.72L2941.06,3065.56L2941.01,3065.4L2940.95,3065.23L2940.9,3065.06L2940.84,3064.89L2940.79,3064.72L2940.74,3064.55L2940.69,3064.38L2940.64,3064.2L2940.59,3064.03L2940.55,3063.85L2940.5,3063.67L2940.46,3063.49L2940.41,3063.31L2940.37,3063.13L2940.33,3062.95L2940.29,3062.76L2940.25,3062.58L2940.21,3062.39L2940.18,3062.2L2940.14,3062.02L2940.11,3061.83L2940.07,3061.64L2940.04,3061.45L2940.01,3061.25L2939.98,3061.06L2939.95,3060.87L2939.93,3060.67L2939.9,3060.47L2939.88,3060.28L2939.85,3060.08L2939.83,3059.88L2939.81,3059.68L2939.79,3059.48L2939.77,3059.28L2939.75,3059.07L2939.74,3058.87L2939.72,3058.67L2939.71,3058.46L2939.7,3058.26L2939.69,3058.05L2939.68,3057.84L2939.67,3057.64L2939.67,3057.43L2939.66,3057.22L2939.66,3057.01L2939.66,3056.8L2939.66,3056.6L2939.66,3029.24L2939.66,3029.03L2939.66,3028.82L2939.66,3028.62L2939.67,3028.41L2939.67,3028.2L2939.68,3027.99L2939.69,3027.78L2939.7,3027.58L2939.71,3027.37L2939.72,3027.17L2939.74,3026.96L2939.75,3026.76L2939.77,3026.56L2939.79,3026.36L2939.81,3026.16L2939.83,3025.95L2939.85,3025.76L2939.88,3025.56L2939.9,3025.36L2939.93,3025.16L2939.95,3024.97L2939.98,3024.77L2940.01,3024.58L2940.04,3024.39L2940.07,3024.2L2940.11,3024.01L2940.14,3023.82L2940.18,3023.63L2940.21,3023.44L2940.25,3023.25L2940.29,3023.07L2940.33,3022.89L2940.37,3022.7L2940.41,3022.52L2940.46,3022.34L2940.5,3022.16L2940.55,3021.98L2940.59,3021.81L2940.64,3021.63L2940.69,3021.46L2940.74,3021.28L2940.79,3021.11L2940.84,3020.94L2940.9,3020.77L2940.95,3020.6L2941.01,3020.44L2941.06,3020.27L2941.12,3020.11L2941.18,3019.95L2941.24,3019.79L2941.3,3019.63L2941.36,3019.47L2941.42,3019.31L2941.48,3019.16L2941.55,3019L2941.61,3018.85L2941.68,3018.7L2941.74,3018.55L2941.81,3018.41L2941.88,3018.26L2941.95,3018.12L2942.02,3017.97L2942.09,3017.83L2942.16,3017.69L2942.24,3017.55L2942.31,3017.42L2942.39,3017.28L2942.46,3017.15L2942.54,3017.02L2942.62,3016.89L2942.69,3016.76L2942.77,3016.64L2942.85,3016.51L2942.93,3016.39L2943.01,3016.27L2943.1,3016.15L2943.18,3016.04L2943.26,3015.92L2943.35,3015.81L2943.43,3015.7L2943.52,3015.59L2943.6,3015.48L2943.69,3015.38L2943.78,3015.27L2943.87,3015.17L2943.96,3015.07L2944.05,3014.97L2944.14,3014.88L2944.23,3014.79L2944.32,3014.7L2944.41,3014.61L2944.51,3014.52L2944.6,3014.43L2944.69,3014.35L2944.79,3014.27L2944.89,3014.19L2944.98,3014.12L2945.08,3014.04L2945.18,3013.97L2945.27,3013.9L2945.37,3013.83L2945.47,3013.76L2945.57,3013.7L2945.67,3013.64L2945.77,3013.58L2945.88,3013.53L2945.98,3013.47L2946.08,3013.42L2946.18,3013.37L2946.29,3013.32L2946.39,3013.28L2946.49,3013.24L2946.6,3013.2L2946.7,3013.16L2946.81,3013.13L2946.92,3013.09L2947.02,3013.06L2947.13,3013.04L2947.24,3013.01L2947.34,3012.99L2947.45,3012.97L2947.56,3012.95L2947.67,3012.94L2947.78,3012.93L2947.89,3012.92L2948,3012.91L2948.11,3012.91L2948.21,3012.91L3083.94,3012.91L3084.04,3012.91ZM2948.22,3018.24L2948.14,3018.24L2948.07,3018.24L2947.99,3018.25L2947.92,3018.25L2947.85,3018.26L2947.77,3018.27L2947.7,3018.28L2947.63,3018.3L2947.55,3018.31L2947.48,3018.33L2947.41,3018.35L2947.34,3018.37L2947.27,3018.39L2947.2,3018.41L2947.13,3018.44L2947.05,3018.46L2946.99,3018.49L2946.91,3018.52L2946.85,3018.55L2946.78,3018.59L2946.71,3018.62L2946.64,3018.66L2946.57,3018.69L2946.5,3018.73L2946.44,3018.77L2946.37,3018.82L2946.3,3018.86L2946.24,3018.91L2946.17,3018.95L2946.11,3019L2946.04,3019.05L2945.97,3019.1L2945.91,3019.16L2945.85,3019.21L2945.78,3019.27L2945.72,3019.32L2945.66,3019.38L2945.59,3019.44L2945.53,3019.5L2945.47,3019.57L2945.41,3019.63L2945.35,3019.7L2945.29,3019.76L2945.23,3019.83L2945.17,3019.9L2945.11,3019.97L2945.05,3020.04L2944.99,3020.12L2944.94,3020.19L2944.88,3020.27L2944.83,3020.35L2944.77,3020.43L2944.71,3020.51L2944.66,3020.59L2944.61,3020.67L2944.55,3020.75L2944.5,3020.84L2944.45,3020.92L2944.39,3021.01L2944.34,3021.1L2944.29,3021.19L2944.24,3021.28L2944.19,3021.37L2944.14,3021.46L2944.09,3021.56L2944.04,3021.65L2944,3021.75L2943.95,3021.85L2943.9,3021.95L2943.86,3022.05L2943.81,3022.14L2943.77,3022.25L2943.72,3022.35L2943.68,3022.45L2943.64,3022.56L2943.6,3022.66L2943.55,3022.77L2943.51,3022.88L2943.47,3022.99L2943.43,3023.1L2943.4,3023.21L2943.36,3023.32L2943.32,3023.43L2943.28,3023.54L2943.25,3023.66L2943.21,3023.77L2943.18,3023.89L2943.15,3024L2943.11,3024.12L2943.08,3024.24L2943.05,3024.36L2943.02,3024.48L2942.99,3024.6L2942.96,3024.72L2942.93,3024.84L2942.9,3024.96L2942.88,3025.09L2942.85,3025.21L2942.83,3025.34L2942.8,3025.46L2942.78,3025.59L2942.75,3025.72L2942.73,3025.84L2942.71,3025.97L2942.69,3026.1L2942.67,3026.23L2942.65,3026.36L2942.63,3026.49L2942.61,3026.63L2942.6,3026.76L2942.58,3026.89L2942.57,3027.03L2942.55,3027.16L2942.54,3027.3L2942.53,3027.43L2942.52,3027.57L2942.51,3027.7L2942.5,3027.84L2942.49,3027.98L2942.48,3028.12L2942.47,3028.26L2942.47,3028.4L2942.46,3028.54L2942.46,3028.68L2942.45,3028.82L2942.45,3028.96L2942.45,3029.1L2942.45,3029.25L2942.45,3056.58L2942.45,3056.73L2942.45,3056.87L2942.45,3057.02L2942.46,3057.16L2942.46,3057.3L2942.47,3057.44L2942.47,3057.58L2942.48,3057.72L2942.49,3057.86L2942.5,3057.99L2942.51,3058.13L2942.52,3058.27L2942.53,3058.4L2942.54,3058.54L2942.55,3058.67L2942.57,3058.81L2942.58,3058.94L2942.6,3059.08L2942.61,3059.21L2942.63,3059.34L2942.65,3059.47L2942.67,3059.6L2942.69,3059.73L2942.71,3059.86L2942.73,3059.99L2942.75,3060.12L2942.78,3060.24L2942.8,3060.37L2942.83,3060.5L2942.85,3060.62L2942.88,3060.75L2942.9,3060.87L2942.93,3060.99L2942.96,3061.11L2942.99,3061.24L2943.02,3061.36L2943.05,3061.48L2943.08,3061.6L2943.11,3061.71L2943.15,3061.83L2943.18,3061.95L2943.21,3062.06L2943.25,3062.18L2943.28,3062.29L2943.32,3062.4L2943.36,3062.52L2943.4,3062.63L2943.43,3062.74L2943.47,3062.85L2943.51,3062.96L2943.55,3063.06L2943.6,3063.17L2943.64,3063.28L2943.68,3063.38L2943.72,3063.48L2943.77,3063.59L2943.81,3063.69L2943.86,3063.79L2943.9,3063.89L2943.95,3063.99L2944,3064.08L2944.04,3064.18L2944.09,3064.28L2944.14,3064.37L2944.19,3064.46L2944.24,3064.55L2944.29,3064.64L2944.34,3064.73L2944.39,3064.82L2944.45,3064.91L2944.5,3065L2944.55,3065.08L2944.61,3065.16L2944.66,3065.25L2944.71,3065.33L2944.77,3065.41L2944.83,3065.49L2944.88,3065.56L2944.94,3065.64L2944.99,3065.72L2945.05,3065.79L2945.11,3065.86L2945.17,3065.93L2945.23,3066L2945.29,3066.07L2945.35,3066.14L2945.41,3066.2L2945.47,3066.27L2945.53,3066.33L2945.6,3066.39L2945.66,3066.45L2945.72,3066.51L2945.78,3066.57L2945.85,3066.62L2945.91,3066.68L2945.97,3066.73L2946.04,3066.78L2946.11,3066.83L2946.17,3066.88L2946.24,3066.93L2946.3,3066.97L2946.37,3067.02L2946.44,3067.06L2946.5,3067.1L2946.57,3067.14L2946.64,3067.18L2946.71,3067.21L2946.78,3067.25L2946.85,3067.28L2946.91,3067.31L2946.99,3067.34L2947.05,3067.37L2947.13,3067.4L2947.2,3067.42L2947.27,3067.45L2947.34,3067.47L2947.41,3067.49L2947.48,3067.51L2947.55,3067.52L2947.63,3067.54L2947.7,3067.55L2947.77,3067.56L2947.85,3067.57L2947.92,3067.58L2947.99,3067.59L2948.07,3067.59L2948.14,3067.59L2948.22,3067.6L3083.93,3067.6L3084.01,3067.59L3084.08,3067.59L3084.16,3067.59L3084.23,3067.58L3084.3,3067.57L3084.38,3067.56L3084.45,3067.55L3084.52,3067.54L3084.6,3067.52L3084.67,3067.51L3084.74,3067.49L3084.81,3067.47L3084.88,3067.45L3084.95,3067.42L3085.03,3067.4L3085.1,3067.37L3085.17,3067.34L3085.24,3067.31L3085.31,3067.28L3085.37,3067.25L3085.44,3067.21L3085.51,3067.18L3085.58,3067.14L3085.65,3067.1L3085.72,3067.06L3085.78,3067.02L3085.85,3066.97L3085.91,3066.93L3085.98,3066.88L3086.05,3066.83L3086.11,3066.78L3086.18,3066.73L3086.24,3066.68L3086.31,3066.62L3086.37,3066.57L3086.43,3066.51L3086.49,3066.45L3086.56,3066.39L3086.62,3066.33L3086.68,3066.27L3086.74,3066.2L3086.8,3066.14L3086.86,3066.07L3086.92,3066L3086.98,3065.93L3087.04,3065.86L3087.1,3065.79L3087.16,3065.72L3087.21,3065.64L3087.27,3065.56L3087.33,3065.49L3087.38,3065.41L3087.44,3065.33L3087.49,3065.25L3087.55,3065.16L3087.6,3065.08L3087.65,3065L3087.71,3064.91L3087.76,3064.82L3087.81,3064.73L3087.86,3064.64L3087.91,3064.55L3087.96,3064.46L3088.01,3064.37L3088.06,3064.28L3088.11,3064.18L3088.16,3064.08L3088.2,3063.99L3088.25,3063.89L3088.29,3063.79L3088.34,3063.69L3088.38,3063.59L3088.43,3063.48L3088.47,3063.38L3088.51,3063.28L3088.56,3063.17L3088.6,3063.06L3088.64,3062.96L3088.68,3062.85L3088.72,3062.74L3088.75,3062.63L3088.79,3062.52L3088.83,3062.4L3088.87,3062.29L3088.9,3062.18L3088.94,3062.06L3088.97,3061.95L3089.01,3061.83L3089.04,3061.71L3089.07,3061.6L3089.1,3061.48L3089.13,3061.36L3089.16,3061.24L3089.19,3061.11L3089.22,3060.99L3089.25,3060.87L3089.28,3060.75L3089.3,3060.62L3089.33,3060.5L3089.35,3060.37L3089.38,3060.24L3089.4,3060.12L3089.42,3059.99L3089.44,3059.86L3089.46,3059.73L3089.48,3059.6L3089.5,3059.47L3089.52,3059.34L3089.54,3059.21L3089.55,3059.08L3089.57,3058.94L3089.58,3058.81L3089.6,3058.67L3089.61,3058.54L3089.62,3058.4L3089.63,3058.27L3089.64,3058.13L3089.65,3057.99L3089.66,3057.86L3089.67,3057.72L3089.68,3057.58L3089.68,3057.44L3089.69,3057.3L3089.69,3057.16L3089.7,3057.02L3089.7,3056.87L3089.7,3056.73L3089.7,3056.58L3089.7,3029.25L3089.7,3029.1L3089.7,3028.96L3089.7,3028.82L3089.69,3028.68L3089.69,3028.53L3089.68,3028.4L3089.68,3028.26L3089.67,3028.12L3089.66,3027.98L3089.65,3027.84L3089.64,3027.7L3089.63,3027.57L3089.62,3027.43L3089.61,3027.3L3089.6,3027.16L3089.58,3027.03L3089.57,3026.89L3089.55,3026.76L3089.54,3026.63L3089.52,3026.49L3089.5,3026.36L3089.48,3026.23L3089.46,3026.1L3089.44,3025.97L3089.42,3025.85L3089.4,3025.72L3089.38,3025.59L3089.35,3025.46L3089.33,3025.34L3089.3,3025.21L3089.28,3025.09L3089.25,3024.96L3089.22,3024.84L3089.19,3024.72L3089.16,3024.6L3089.13,3024.48L3089.1,3024.36L3089.07,3024.24L3089.04,3024.12L3089.01,3024L3088.97,3023.89L3088.94,3023.77L3088.9,3023.66L3088.87,3023.54L3088.83,3023.43L3088.79,3023.32L3088.75,3023.21L3088.72,3023.1L3088.68,3022.99L3088.64,3022.88L3088.6,3022.77L3088.56,3022.66L3088.51,3022.56L3088.47,3022.45L3088.43,3022.35L3088.38,3022.25L3088.34,3022.14L3088.29,3022.05L3088.25,3021.95L3088.2,3021.85L3088.16,3021.75L3088.11,3021.65L3088.06,3021.56L3088.01,3021.46L3087.96,3021.37L3087.91,3021.28L3087.86,3021.19L3087.81,3021.1L3087.76,3021.01L3087.71,3020.92L3087.65,3020.84L3087.6,3020.75L3087.55,3020.67L3087.49,3020.59L3087.44,3020.51L3087.38,3020.43L3087.33,3020.35L3087.27,3020.27L3087.21,3020.19L3087.16,3020.12L3087.1,3020.04L3087.04,3019.97L3086.98,3019.9L3086.92,3019.83L3086.86,3019.76L3086.8,3019.7L3086.74,3019.63L3086.68,3019.57L3086.62,3019.5L3086.56,3019.44L3086.49,3019.38L3086.43,3019.32L3086.37,3019.27L3086.31,3019.21L3086.24,3019.16L3086.18,3019.1L3086.11,3019.05L3086.05,3019L3085.98,3018.95L3085.91,3018.91L3085.85,3018.86L3085.78,3018.82L3085.72,3018.77L3085.65,3018.73L3085.58,3018.69L3085.51,3018.66L3085.44,3018.62L3085.37,3018.59L3085.31,3018.55L3085.24,3018.52L3085.17,3018.49L3085.1,3018.46L3085.03,3018.44L3084.95,3018.41L3084.88,3018.39L3084.81,3018.37L3084.74,3018.35L3084.67,3018.33L3084.6,3018.31L3084.52,3018.3L3084.45,3018.28L3084.38,3018.27L3084.3,3018.26L3084.23,3018.25L3084.16,3018.25L3084.08,3018.24L3084.01,3018.24L3083.93,3018.24L2948.22,3018.24Z" style="fill:rgb(179,179,179);"/>
                </g>
                <g transform="matrix(2.22133,0,0,1.42565,-6446.73,-3892.41)">
                    <path d="M3082.39,3013.7L3082.45,3013.7L3082.52,3013.7L3082.58,3013.71L3082.64,3013.71L3082.71,3013.71L3082.77,3013.72L3082.84,3013.72L3082.9,3013.73L3082.96,3013.73L3083.03,3013.74L3083.09,3013.75L3083.15,3013.76L3083.22,3013.76L3083.28,3013.77L3083.34,3013.78L3083.4,3013.79L3083.47,3013.8L3083.53,3013.81L3083.59,3013.83L3083.65,3013.84L3083.72,3013.85L3083.78,3013.87L3083.84,3013.88L3083.9,3013.9L3083.96,3013.91L3084.03,3013.93L3084.09,3013.94L3084.15,3013.96L3084.21,3013.98L3084.27,3014L3084.33,3014.02L3084.39,3014.04L3084.45,3014.06L3084.51,3014.08L3084.57,3014.1L3084.64,3014.12L3084.7,3014.14L3084.76,3014.17L3084.82,3014.19L3084.87,3014.22L3084.94,3014.24L3085.05,3014.29L3085.17,3014.35L3085.29,3014.4L3085.41,3014.46L3085.52,3014.52L3085.64,3014.58L3085.75,3014.65L3085.87,3014.71L3085.98,3014.78L3086.09,3014.85L3086.2,3014.92L3086.32,3015L3086.43,3015.08L3086.54,3015.16L3086.65,3015.24L3086.76,3015.32L3086.86,3015.4L3086.97,3015.49L3087.08,3015.58L3087.18,3015.67L3087.29,3015.76L3087.39,3015.86L3087.5,3015.95L3087.6,3016.05L3087.7,3016.15L3087.8,3016.26L3087.9,3016.36L3088,3016.46L3088.1,3016.57L3088.2,3016.68L3088.29,3016.79L3088.39,3016.9L3088.48,3017.02L3088.58,3017.14L3088.67,3017.25L3088.76,3017.37L3088.85,3017.49L3088.94,3017.62L3089.03,3017.74L3089.12,3017.87L3089.2,3017.99L3089.29,3018.13L3089.38,3018.26L3089.46,3018.39L3089.54,3018.52L3089.63,3018.66L3089.71,3018.8L3089.79,3018.93L3089.87,3019.07L3089.94,3019.22L3090.02,3019.36L3090.1,3019.5L3090.17,3019.65L3090.24,3019.8L3090.32,3019.95L3090.39,3020.1L3090.46,3020.25L3090.53,3020.4L3090.59,3020.55L3090.66,3020.71L3090.72,3020.87L3090.79,3021.03L3090.85,3021.18L3090.91,3021.35L3090.98,3021.51L3091.03,3021.67L3091.09,3021.84L3091.15,3022L3091.21,3022.17L3091.26,3022.34L3091.31,3022.51L3091.37,3022.68L3091.42,3022.85L3091.47,3023.02L3091.51,3023.2L3091.56,3023.37L3091.61,3023.55L3091.65,3023.72L3091.69,3023.9L3091.73,3024.08L3091.77,3024.26L3091.81,3024.44L3091.85,3024.62L3091.89,3024.81L3091.92,3024.99L3091.95,3025.17L3091.97,3025.27L3091.98,3025.36L3092,3025.46L3092.01,3025.55L3092.03,3025.64L3092.04,3025.74L3092.06,3025.83L3092.07,3025.93L3092.08,3026.02L3092.1,3026.12L3092.11,3026.21L3092.12,3026.3L3092.13,3026.4L3092.14,3026.5L3092.15,3026.59L3092.16,3026.69L3092.17,3026.78L3092.18,3026.88L3092.19,3026.98L3092.2,3027.07L3092.21,3027.17L3092.22,3027.27L3092.23,3027.37L3092.23,3027.46L3092.24,3027.56L3092.25,3027.66L3092.25,3027.76L3092.26,3027.85L3092.26,3027.95L3092.27,3028.05L3092.27,3028.15L3092.28,3028.25L3092.28,3028.35L3092.29,3028.45L3092.29,3028.55L3092.29,3028.64L3092.29,3028.74L3092.3,3028.84L3092.3,3028.94L3092.3,3029.04L3092.3,3029.14L3092.3,3029.24L3092.3,3056.59L3092.3,3056.69L3092.3,3056.79L3092.3,3056.89L3092.3,3056.99L3092.29,3057.09L3092.29,3057.19L3092.29,3057.29L3092.29,3057.39L3092.28,3057.49L3092.28,3057.59L3092.27,3057.68L3092.27,3057.78L3092.26,3057.88L3092.26,3057.98L3092.25,3058.08L3092.25,3058.18L3092.24,3058.27L3092.23,3058.37L3092.23,3058.47L3092.22,3058.57L3092.21,3058.66L3092.2,3058.76L3092.19,3058.86L3092.18,3058.95L3092.17,3059.05L3092.16,3059.15L3092.15,3059.24L3092.14,3059.34L3092.13,3059.43L3092.12,3059.53L3092.11,3059.62L3092.1,3059.72L3092.08,3059.81L3092.07,3059.91L3092.06,3060L3092.04,3060.1L3092.03,3060.19L3092.01,3060.28L3092,3060.38L3091.98,3060.47L3091.97,3060.56L3091.95,3060.66L3091.92,3060.84L3091.89,3061.03L3091.85,3061.21L3091.81,3061.39L3091.77,3061.57L3091.73,3061.75L3091.69,3061.93L3091.65,3062.11L3091.61,3062.29L3091.56,3062.46L3091.51,3062.64L3091.47,3062.81L3091.42,3062.99L3091.37,3063.16L3091.31,3063.33L3091.26,3063.5L3091.21,3063.66L3091.15,3063.83L3091.09,3064L3091.03,3064.16L3090.97,3064.33L3090.91,3064.49L3090.85,3064.65L3090.79,3064.81L3090.72,3064.97L3090.66,3065.12L3090.59,3065.28L3090.53,3065.43L3090.46,3065.59L3090.39,3065.74L3090.32,3065.89L3090.24,3066.04L3090.17,3066.18L3090.1,3066.33L3090.02,3066.47L3089.94,3066.62L3089.87,3066.76L3089.79,3066.9L3089.71,3067.04L3089.63,3067.18L3089.54,3067.31L3089.46,3067.45L3089.38,3067.58L3089.29,3067.71L3089.2,3067.84L3089.12,3067.97L3089.03,3068.09L3088.94,3068.22L3088.85,3068.34L3088.76,3068.46L3088.67,3068.58L3088.58,3068.7L3088.48,3068.81L3088.39,3068.93L3088.29,3069.04L3088.2,3069.15L3088.1,3069.26L3088,3069.37L3087.9,3069.47L3087.8,3069.58L3087.7,3069.68L3087.6,3069.78L3087.5,3069.88L3087.39,3069.98L3087.29,3070.07L3087.18,3070.16L3087.08,3070.25L3086.97,3070.34L3086.86,3070.43L3086.76,3070.51L3086.65,3070.6L3086.54,3070.68L3086.43,3070.76L3086.32,3070.83L3086.2,3070.91L3086.09,3070.98L3085.98,3071.05L3085.87,3071.12L3085.75,3071.19L3085.64,3071.25L3085.52,3071.31L3085.41,3071.37L3085.29,3071.43L3085.17,3071.49L3085.05,3071.54L3084.94,3071.59L3084.87,3071.62L3084.82,3071.64L3084.76,3071.67L3084.7,3071.69L3084.64,3071.71L3084.57,3071.73L3084.51,3071.76L3084.45,3071.78L3084.39,3071.8L3084.33,3071.82L3084.27,3071.84L3084.21,3071.85L3084.15,3071.87L3084.09,3071.89L3084.03,3071.91L3083.96,3071.92L3083.9,3071.94L3083.84,3071.95L3083.78,3071.97L3083.72,3071.98L3083.65,3071.99L3083.59,3072.01L3083.53,3072.02L3083.47,3072.03L3083.4,3072.04L3083.34,3072.05L3083.28,3072.06L3083.22,3072.07L3083.15,3072.08L3083.09,3072.09L3083.03,3072.09L3082.96,3072.1L3082.9,3072.11L3082.84,3072.11L3082.77,3072.12L3082.71,3072.12L3082.64,3072.12L3082.58,3072.13L3082.52,3072.13L3082.45,3072.13L3082.39,3072.13L3082.33,3072.13L2949.83,3072.13L2949.76,3072.13L2949.7,3072.13L2949.64,3072.13L2949.57,3072.13L2949.51,3072.12L2949.44,3072.12L2949.38,3072.12L2949.32,3072.11L2949.25,3072.11L2949.19,3072.1L2949.13,3072.09L2949.06,3072.09L2949,3072.08L2948.94,3072.07L2948.87,3072.06L2948.81,3072.05L2948.75,3072.04L2948.68,3072.03L2948.62,3072.02L2948.56,3072.01L2948.5,3071.99L2948.43,3071.98L2948.37,3071.97L2948.31,3071.95L2948.25,3071.94L2948.19,3071.92L2948.13,3071.91L2948.06,3071.89L2948,3071.87L2947.94,3071.85L2947.88,3071.84L2947.82,3071.82L2947.76,3071.8L2947.7,3071.78L2947.64,3071.76L2947.58,3071.73L2947.52,3071.71L2947.46,3071.69L2947.4,3071.67L2947.34,3071.64L2947.28,3071.62L2947.22,3071.59L2947.1,3071.54L2946.98,3071.49L2946.86,3071.43L2946.75,3071.37L2946.63,3071.31L2946.51,3071.25L2946.4,3071.19L2946.28,3071.12L2946.17,3071.05L2946.06,3070.98L2945.95,3070.91L2945.83,3070.83L2945.72,3070.76L2945.61,3070.68L2945.5,3070.6L2945.39,3070.51L2945.29,3070.43L2945.18,3070.34L2945.07,3070.25L2944.97,3070.16L2944.86,3070.07L2944.76,3069.98L2944.66,3069.88L2944.55,3069.78L2944.45,3069.68L2944.35,3069.58L2944.25,3069.47L2944.15,3069.37L2944.05,3069.26L2943.96,3069.15L2943.86,3069.04L2943.76,3068.93L2943.67,3068.81L2943.58,3068.7L2943.48,3068.58L2943.39,3068.46L2943.3,3068.34L2943.21,3068.22L2943.12,3068.09L2943.03,3067.97L2942.95,3067.84L2942.86,3067.71L2942.78,3067.58L2942.69,3067.45L2942.61,3067.31L2942.53,3067.18L2942.45,3067.04L2942.37,3066.9L2942.29,3066.76L2942.21,3066.62L2942.13,3066.47L2942.06,3066.33L2941.98,3066.18L2941.91,3066.04L2941.84,3065.89L2941.76,3065.74L2941.69,3065.59L2941.63,3065.43L2941.56,3065.28L2941.49,3065.12L2941.43,3064.97L2941.36,3064.81L2941.3,3064.65L2941.24,3064.49L2941.18,3064.33L2941.12,3064.16L2941.06,3064L2941,3063.83L2940.95,3063.66L2940.89,3063.5L2940.84,3063.33L2940.78,3063.16L2940.74,3062.99L2940.68,3062.81L2940.64,3062.64L2940.59,3062.46L2940.55,3062.29L2940.5,3062.11L2940.46,3061.93L2940.42,3061.75L2940.38,3061.57L2940.34,3061.39L2940.3,3061.21L2940.26,3061.03L2940.23,3060.84L2940.2,3060.66L2940.18,3060.56L2940.17,3060.47L2940.15,3060.38L2940.14,3060.28L2940.12,3060.19L2940.11,3060.1L2940.09,3060L2940.08,3059.91L2940.07,3059.81L2940.05,3059.72L2940.04,3059.62L2940.03,3059.53L2940.02,3059.43L2940.01,3059.34L2940,3059.24L2939.99,3059.14L2939.98,3059.05L2939.97,3058.95L2939.96,3058.86L2939.95,3058.76L2939.94,3058.66L2939.93,3058.57L2939.93,3058.47L2939.92,3058.37L2939.91,3058.27L2939.9,3058.18L2939.9,3058.08L2939.89,3057.98L2939.89,3057.88L2939.88,3057.78L2939.88,3057.68L2939.87,3057.59L2939.87,3057.49L2939.87,3057.39L2939.86,3057.29L2939.86,3057.19L2939.86,3057.09L2939.86,3056.99L2939.85,3056.89L2939.85,3056.79L2939.85,3056.69L2939.85,3056.59L2939.85,3029.24L2939.85,3029.14L2939.85,3029.04L2939.85,3028.94L2939.86,3028.84L2939.86,3028.74L2939.86,3028.64L2939.86,3028.55L2939.87,3028.45L2939.87,3028.35L2939.87,3028.25L2939.88,3028.15L2939.88,3028.05L2939.89,3027.95L2939.89,3027.85L2939.9,3027.76L2939.9,3027.66L2939.91,3027.56L2939.92,3027.46L2939.93,3027.37L2939.93,3027.27L2939.94,3027.17L2939.95,3027.07L2939.96,3026.98L2939.97,3026.88L2939.98,3026.78L2939.99,3026.69L2940,3026.59L2940.01,3026.5L2940.02,3026.4L2940.03,3026.3L2940.04,3026.21L2940.05,3026.12L2940.07,3026.02L2940.08,3025.93L2940.09,3025.83L2940.11,3025.74L2940.12,3025.64L2940.14,3025.55L2940.15,3025.46L2940.17,3025.36L2940.18,3025.27L2940.2,3025.17L2940.23,3024.99L2940.26,3024.81L2940.3,3024.62L2940.34,3024.44L2940.38,3024.26L2940.42,3024.08L2940.46,3023.9L2940.5,3023.72L2940.55,3023.55L2940.59,3023.37L2940.64,3023.2L2940.68,3023.02L2940.74,3022.85L2940.78,3022.68L2940.84,3022.51L2940.89,3022.34L2940.95,3022.17L2941,3022L2941.06,3021.84L2941.12,3021.67L2941.18,3021.51L2941.24,3021.35L2941.3,3021.18L2941.36,3021.03L2941.43,3020.87L2941.49,3020.71L2941.56,3020.55L2941.63,3020.4L2941.69,3020.25L2941.76,3020.1L2941.84,3019.95L2941.91,3019.8L2941.98,3019.65L2942.06,3019.5L2942.13,3019.36L2942.21,3019.22L2942.29,3019.07L2942.37,3018.93L2942.45,3018.8L2942.53,3018.66L2942.61,3018.52L2942.69,3018.39L2942.78,3018.26L2942.86,3018.13L2942.95,3017.99L2943.03,3017.87L2943.12,3017.74L2943.21,3017.62L2943.3,3017.49L2943.39,3017.37L2943.48,3017.25L2943.58,3017.14L2943.67,3017.02L2943.76,3016.91L2943.86,3016.79L2943.96,3016.68L2944.05,3016.57L2944.15,3016.46L2944.25,3016.36L2944.35,3016.26L2944.45,3016.15L2944.55,3016.05L2944.66,3015.95L2944.76,3015.86L2944.86,3015.76L2944.97,3015.67L2945.07,3015.58L2945.18,3015.49L2945.29,3015.4L2945.39,3015.32L2945.5,3015.24L2945.61,3015.16L2945.72,3015.08L2945.83,3015L2945.95,3014.92L2946.06,3014.85L2946.17,3014.78L2946.28,3014.71L2946.4,3014.65L2946.51,3014.58L2946.63,3014.52L2946.75,3014.46L2946.86,3014.4L2946.98,3014.35L2947.1,3014.29L2947.22,3014.24L2947.28,3014.22L2947.34,3014.19L2947.4,3014.17L2947.46,3014.14L2947.52,3014.12L2947.58,3014.1L2947.64,3014.08L2947.7,3014.06L2947.76,3014.04L2947.82,3014.02L2947.88,3014L2947.94,3013.98L2948,3013.96L2948.06,3013.94L2948.13,3013.93L2948.19,3013.91L2948.25,3013.9L2948.31,3013.88L2948.37,3013.87L2948.43,3013.85L2948.5,3013.84L2948.56,3013.83L2948.62,3013.81L2948.68,3013.8L2948.75,3013.79L2948.81,3013.78L2948.87,3013.77L2948.93,3013.76L2949,3013.76L2949.06,3013.75L2949.13,3013.74L2949.19,3013.73L2949.25,3013.73L2949.32,3013.72L2949.38,3013.72L2949.44,3013.71L2949.51,3013.71L2949.57,3013.71L2949.64,3013.7L2949.7,3013.7L2949.76,3013.7L2949.83,3013.7L3082.33,3013.7L3082.39,3013.7ZM2949.83,3017.44L2949.78,3017.44L2949.73,3017.44L2949.68,3017.45L2949.63,3017.45L2949.58,3017.45L2949.53,3017.45L2949.49,3017.45L2949.44,3017.46L2949.39,3017.46L2949.34,3017.47L2949.29,3017.47L2949.24,3017.48L2949.2,3017.48L2949.15,3017.49L2949.1,3017.5L2949.05,3017.5L2949.01,3017.51L2948.96,3017.52L2948.91,3017.53L2948.86,3017.54L2948.82,3017.55L2948.77,3017.56L2948.72,3017.57L2948.67,3017.58L2948.63,3017.59L2948.58,3017.6L2948.53,3017.61L2948.49,3017.63L2948.44,3017.64L2948.39,3017.65L2948.35,3017.67L2948.3,3017.68L2948.26,3017.7L2948.21,3017.71L2948.16,3017.73L2948.12,3017.74L2948.07,3017.76L2948.03,3017.78L2947.98,3017.8L2947.93,3017.81L2947.89,3017.83L2947.85,3017.85L2947.76,3017.89L2947.66,3017.93L2947.58,3017.97L2947.49,3018.02L2947.4,3018.06L2947.31,3018.11L2947.22,3018.16L2947.14,3018.21L2947.05,3018.26L2946.97,3018.31L2946.88,3018.37L2946.8,3018.43L2946.71,3018.49L2946.63,3018.55L2946.55,3018.61L2946.46,3018.67L2946.38,3018.73L2946.3,3018.8L2946.22,3018.87L2946.14,3018.93L2946.06,3019.01L2945.98,3019.08L2945.9,3019.15L2945.83,3019.23L2945.75,3019.3L2945.67,3019.38L2945.6,3019.46L2945.52,3019.54L2945.45,3019.62L2945.37,3019.7L2945.3,3019.79L2945.22,3019.87L2945.15,3019.96L2945.08,3020.05L2945.01,3020.14L2944.94,3020.23L2944.87,3020.32L2944.8,3020.41L2944.74,3020.51L2944.67,3020.61L2944.6,3020.7L2944.54,3020.8L2944.47,3020.9L2944.41,3021L2944.35,3021.1L2944.28,3021.21L2944.22,3021.31L2944.16,3021.42L2944.1,3021.52L2944.04,3021.63L2943.98,3021.74L2943.93,3021.85L2943.87,3021.96L2943.81,3022.07L2943.76,3022.19L2943.7,3022.3L2943.65,3022.42L2943.6,3022.53L2943.55,3022.65L2943.5,3022.77L2943.45,3022.89L2943.4,3023.01L2943.35,3023.13L2943.3,3023.25L2943.26,3023.37L2943.21,3023.5L2943.17,3023.62L2943.12,3023.75L2943.08,3023.88L2943.04,3024L2943,3024.13L2942.96,3024.26L2942.92,3024.39L2942.89,3024.52L2942.85,3024.65L2942.81,3024.79L2942.78,3024.92L2942.74,3025.05L2942.71,3025.19L2942.68,3025.33L2942.65,3025.46L2942.62,3025.6L2942.59,3025.74L2942.57,3025.88L2942.54,3026.01L2942.51,3026.16L2942.5,3026.22L2942.49,3026.3L2942.48,3026.37L2942.47,3026.44L2942.46,3026.51L2942.45,3026.58L2942.44,3026.65L2942.43,3026.72L2942.42,3026.79L2942.41,3026.87L2942.4,3026.94L2942.39,3027.01L2942.38,3027.08L2942.37,3027.16L2942.36,3027.23L2942.36,3027.3L2942.35,3027.37L2942.34,3027.45L2942.33,3027.52L2942.33,3027.59L2942.32,3027.67L2942.31,3027.74L2942.31,3027.81L2942.3,3027.89L2942.3,3027.96L2942.29,3028.04L2942.29,3028.11L2942.28,3028.18L2942.28,3028.26L2942.28,3028.34L2942.27,3028.41L2942.27,3028.49L2942.27,3028.56L2942.26,3028.64L2942.26,3028.71L2942.26,3028.79L2942.26,3028.86L2942.26,3028.94L2942.26,3029.01L2942.25,3029.09L2942.25,3029.17L2942.25,3029.25L2942.25,3056.59L2942.25,3056.66L2942.25,3056.74L2942.26,3056.82L2942.26,3056.89L2942.26,3056.97L2942.26,3057.05L2942.26,3057.12L2942.26,3057.2L2942.27,3057.27L2942.27,3057.35L2942.27,3057.42L2942.28,3057.5L2942.28,3057.57L2942.28,3057.65L2942.29,3057.72L2942.29,3057.8L2942.3,3057.87L2942.3,3057.95L2942.31,3058.02L2942.31,3058.09L2942.32,3058.17L2942.33,3058.24L2942.33,3058.31L2942.34,3058.39L2942.35,3058.46L2942.36,3058.53L2942.36,3058.61L2942.37,3058.68L2942.38,3058.75L2942.39,3058.82L2942.4,3058.9L2942.41,3058.97L2942.42,3059.04L2942.43,3059.11L2942.44,3059.18L2942.45,3059.25L2942.46,3059.33L2942.47,3059.4L2942.48,3059.47L2942.49,3059.54L2942.5,3059.61L2942.51,3059.68L2942.54,3059.82L2942.57,3059.96L2942.59,3060.1L2942.62,3060.24L2942.65,3060.37L2942.68,3060.51L2942.71,3060.64L2942.74,3060.78L2942.78,3060.91L2942.81,3061.05L2942.85,3061.18L2942.89,3061.31L2942.92,3061.44L2942.96,3061.57L2943,3061.7L2943.04,3061.83L2943.08,3061.96L2943.12,3062.09L2943.17,3062.21L2943.21,3062.34L2943.26,3062.46L2943.3,3062.58L2943.35,3062.7L2943.4,3062.83L2943.45,3062.95L2943.5,3063.07L2943.55,3063.18L2943.6,3063.3L2943.65,3063.42L2943.7,3063.53L2943.76,3063.65L2943.81,3063.76L2943.87,3063.87L2943.93,3063.98L2943.98,3064.09L2944.04,3064.2L2944.1,3064.31L2944.16,3064.42L2944.22,3064.52L2944.28,3064.63L2944.35,3064.73L2944.41,3064.83L2944.47,3064.93L2944.54,3065.03L2944.6,3065.13L2944.67,3065.23L2944.74,3065.32L2944.8,3065.42L2944.87,3065.51L2944.94,3065.6L2945.01,3065.7L2945.08,3065.78L2945.15,3065.87L2945.22,3065.96L2945.3,3066.05L2945.37,3066.13L2945.45,3066.21L2945.52,3066.3L2945.6,3066.38L2945.67,3066.45L2945.75,3066.53L2945.83,3066.61L2945.9,3066.68L2945.98,3066.76L2946.06,3066.83L2946.14,3066.9L2946.22,3066.97L2946.3,3067.03L2946.38,3067.1L2946.46,3067.16L2946.55,3067.23L2946.63,3067.29L2946.71,3067.35L2946.8,3067.41L2946.88,3067.46L2946.97,3067.52L2947.05,3067.57L2947.14,3067.62L2947.22,3067.68L2947.31,3067.72L2947.4,3067.77L2947.49,3067.82L2947.58,3067.86L2947.66,3067.9L2947.76,3067.94L2947.85,3067.98L2947.89,3068L2947.93,3068.02L2947.98,3068.04L2948.03,3068.06L2948.07,3068.07L2948.12,3068.09L2948.16,3068.11L2948.21,3068.12L2948.26,3068.14L2948.3,3068.15L2948.35,3068.16L2948.39,3068.18L2948.44,3068.19L2948.49,3068.21L2948.53,3068.22L2948.58,3068.23L2948.63,3068.24L2948.67,3068.26L2948.72,3068.27L2948.77,3068.28L2948.82,3068.29L2948.86,3068.3L2948.91,3068.31L2948.96,3068.31L2949.01,3068.32L2949.05,3068.33L2949.1,3068.34L2949.15,3068.34L2949.2,3068.35L2949.24,3068.36L2949.29,3068.36L2949.34,3068.37L2949.39,3068.37L2949.44,3068.38L2949.49,3068.38L2949.53,3068.38L2949.58,3068.39L2949.63,3068.39L2949.68,3068.39L2949.73,3068.39L2949.78,3068.39L2949.83,3068.39L3082.32,3068.39L3082.37,3068.39L3082.42,3068.39L3082.47,3068.39L3082.52,3068.39L3082.57,3068.39L3082.62,3068.38L3082.66,3068.38L3082.71,3068.38L3082.76,3068.37L3082.81,3068.37L3082.86,3068.36L3082.91,3068.36L3082.95,3068.35L3083,3068.34L3083.05,3068.34L3083.1,3068.33L3083.15,3068.32L3083.19,3068.31L3083.24,3068.31L3083.29,3068.3L3083.34,3068.29L3083.38,3068.28L3083.43,3068.27L3083.48,3068.26L3083.52,3068.24L3083.57,3068.23L3083.62,3068.22L3083.66,3068.21L3083.71,3068.19L3083.76,3068.18L3083.8,3068.16L3083.85,3068.15L3083.9,3068.14L3083.94,3068.12L3083.99,3068.11L3084.03,3068.09L3084.08,3068.07L3084.13,3068.06L3084.17,3068.04L3084.22,3068.02L3084.26,3068L3084.3,3067.98L3084.4,3067.94L3084.49,3067.9L3084.58,3067.86L3084.66,3067.82L3084.75,3067.77L3084.84,3067.72L3084.93,3067.68L3085.01,3067.62L3085.1,3067.57L3085.18,3067.52L3085.27,3067.46L3085.35,3067.41L3085.44,3067.35L3085.52,3067.29L3085.61,3067.23L3085.69,3067.16L3085.77,3067.1L3085.85,3067.03L3085.93,3066.97L3086.01,3066.9L3086.09,3066.83L3086.17,3066.76L3086.25,3066.68L3086.33,3066.61L3086.4,3066.53L3086.48,3066.45L3086.56,3066.38L3086.63,3066.3L3086.71,3066.21L3086.78,3066.13L3086.85,3066.05L3086.93,3065.96L3087,3065.87L3087.07,3065.78L3087.14,3065.7L3087.21,3065.6L3087.28,3065.51L3087.35,3065.42L3087.41,3065.32L3087.48,3065.23L3087.55,3065.13L3087.61,3065.03L3087.68,3064.93L3087.74,3064.83L3087.81,3064.73L3087.87,3064.63L3087.93,3064.52L3087.99,3064.42L3088.05,3064.31L3088.11,3064.2L3088.17,3064.09L3088.22,3063.98L3088.28,3063.87L3088.34,3063.76L3088.39,3063.65L3088.45,3063.53L3088.5,3063.42L3088.55,3063.3L3088.6,3063.18L3088.66,3063.07L3088.7,3062.95L3088.75,3062.83L3088.8,3062.7L3088.85,3062.58L3088.89,3062.46L3088.94,3062.34L3088.98,3062.21L3089.03,3062.09L3089.07,3061.96L3089.11,3061.83L3089.15,3061.7L3089.19,3061.57L3089.23,3061.44L3089.27,3061.31L3089.3,3061.18L3089.34,3061.05L3089.37,3060.91L3089.41,3060.78L3089.44,3060.64L3089.47,3060.51L3089.5,3060.37L3089.53,3060.24L3089.56,3060.1L3089.58,3059.96L3089.61,3059.82L3089.64,3059.68L3089.65,3059.61L3089.66,3059.54L3089.67,3059.47L3089.68,3059.4L3089.69,3059.33L3089.7,3059.25L3089.71,3059.18L3089.72,3059.11L3089.73,3059.04L3089.74,3058.97L3089.75,3058.9L3089.76,3058.82L3089.77,3058.75L3089.78,3058.68L3089.79,3058.61L3089.8,3058.53L3089.8,3058.46L3089.81,3058.39L3089.82,3058.31L3089.82,3058.24L3089.83,3058.17L3089.84,3058.09L3089.84,3058.02L3089.85,3057.95L3089.85,3057.87L3089.86,3057.8L3089.86,3057.72L3089.87,3057.65L3089.87,3057.57L3089.88,3057.5L3089.88,3057.42L3089.88,3057.35L3089.89,3057.27L3089.89,3057.2L3089.89,3057.12L3089.89,3057.05L3089.89,3056.97L3089.89,3056.89L3089.9,3056.82L3089.9,3056.74L3089.9,3056.66L3089.9,3056.59L3089.9,3029.25L3089.9,3029.17L3089.9,3029.09L3089.9,3029.01L3089.89,3028.94L3089.89,3028.86L3089.89,3028.79L3089.89,3028.71L3089.89,3028.64L3089.89,3028.56L3089.88,3028.49L3089.88,3028.41L3089.88,3028.34L3089.87,3028.26L3089.87,3028.19L3089.86,3028.11L3089.86,3028.04L3089.85,3027.96L3089.85,3027.89L3089.84,3027.81L3089.84,3027.74L3089.83,3027.67L3089.82,3027.59L3089.82,3027.52L3089.81,3027.45L3089.8,3027.37L3089.8,3027.3L3089.79,3027.23L3089.78,3027.16L3089.77,3027.08L3089.76,3027.01L3089.75,3026.94L3089.74,3026.87L3089.73,3026.79L3089.72,3026.72L3089.71,3026.65L3089.7,3026.58L3089.69,3026.51L3089.68,3026.44L3089.67,3026.37L3089.66,3026.3L3089.65,3026.22L3089.64,3026.16L3089.61,3026.01L3089.58,3025.88L3089.56,3025.74L3089.53,3025.6L3089.5,3025.46L3089.47,3025.33L3089.44,3025.19L3089.41,3025.05L3089.37,3024.92L3089.34,3024.79L3089.3,3024.65L3089.27,3024.52L3089.23,3024.39L3089.19,3024.26L3089.15,3024.13L3089.11,3024L3089.07,3023.88L3089.03,3023.75L3088.98,3023.62L3088.94,3023.5L3088.89,3023.37L3088.85,3023.25L3088.8,3023.13L3088.75,3023.01L3088.7,3022.89L3088.66,3022.77L3088.6,3022.65L3088.55,3022.53L3088.5,3022.42L3088.45,3022.3L3088.39,3022.19L3088.34,3022.07L3088.28,3021.96L3088.22,3021.85L3088.17,3021.74L3088.11,3021.63L3088.05,3021.52L3087.99,3021.42L3087.93,3021.31L3087.87,3021.21L3087.81,3021.1L3087.74,3021L3087.68,3020.9L3087.61,3020.8L3087.55,3020.7L3087.48,3020.61L3087.41,3020.51L3087.35,3020.41L3087.28,3020.32L3087.21,3020.23L3087.14,3020.14L3087.07,3020.05L3087,3019.96L3086.93,3019.87L3086.85,3019.79L3086.78,3019.7L3086.71,3019.62L3086.63,3019.54L3086.56,3019.46L3086.48,3019.38L3086.4,3019.3L3086.33,3019.23L3086.25,3019.15L3086.17,3019.08L3086.09,3019.01L3086.01,3018.93L3085.93,3018.87L3085.85,3018.8L3085.77,3018.73L3085.69,3018.67L3085.61,3018.61L3085.52,3018.55L3085.44,3018.49L3085.35,3018.43L3085.27,3018.37L3085.18,3018.31L3085.1,3018.26L3085.01,3018.21L3084.93,3018.16L3084.84,3018.11L3084.75,3018.06L3084.66,3018.02L3084.58,3017.97L3084.49,3017.93L3084.4,3017.89L3084.3,3017.85L3084.26,3017.83L3084.22,3017.81L3084.17,3017.8L3084.13,3017.78L3084.08,3017.76L3084.03,3017.74L3083.99,3017.73L3083.94,3017.71L3083.9,3017.7L3083.85,3017.68L3083.8,3017.67L3083.76,3017.65L3083.71,3017.64L3083.66,3017.63L3083.62,3017.61L3083.57,3017.6L3083.52,3017.59L3083.48,3017.58L3083.43,3017.57L3083.38,3017.56L3083.34,3017.55L3083.29,3017.54L3083.24,3017.53L3083.19,3017.52L3083.15,3017.51L3083.1,3017.5L3083.05,3017.5L3083,3017.49L3082.95,3017.48L3082.91,3017.48L3082.86,3017.47L3082.81,3017.47L3082.76,3017.46L3082.71,3017.46L3082.66,3017.45L3082.62,3017.45L3082.57,3017.45L3082.52,3017.45L3082.47,3017.45L3082.42,3017.44L3082.37,3017.44L3082.32,3017.44L2949.83,3017.44Z" style="fill:rgb(179,179,179);"/>
                </g>
                <g transform="matrix(0.502341,2.53814e-17,-1.11022e-16,0.502341,-1058.57,-874.333)">
                    <path d="M3012.34,2873.61L3012.61,2873.62L3012.87,2873.65L3013.14,2873.68L3013.4,2873.72L3013.66,2873.78L3013.91,2873.84L3014.17,2873.91L3014.42,2873.99L3014.66,2874.08L3014.9,2874.18L3015.14,2874.29L3015.37,2874.4L3015.6,2874.53L3015.83,2874.66L3016.04,2874.8L3016.26,2874.94L3016.47,2875.1L3016.67,2875.26L3016.87,2875.43L3017.06,2875.61L3017.24,2875.79L3017.42,2875.98L3017.59,2876.18L3017.76,2876.38L3017.92,2876.6L3018.07,2876.81L3018.21,2877.03L3018.34,2877.26L3018.47,2877.5L3018.59,2877.74L3018.68,2877.94L3027.22,2898.01L3048.94,2899.93L3049.16,2899.95L3049.42,2899.99L3049.69,2900.04L3049.95,2900.09L3050.2,2900.16L3050.45,2900.24L3050.7,2900.32L3050.95,2900.41L3051.19,2900.52L3051.43,2900.63L3051.66,2900.75L3051.89,2900.87L3052.11,2901.01L3052.33,2901.15L3052.54,2901.3L3052.74,2901.46L3052.94,2901.63L3053.14,2901.8L3053.32,2901.98L3053.51,2902.16L3053.68,2902.36L3053.85,2902.55L3054.01,2902.76L3054.16,2902.97L3054.31,2903.19L3054.45,2903.41L3054.58,2903.64L3054.7,2903.88L3054.82,2904.12L3054.92,2904.37L3055.02,2904.62L3055.11,2904.87L3055.18,2905.13L3055.25,2905.39L3055.31,2905.65L3055.36,2905.91L3055.4,2906.17L3055.43,2906.43L3055.45,2906.7L3055.46,2906.96L3055.46,2907.22L3055.45,2907.48L3055.43,2907.74L3055.4,2908L3055.37,2908.26L3055.32,2908.51L3055.26,2908.77L3055.2,2909.02L3055.13,2909.27L3055.04,2909.51L3054.95,2909.76L3054.85,2909.99L3054.74,2910.23L3054.62,2910.46L3054.5,2910.69L3054.36,2910.92L3054.22,2911.14L3054.07,2911.35L3053.91,2911.56L3053.74,2911.77L3053.56,2911.97L3053.38,2912.16L3053.19,2912.35L3053.02,2912.49L3036.58,2926.82L3041.47,2948.07L3041.51,2948.28L3041.56,2948.55L3041.59,2948.81L3041.62,2949.08L3041.63,2949.34L3041.64,2949.6L3041.63,2949.87L3041.62,2950.13L3041.6,2950.39L3041.57,2950.65L3041.52,2950.91L3041.47,2951.17L3041.41,2951.42L3041.35,2951.67L3041.27,2951.91L3041.18,2952.16L3041.09,2952.4L3040.98,2952.64L3040.87,2952.87L3040.75,2953.1L3040.62,2953.33L3040.48,2953.55L3040.34,2953.77L3040.18,2953.98L3040.02,2954.18L3039.85,2954.39L3039.67,2954.58L3039.48,2954.77L3039.29,2954.95L3039.09,2955.13L3038.88,2955.3L3038.67,2955.46L3038.45,2955.62L3038.22,2955.76L3037.99,2955.9L3037.76,2956.03L3037.52,2956.14L3037.28,2956.25L3037.03,2956.35L3036.79,2956.44L3036.54,2956.52L3036.29,2956.59L3036.03,2956.66L3035.78,2956.71L3035.53,2956.75L3035.27,2956.79L3035.01,2956.81L3034.75,2956.83L3034.49,2956.84L3034.23,2956.84L3033.97,2956.82L3033.72,2956.8L3033.46,2956.77L3033.2,2956.73L3032.94,2956.68L3032.69,2956.62L3032.43,2956.55L3032.18,2956.48L3031.93,2956.39L3031.68,2956.29L3031.44,2956.19L3031.2,2956.07L3030.96,2955.95L3030.77,2955.84L3012.07,2944.62L2993.37,2955.84L2993.18,2955.95L2992.94,2956.07L2992.7,2956.19L2992.46,2956.29L2992.21,2956.39L2991.96,2956.48L2991.71,2956.55L2991.45,2956.62L2991.2,2956.68L2990.94,2956.73L2990.68,2956.77L2990.43,2956.8L2990.17,2956.82L2989.91,2956.84L2989.65,2956.84L2989.39,2956.83L2989.13,2956.81L2988.87,2956.79L2988.62,2956.75L2988.36,2956.71L2988.11,2956.66L2987.85,2956.59L2987.6,2956.52L2987.35,2956.44L2987.11,2956.35L2986.86,2956.25L2986.62,2956.14L2986.38,2956.03L2986.15,2955.9L2985.92,2955.76L2985.69,2955.62L2985.47,2955.46L2985.26,2955.3L2985.05,2955.13L2984.85,2954.95L2984.66,2954.77L2984.47,2954.58L2984.29,2954.39L2984.12,2954.18L2983.96,2953.98L2983.81,2953.77L2983.66,2953.55L2983.52,2953.33L2983.39,2953.1L2983.27,2952.87L2983.16,2952.64L2983.06,2952.4L2982.96,2952.16L2982.87,2951.91L2982.8,2951.67L2982.73,2951.42L2982.67,2951.16L2982.62,2950.91L2982.58,2950.65L2982.54,2950.39L2982.52,2950.13L2982.51,2949.87L2982.5,2949.6L2982.51,2949.34L2982.53,2949.08L2982.55,2948.81L2982.59,2948.55L2982.63,2948.28L2982.68,2948.07L2987.57,2926.82L2971.12,2912.49L2970.96,2912.35L2970.76,2912.16L2970.58,2911.97L2970.4,2911.77L2970.23,2911.56L2970.07,2911.35L2969.92,2911.14L2969.78,2910.92L2969.64,2910.69L2969.52,2910.46L2969.4,2910.23L2969.29,2909.99L2969.19,2909.75L2969.1,2909.51L2969.02,2909.27L2968.94,2909.02L2968.88,2908.77L2968.82,2908.51L2968.78,2908.26L2968.74,2908L2968.71,2907.74L2968.69,2907.48L2968.68,2907.22L2968.68,2906.96L2968.69,2906.7L2968.71,2906.43L2968.74,2906.17L2968.78,2905.91L2968.83,2905.65L2968.89,2905.39L2968.96,2905.13L2969.03,2904.87L2969.12,2904.62L2969.22,2904.37L2969.33,2904.12L2969.44,2903.88L2969.56,2903.65L2969.69,2903.42L2969.83,2903.19L2969.98,2902.97L2970.13,2902.76L2970.29,2902.55L2970.46,2902.36L2970.64,2902.16L2970.82,2901.98L2971.01,2901.8L2971.2,2901.63L2971.4,2901.46L2971.61,2901.3L2971.82,2901.15L2972.03,2901.01L2972.25,2900.87L2972.48,2900.75L2972.71,2900.63L2972.95,2900.52L2973.19,2900.41L2973.44,2900.32L2973.69,2900.24L2973.94,2900.16L2974.2,2900.09L2974.46,2900.04L2974.72,2899.99L2974.99,2899.95L2975.2,2899.93L2996.93,2898.01L3005.46,2877.94L3005.55,2877.74L3005.67,2877.5L3005.8,2877.26L3005.93,2877.03L3006.08,2876.81L3006.23,2876.59L3006.38,2876.38L3006.55,2876.18L3006.72,2875.98L3006.9,2875.79L3007.09,2875.61L3007.28,2875.43L3007.47,2875.26L3007.68,2875.1L3007.88,2874.94L3008.1,2874.8L3008.32,2874.66L3008.54,2874.53L3008.77,2874.4L3009,2874.29L3009.24,2874.18L3009.48,2874.08L3009.73,2873.99L3009.97,2873.91L3010.23,2873.84L3010.49,2873.78L3010.74,2873.72L3011,2873.68L3011.27,2873.65L3011.53,2873.62L3011.8,2873.61L3012.07,2873.6L3012.34,2873.61ZM3004.2,2908.02L2984.18,2909.79L2999.34,2922.99L2994.83,2942.58L3012.07,2932.24L3029.31,2942.58L3024.8,2922.99L3039.96,2909.79L3019.94,2908.02L3012.07,2889.53L3004.2,2908.02Z" style="fill:rgb(179,179,179);"/>
                </g>
                <g transform="matrix(0.502341,2.53814e-17,-1.11022e-16,0.502341,-1058.57,-945.111)">
                    <path d="M3012.34,2873.61L3012.61,2873.62L3012.87,2873.65L3013.14,2873.68L3013.4,2873.72L3013.66,2873.78L3013.91,2873.84L3014.17,2873.91L3014.42,2873.99L3014.66,2874.08L3014.9,2874.18L3015.14,2874.29L3015.37,2874.4L3015.6,2874.53L3015.83,2874.66L3016.04,2874.8L3016.26,2874.94L3016.47,2875.1L3016.67,2875.26L3016.87,2875.43L3017.06,2875.61L3017.24,2875.79L3017.42,2875.98L3017.59,2876.18L3017.76,2876.38L3017.92,2876.6L3018.07,2876.81L3018.21,2877.03L3018.34,2877.26L3018.47,2877.5L3018.59,2877.74L3018.68,2877.94L3027.22,2898.01L3048.94,2899.93L3049.16,2899.95L3049.42,2899.99L3049.69,2900.04L3049.95,2900.09L3050.2,2900.16L3050.45,2900.24L3050.7,2900.32L3050.95,2900.41L3051.19,2900.52L3051.43,2900.63L3051.66,2900.75L3051.89,2900.87L3052.11,2901.01L3052.33,2901.15L3052.54,2901.3L3052.74,2901.46L3052.94,2901.63L3053.14,2901.8L3053.32,2901.98L3053.51,2902.16L3053.68,2902.36L3053.85,2902.55L3054.01,2902.76L3054.16,2902.97L3054.31,2903.19L3054.45,2903.41L3054.58,2903.64L3054.7,2903.88L3054.82,2904.12L3054.92,2904.37L3055.02,2904.62L3055.11,2904.87L3055.18,2905.13L3055.25,2905.39L3055.31,2905.65L3055.36,2905.91L3055.4,2906.17L3055.43,2906.43L3055.45,2906.7L3055.46,2906.96L3055.46,2907.22L3055.45,2907.48L3055.43,2907.74L3055.4,2908L3055.37,2908.26L3055.32,2908.51L3055.26,2908.77L3055.2,2909.02L3055.13,2909.27L3055.04,2909.51L3054.95,2909.76L3054.85,2909.99L3054.74,2910.23L3054.62,2910.46L3054.5,2910.69L3054.36,2910.92L3054.22,2911.14L3054.07,2911.35L3053.91,2911.56L3053.74,2911.77L3053.56,2911.97L3053.38,2912.16L3053.19,2912.35L3053.02,2912.49L3036.58,2926.82L3041.47,2948.07L3041.51,2948.28L3041.56,2948.55L3041.59,2948.81L3041.62,2949.08L3041.63,2949.34L3041.64,2949.6L3041.63,2949.87L3041.62,2950.13L3041.6,2950.39L3041.57,2950.65L3041.52,2950.91L3041.47,2951.17L3041.41,2951.42L3041.35,2951.67L3041.27,2951.91L3041.18,2952.16L3041.09,2952.4L3040.98,2952.64L3040.87,2952.87L3040.75,2953.1L3040.62,2953.33L3040.48,2953.55L3040.34,2953.77L3040.18,2953.98L3040.02,2954.18L3039.85,2954.39L3039.67,2954.58L3039.48,2954.77L3039.29,2954.95L3039.09,2955.13L3038.88,2955.3L3038.67,2955.46L3038.45,2955.62L3038.22,2955.76L3037.99,2955.9L3037.76,2956.02L3037.52,2956.14L3037.28,2956.25L3037.04,2956.35L3036.79,2956.44L3036.54,2956.52L3036.29,2956.6L3036.04,2956.66L3035.78,2956.71L3035.53,2956.75L3035.27,2956.79L3035.01,2956.81L3034.75,2956.83L3034.49,2956.84L3034.23,2956.84L3033.97,2956.82L3033.72,2956.8L3033.46,2956.77L3033.2,2956.73L3032.94,2956.68L3032.69,2956.62L3032.43,2956.55L3032.18,2956.48L3031.93,2956.39L3031.68,2956.29L3031.44,2956.19L3031.2,2956.07L3030.96,2955.95L3030.77,2955.84L3012.07,2944.62L2993.37,2955.84L2993.18,2955.95L2992.94,2956.07L2992.7,2956.19L2992.46,2956.29L2992.21,2956.39L2991.96,2956.48L2991.71,2956.55L2991.45,2956.62L2991.2,2956.68L2990.94,2956.73L2990.68,2956.77L2990.43,2956.8L2990.17,2956.82L2989.91,2956.84L2989.65,2956.84L2989.39,2956.83L2989.13,2956.81L2988.87,2956.79L2988.62,2956.75L2988.36,2956.71L2988.11,2956.66L2987.85,2956.6L2987.6,2956.52L2987.35,2956.44L2987.11,2956.35L2986.86,2956.25L2986.62,2956.14L2986.38,2956.02L2986.15,2955.9L2985.92,2955.76L2985.69,2955.62L2985.47,2955.46L2985.26,2955.3L2985.05,2955.13L2984.85,2954.95L2984.66,2954.77L2984.47,2954.58L2984.29,2954.39L2984.12,2954.18L2983.96,2953.98L2983.81,2953.77L2983.66,2953.55L2983.52,2953.33L2983.39,2953.1L2983.27,2952.87L2983.16,2952.64L2983.06,2952.4L2982.96,2952.16L2982.87,2951.91L2982.8,2951.67L2982.73,2951.42L2982.67,2951.16L2982.62,2950.91L2982.58,2950.65L2982.54,2950.39L2982.52,2950.13L2982.51,2949.87L2982.5,2949.6L2982.51,2949.34L2982.53,2949.08L2982.55,2948.81L2982.59,2948.55L2982.63,2948.28L2982.68,2948.07L2987.57,2926.82L2971.12,2912.49L2970.96,2912.35L2970.76,2912.16L2970.58,2911.97L2970.4,2911.77L2970.23,2911.56L2970.07,2911.35L2969.92,2911.14L2969.78,2910.92L2969.64,2910.69L2969.52,2910.46L2969.4,2910.23L2969.29,2909.99L2969.19,2909.75L2969.1,2909.51L2969.02,2909.27L2968.94,2909.02L2968.88,2908.77L2968.82,2908.51L2968.78,2908.26L2968.74,2908L2968.71,2907.74L2968.69,2907.48L2968.68,2907.22L2968.68,2906.96L2968.69,2906.7L2968.71,2906.43L2968.74,2906.17L2968.78,2905.91L2968.83,2905.65L2968.89,2905.39L2968.96,2905.13L2969.03,2904.87L2969.12,2904.62L2969.22,2904.37L2969.33,2904.12L2969.44,2903.88L2969.56,2903.65L2969.69,2903.42L2969.83,2903.19L2969.98,2902.97L2970.13,2902.76L2970.29,2902.55L2970.46,2902.36L2970.64,2902.16L2970.82,2901.98L2971.01,2901.8L2971.2,2901.63L2971.4,2901.46L2971.61,2901.3L2971.82,2901.15L2972.03,2901.01L2972.25,2900.87L2972.48,2900.75L2972.71,2900.63L2972.95,2900.52L2973.19,2900.41L2973.44,2900.32L2973.69,2900.24L2973.94,2900.16L2974.2,2900.09L2974.46,2900.04L2974.72,2899.99L2974.98,2899.95L2975.2,2899.93L2996.93,2898.01L3005.46,2877.94L3005.55,2877.74L3005.67,2877.5L3005.8,2877.26L3005.93,2877.03L3006.08,2876.81L3006.23,2876.59L3006.38,2876.39L3006.55,2876.18L3006.72,2875.98L3006.9,2875.79L3007.09,2875.61L3007.28,2875.43L3007.47,2875.26L3007.68,2875.1L3007.88,2874.94L3008.1,2874.8L3008.32,2874.66L3008.54,2874.53L3008.77,2874.4L3009,2874.29L3009.24,2874.18L3009.48,2874.08L3009.73,2873.99L3009.97,2873.91L3010.23,2873.84L3010.49,2873.78L3010.74,2873.72L3011,2873.68L3011.27,2873.65L3011.53,2873.62L3011.8,2873.61L3012.07,2873.6L3012.34,2873.61ZM3004.2,2908.02L2984.18,2909.79L2999.34,2922.99L2994.83,2942.58L3012.07,2932.24L3029.31,2942.58L3024.8,2922.99L3039.96,2909.79L3019.94,2908.02L3012.07,2889.53L3004.2,2908.02Z" style="fill:rgb(179,179,179);"/>
                </g>
                <g transform="matrix(0.599528,0,0,1,-1474.71,-2567.68)">
                    <rect x="2891.68" y="2993.55" width="140.556" height="5.333" style="fill:rgb(179,179,179);"/>
                </g>
                <g transform="matrix(0.871088,0,0,1,-2398.76,-2567.68)">
                    <rect x="2893.07" y="2993.55" width="137.783" height="5.333" style="fill:rgb(179,179,179);"/>
                </g>
                <g transform="matrix(0.287104,0,0,1,-471.337,-2567.68)">
                    <rect x="2886.84" y="2993.55" width="150.236" height="5.333" style="fill:rgb(179,179,179);"/>
                </g>
                <g transform="matrix(1.80435,0,0,1,-5022.73,-2567.68)">
                    <rect x="2923.48" y="3010.75" width="71.762" height="5.333" style="fill:rgb(179,179,179);"/>
                </g>
                <g transform="matrix(1,0,0,1,-2634.53,-2550.48)">
                    <rect x="2922.29" y="3010.75" width="74.139" height="5.333" style="fill:rgb(179,179,179);"/>
                </g>
                <g transform="matrix(1.375,0,0,1,-3849.55,-2550.48)">
                    <rect x="2923.02" y="3010.75" width="72.685" height="5.333" style="fill:rgb(179,179,179);"/>
                </g>
                <g transform="matrix(0.440217,0,0,1,-1163.59,-2550.48)">
                    <rect x="2918.9" y="3010.75" width="80.921" height="5.333" style="fill:rgb(179,179,179);"/>
                </g>
                <g transform="matrix(0.440217,0,0,1,-1083.2,-2567.68)">
                    <rect x="2918.9" y="3010.75" width="80.921" height="5.333" style="fill:rgb(179,179,179);"/>
                </g>
                <g transform="matrix(0.880435,0,0,1,-2451.21,-2567.68)">
                    <rect x="2921.93" y="3010.75" width="74.863" height="5.333" style="fill:rgb(179,179,179);"/>
                </g>
                <g transform="matrix(1,0,0,1,-2635.65,-2477.5)">
                    <rect x="2893.46" y="2993.55" width="136.994" height="5.333" style="fill:rgb(179,179,179);"/>
                </g>
                <g transform="matrix(1,0,0,1,-2635.65,-2477.5)">
                    <rect x="2806.37" y="2993.55" width="70.774" height="5.333" style="fill:rgb(179,179,179);"/>
                </g>
                <g transform="matrix(1,0,0,1,-2635.65,-2477.5)">
                    <rect x="2922.29" y="3010.75" width="74.139" height="5.333" style="fill:rgb(179,179,179);"/>
                </g>
                <g transform="matrix(1,0,0,1,-2635.65,-2477.5)">
                    <rect x="2860.21" y="3010.75" width="47.589" height="5.333" style="fill:rgb(179,179,179);"/>
                </g>
                <g transform="matrix(1,0,0,1,-2635.65,-2477.5)">
                    <rect x="2806.37" y="3010.75" width="31.136" height="5.333" style="fill:rgb(179,179,179);"/>
                </g>
                <g transform="matrix(1,0,0,1,-2635.65,-2482.26)">
                    <rect x="2956.69" y="3068.71" width="60.677" height="5.333" style="fill:rgb(179,179,179);"/>
                </g>
                <g transform="matrix(1,0,0,1,-2635.65,-2482.26)">
                    <rect x="2806.37" y="3068.71" width="133.97" height="5.333" style="fill:rgb(179,179,179);"/>
                </g>
            </g>
            <path d="M477.393,351.855L477.55,351.858L477.707,351.863L477.864,351.87L478.02,351.879L478.176,351.889L478.332,351.902L478.487,351.916L478.643,351.933L478.797,351.951L478.952,351.971L479.106,351.993L479.26,352.017L479.413,352.043L479.566,352.071L479.718,352.1L479.87,352.131L480.022,352.165L480.173,352.2L480.323,352.236L480.473,352.275L480.622,352.316L480.771,352.358L480.92,352.402L481.067,352.448L481.214,352.495L481.361,352.545L481.507,352.596L481.652,352.649L481.796,352.704L481.94,352.76L482.083,352.819L482.225,352.879L482.367,352.94L482.508,353.004L482.648,353.069L482.787,353.136L482.926,353.204L483.063,353.275L483.2,353.347L483.336,353.42L483.471,353.496L483.605,353.573L483.739,353.651L483.871,353.732L484.003,353.814L484.133,353.897L484.263,353.983L484.392,354.07L484.519,354.158L484.646,354.248L484.772,354.34L484.896,354.433L485.02,354.528L485.142,354.625L485.263,354.723L485.383,354.823L485.503,354.924L485.62,355.027L485.737,355.131L485.853,355.237L485.967,355.345L486.08,355.454L486.192,355.564L486.303,355.676L486.412,355.789L486.519,355.904L486.625,356.02L486.73,356.136L486.833,356.254L486.934,356.373L487.034,356.493L487.132,356.615L487.228,356.737L487.323,356.861L487.417,356.985L487.509,357.111L487.599,357.237L487.687,357.365L487.774,357.494L487.86,357.623L487.943,357.754L488.025,357.885L488.106,358.018L488.184,358.151L488.261,358.285L488.336,358.42L488.41,358.557L488.482,358.693L488.552,358.831L488.621,358.97L488.688,359.109L488.753,359.249L488.816,359.39L488.878,359.531L488.938,359.674L488.996,359.817L489.053,359.961L489.108,360.105L489.161,360.25L489.212,360.396L489.261,360.542L489.309,360.69L489.355,360.837L489.399,360.985L489.441,361.134L489.482,361.284L489.52,361.434L489.557,361.584L489.592,361.735L489.625,361.886L489.657,362.039L489.686,362.191L489.714,362.344L489.74,362.497L489.763,362.65L489.786,362.804L489.806,362.959L489.824,363.114L489.84,363.269L489.855,363.425L489.867,363.581L489.878,363.737L489.887,363.893L489.894,364.05L489.898,364.207L489.901,364.364L489.902,364.513L489.902,598.065L489.901,598.214L489.898,598.372L489.894,598.528L489.887,598.685L489.878,598.841L489.867,598.998L489.855,599.153L489.84,599.309L489.824,599.464L489.806,599.619L489.786,599.774L489.763,599.928L489.74,600.081L489.714,600.234L489.686,600.387L489.657,600.54L489.625,600.692L489.592,600.843L489.557,600.994L489.52,601.145L489.482,601.294L489.441,601.444L489.399,601.593L489.355,601.741L489.309,601.888L489.261,602.036L489.212,602.182L489.161,602.328L489.108,602.473L489.053,602.618L488.996,602.761L488.938,602.904L488.878,603.047L488.816,603.188L488.753,603.329L488.688,603.47L488.621,603.608L488.552,603.747L488.482,603.885L488.41,604.022L488.336,604.158L488.261,604.293L488.184,604.427L488.106,604.56L488.025,604.693L487.943,604.824L487.86,604.955L487.774,605.085L487.687,605.213L487.599,605.341L487.509,605.467L487.417,605.593L487.323,605.718L487.228,605.841L487.132,605.963L487.034,606.085L486.934,606.205L486.833,606.324L486.73,606.442L486.625,606.559L486.519,606.674L486.412,606.789L486.303,606.902L486.192,607.014L486.08,607.124L485.967,607.233L485.853,607.341L485.737,607.447L485.62,607.551L485.502,607.654L485.383,607.755L485.263,607.855L485.142,607.953L485.02,608.05L484.896,608.145L484.772,608.238L484.646,608.33L484.519,608.42L484.392,608.509L484.263,608.596L484.133,608.681L484.003,608.765L483.871,608.846L483.739,608.927L483.605,609.006L483.471,609.083L483.336,609.158L483.2,609.232L483.063,609.304L482.926,609.374L482.787,609.442L482.648,609.509L482.508,609.574L482.367,609.638L482.225,609.7L482.083,609.76L481.94,609.818L481.796,609.874L481.652,609.929L481.506,609.982L481.361,610.033L481.214,610.083L481.067,610.13L480.92,610.176L480.771,610.22L480.622,610.263L480.473,610.303L480.323,610.342L480.173,610.379L480.022,610.414L479.87,610.447L479.718,610.478L479.566,610.508L479.413,610.535L479.26,610.561L479.106,610.585L478.952,610.607L478.798,610.627L478.643,610.645L478.487,610.662L478.332,610.676L478.176,610.689L478.02,610.699L477.864,610.708L477.707,610.715L477.55,610.72L477.393,610.723L477.244,610.724L135.034,610.724L135.034,605.39L477.227,605.39L477.327,605.39L477.418,605.388L477.509,605.385L477.599,605.381L477.69,605.376L477.78,605.37L477.871,605.363L477.961,605.354L478.05,605.345L478.14,605.334L478.229,605.323L478.318,605.31L478.407,605.296L478.496,605.281L478.585,605.265L478.673,605.248L478.761,605.23L478.849,605.211L478.936,605.191L479.023,605.169L479.11,605.147L479.196,605.123L479.283,605.099L479.368,605.073L479.454,605.047L479.539,605.019L479.624,604.991L479.708,604.961L479.792,604.93L479.876,604.899L479.959,604.866L480.042,604.832L480.124,604.797L480.206,604.762L480.288,604.725L480.369,604.687L480.45,604.648L480.53,604.609L480.61,604.568L480.689,604.526L480.768,604.484L480.846,604.44L480.924,604.395L481.001,604.35L481.077,604.304L481.154,604.256L481.229,604.208L481.304,604.158L481.379,604.108L481.453,604.057L481.526,604.005L481.598,603.951L481.671,603.897L481.742,603.842L481.813,603.786L481.883,603.73L481.953,603.672L482.022,603.613L482.09,603.554L482.157,603.493L482.224,603.432L482.291,603.37L482.356,603.306L482.421,603.243L482.485,603.178L482.548,603.112L482.611,603.046L482.672,602.979L482.732,602.911L482.792,602.843L482.85,602.774L482.908,602.705L482.965,602.634L483.021,602.563L483.076,602.492L483.13,602.42L483.183,602.347L483.235,602.274L483.287,602.2L483.337,602.126L483.386,602.051L483.435,601.975L483.482,601.899L483.528,601.822L483.574,601.745L483.619,601.667L483.662,601.589L483.705,601.51L483.747,601.431L483.787,601.351L483.827,601.271L483.866,601.19L483.903,601.109L483.94,601.028L483.976,600.946L484.011,600.863L484.044,600.78L484.077,600.697L484.109,600.614L484.139,600.53L484.169,600.445L484.198,600.36L484.225,600.275L484.252,600.19L484.277,600.104L484.302,600.017L484.325,599.931L484.348,599.845L484.369,599.757L484.389,599.67L484.409,599.582L484.427,599.494L484.444,599.406L484.46,599.318L484.475,599.229L484.489,599.14L484.501,599.051L484.513,598.961L484.524,598.872L484.533,598.782L484.541,598.692L484.549,598.602L484.555,598.511L484.56,598.421L484.564,598.33L484.567,598.239L484.568,598.148L484.569,598.049L484.569,364.529L484.568,364.43L484.567,364.339L484.564,364.248L484.56,364.157L484.555,364.067L484.549,363.976L484.541,363.886L484.533,363.796L484.524,363.706L484.513,363.617L484.501,363.528L484.489,363.438L484.475,363.349L484.46,363.26L484.444,363.172L484.427,363.084L484.409,362.996L484.389,362.908L484.369,362.821L484.348,362.734L484.325,362.647L484.302,362.561L484.277,362.474L484.252,362.388L484.225,362.303L484.198,362.218L484.169,362.133L484.139,362.049L484.109,361.964L484.077,361.881L484.044,361.798L484.011,361.715L483.976,361.632L483.94,361.55L483.903,361.469L483.866,361.388L483.827,361.307L483.787,361.227L483.747,361.147L483.705,361.068L483.662,360.989L483.619,360.911L483.574,360.833L483.528,360.756L483.482,360.679L483.435,360.603L483.386,360.527L483.337,360.453L483.287,360.378L483.235,360.304L483.183,360.231L483.13,360.158L483.076,360.086L483.021,360.015L482.965,359.944L482.908,359.874L482.85,359.804L482.792,359.735L482.732,359.667L482.672,359.599L482.611,359.532L482.548,359.466L482.485,359.401L482.421,359.336L482.356,359.272L482.291,359.209L482.224,359.146L482.157,359.085L482.09,359.024L482.022,358.965L481.953,358.906L481.883,358.849L481.813,358.792L481.742,358.736L481.671,358.681L481.598,358.627L481.526,358.574L481.453,358.521L481.379,358.47L481.304,358.42L481.229,358.371L481.154,358.322L481.077,358.275L481.001,358.228L480.924,358.183L480.846,358.138L480.768,358.094L480.689,358.052L480.61,358.01L480.53,357.969L480.45,357.93L480.369,357.891L480.288,357.853L480.206,357.817L480.124,357.781L480.042,357.746L479.959,357.712L479.876,357.68L479.792,357.648L479.708,357.617L479.624,357.588L479.539,357.559L479.454,357.531L479.368,357.505L479.282,357.479L479.196,357.455L479.11,357.431L479.023,357.409L478.936,357.388L478.849,357.367L478.761,357.348L478.673,357.33L478.585,357.313L478.496,357.297L478.407,357.282L478.319,357.268L478.229,357.255L478.14,357.244L478.05,357.233L477.961,357.224L477.87,357.215L477.78,357.208L477.69,357.202L477.599,357.197L477.509,357.193L477.418,357.19L477.327,357.188L477.227,357.188L135.034,357.188L135.034,351.854L477.244,351.854L477.393,351.855Z" style="fill:rgb(179,179,179);"/>
            <g transform="matrix(1.0612,-0.223165,0.223165,1.0612,-3364.35,-1992.12)">
                <path d="M3010.33,2880.06C3010.63,2879.37 3011.31,2878.91 3012.07,2878.91C3012.83,2878.91 3013.52,2879.37 3013.81,2880.06L3023.58,2903.01L3048.42,2905.21C3049.18,2905.28 3049.82,2905.79 3050.06,2906.51C3050.29,2907.23 3050.07,2908.03 3049.5,2908.52L3030.69,2924.9L3036.28,2949.21C3036.45,2949.95 3036.16,2950.72 3035.55,2951.17C3034.93,2951.61 3034.11,2951.65 3033.46,2951.26L3012.07,2938.43L2990.68,2951.26C2990.03,2951.65 2989.21,2951.61 2988.59,2951.17C2987.98,2950.72 2987.69,2949.95 2987.86,2949.21L2993.45,2924.9L2974.64,2908.52C2974.07,2908.03 2973.85,2907.23 2974.08,2906.51C2974.32,2905.79 2974.96,2905.28 2975.72,2905.21L3000.56,2903.01L3010.33,2880.06Z" style="fill:rgb(255,230,128);"/>
                <path d="M3015.7,2867.09L3016.2,2867.23L3016.69,2867.39L3017.17,2867.56L3017.65,2867.76L3018.12,2867.97L3018.58,2868.19L3019.03,2868.43L3019.47,2868.69L3019.9,2868.97L3020.32,2869.26L3020.73,2869.56L3021.13,2869.88L3021.52,2870.21L3021.89,2870.56L3022.26,2870.93L3022.61,2871.3L3022.95,2871.69L3023.27,2872.09L3023.59,2872.51L3023.88,2872.94L3024.16,2873.38L3024.43,2873.83L3024.68,2874.29L3024.91,2874.77L3025.08,2875.15L3032.01,2891.42L3049.62,2892.97L3050.03,2893.02L3050.55,2893.09L3051.07,2893.19L3051.58,2893.3L3052.09,2893.43L3052.59,2893.58L3053.08,2893.75L3053.56,2893.93L3054.04,2894.14L3054.51,2894.35L3054.96,2894.59L3055.41,2894.84L3055.85,2895.11L3056.27,2895.39L3056.69,2895.68L3057.1,2895.99L3057.49,2896.32L3057.87,2896.66L3058.24,2897.01L3058.6,2897.38L3058.94,2897.76L3059.27,2898.15L3059.59,2898.56L3059.89,2898.97L3060.18,2899.4L3060.46,2899.85L3060.71,2900.3L3060.96,2900.76L3061.18,2901.23L3061.39,2901.72L3061.58,2902.21L3061.75,2902.71L3061.91,2903.22L3062.04,2903.73L3062.16,2904.24L3062.25,2904.76L3062.33,2905.27L3062.39,2905.79L3062.43,2906.31L3062.45,2906.83L3062.45,2907.34L3062.43,2907.86L3062.39,2908.37L3062.34,2908.88L3062.26,2909.38L3062.17,2909.89L3062.06,2910.39L3061.93,2910.88L3061.79,2911.37L3061.63,2911.86L3061.45,2912.34L3061.25,2912.81L3061.03,2913.27L3060.8,2913.73L3060.55,2914.18L3060.29,2914.63L3060.01,2915.06L3059.7,2915.48L3059.39,2915.9L3059.06,2916.3L3058.71,2916.69L3058.35,2917.08L3057.97,2917.44L3057.66,2917.72L3044.33,2929.33L3048.29,2946.57L3048.37,2946.97L3048.46,2947.49L3048.53,2948.01L3048.58,2948.53L3048.62,2949.06L3048.63,2949.58L3048.62,2950.1L3048.59,2950.62L3048.55,2951.13L3048.48,2951.64L3048.4,2952.15L3048.3,2952.65L3048.18,2953.15L3048.05,2953.64L3047.9,2954.13L3047.72,2954.61L3047.54,2955.09L3047.33,2955.55L3047.11,2956.01L3046.87,2956.47L3046.62,2956.91L3046.35,2957.35L3046.06,2957.77L3045.76,2958.19L3045.44,2958.6L3045.1,2959L3044.75,2959.38L3044.38,2959.76L3044,2960.12L3043.61,2960.46L3043.2,2960.8L3042.78,2961.12L3042.34,2961.42L3041.9,2961.7L3041.45,2961.97L3040.99,2962.22L3040.52,2962.46L3040.04,2962.67L3039.56,2962.87L3039.08,2963.05L3038.58,2963.2L3038.09,2963.35L3037.59,2963.47L3037.09,2963.58L3036.59,2963.66L3036.08,2963.73L3035.57,2963.78L3035.06,2963.81L3034.55,2963.83L3034.04,2963.82L3033.53,2963.8L3033.02,2963.76L3032.51,2963.69L3032,2963.62L3031.49,2963.52L3030.99,2963.4L3030.49,2963.27L3030,2963.11L3029.5,2962.94L3029.02,2962.75L3028.54,2962.54L3028.06,2962.31L3027.59,2962.07L3027.24,2961.86L3012.07,2952.77L2996.91,2961.86L2996.55,2962.07L2996.08,2962.31L2995.61,2962.54L2995.12,2962.75L2994.64,2962.94L2994.14,2963.11L2993.65,2963.27L2993.15,2963.4L2992.65,2963.52L2992.14,2963.62L2991.63,2963.69L2991.12,2963.76L2990.61,2963.8L2990.1,2963.82L2989.59,2963.83L2989.08,2963.81L2988.57,2963.78L2988.06,2963.73L2987.56,2963.66L2987.05,2963.58L2986.55,2963.47L2986.05,2963.35L2985.56,2963.2L2985.07,2963.05L2984.58,2962.87L2984.1,2962.67L2983.63,2962.46L2983.16,2962.22L2982.7,2961.97L2982.24,2961.7L2981.8,2961.42L2981.37,2961.12L2980.94,2960.8L2980.53,2960.46L2980.14,2960.12L2979.76,2959.76L2979.39,2959.38L2979.04,2959L2978.71,2958.6L2978.39,2958.19L2978.08,2957.78L2977.79,2957.35L2977.52,2956.91L2977.27,2956.47L2977.03,2956.01L2976.81,2955.55L2976.6,2955.09L2976.42,2954.61L2976.25,2954.13L2976.09,2953.64L2975.96,2953.15L2975.84,2952.65L2975.74,2952.15L2975.66,2951.64L2975.59,2951.13L2975.55,2950.61L2975.52,2950.1L2975.52,2949.58L2975.53,2949.06L2975.56,2948.54L2975.61,2948.01L2975.68,2947.49L2975.77,2946.97L2975.85,2946.57L2979.82,2929.33L2966.48,2917.72L2966.17,2917.44L2965.8,2917.08L2965.43,2916.69L2965.08,2916.3L2964.75,2915.9L2964.44,2915.48L2964.14,2915.06L2963.86,2914.62L2963.59,2914.18L2963.34,2913.73L2963.11,2913.27L2962.89,2912.81L2962.7,2912.33L2962.52,2911.86L2962.35,2911.37L2962.21,2910.88L2962.08,2910.39L2961.97,2909.89L2961.88,2909.39L2961.81,2908.88L2961.75,2908.37L2961.71,2907.86L2961.7,2907.34L2961.7,2906.83L2961.72,2906.31L2961.75,2905.79L2961.81,2905.27L2961.89,2904.76L2961.98,2904.24L2962.1,2903.73L2962.23,2903.22L2962.39,2902.71L2962.56,2902.21L2962.75,2901.72L2962.96,2901.24L2963.19,2900.76L2963.43,2900.3L2963.69,2899.84L2963.96,2899.4L2964.25,2898.97L2964.55,2898.56L2964.87,2898.15L2965.2,2897.76L2965.54,2897.38L2965.9,2897.01L2966.27,2896.66L2966.65,2896.32L2967.05,2895.99L2967.45,2895.68L2967.87,2895.39L2968.3,2895.1L2968.73,2894.84L2969.18,2894.59L2969.64,2894.35L2970.1,2894.14L2970.58,2893.93L2971.06,2893.75L2971.55,2893.58L2972.05,2893.43L2972.56,2893.3L2973.07,2893.19L2973.59,2893.09L2974.11,2893.02L2974.52,2892.97L2992.14,2891.42L2999.06,2875.15L2999.23,2874.77L2999.46,2874.29L2999.71,2873.83L2999.98,2873.38L3000.26,2872.94L3000.56,2872.51L3000.87,2872.09L3001.19,2871.69L3001.53,2871.3L3001.89,2870.92L3002.25,2870.56L3002.62,2870.22L3003.01,2869.88L3003.41,2869.56L3003.82,2869.26L3004.24,2868.97L3004.67,2868.69L3005.11,2868.44L3005.57,2868.19L3006.03,2867.97L3006.49,2867.76L3006.97,2867.56L3007.45,2867.39L3007.94,2867.23L3008.44,2867.09L3008.95,2866.96L3009.45,2866.86L3009.97,2866.77L3010.49,2866.7L3011.01,2866.65L3011.54,2866.62L3012.07,2866.61L3012.6,2866.62L3013.13,2866.65L3013.65,2866.7L3014.17,2866.77L3014.69,2866.86L3015.2,2866.96L3015.7,2867.09ZM3012.42,2878.94L3012.35,2878.93L3012.28,2878.92L3012.21,2878.92L3012.14,2878.91L3012.07,2878.91L3012,2878.91L3011.93,2878.92L3011.86,2878.92L3011.79,2878.93L3011.72,2878.94L3011.65,2878.96L3011.59,2878.97L3011.52,2878.99L3011.45,2879.01L3011.39,2879.04L3011.33,2879.06L3011.26,2879.09L3011.2,2879.12L3011.14,2879.15L3011.08,2879.19L3011.03,2879.22L3010.97,2879.26L3010.91,2879.3L3010.86,2879.35L3010.81,2879.39L3010.76,2879.44L3010.71,2879.49L3010.66,2879.54L3010.62,2879.59L3010.58,2879.64L3010.53,2879.7L3010.49,2879.76L3010.46,2879.81L3010.42,2879.87L3010.39,2879.94L3010.36,2880L3010.33,2880.06L3000.56,2903.01L2975.72,2905.21L2975.65,2905.22L2975.58,2905.23L2975.51,2905.24L2975.44,2905.26L2975.37,2905.27L2975.31,2905.29L2975.24,2905.31L2975.18,2905.34L2975.11,2905.37L2975.05,2905.39L2974.99,2905.43L2974.93,2905.46L2974.87,2905.49L2974.82,2905.53L2974.76,2905.57L2974.71,2905.61L2974.65,2905.66L2974.6,2905.7L2974.55,2905.75L2974.51,2905.8L2974.46,2905.85L2974.41,2905.9L2974.37,2905.96L2974.33,2906.01L2974.29,2906.07L2974.26,2906.13L2974.22,2906.19L2974.19,2906.25L2974.16,2906.31L2974.13,2906.38L2974.11,2906.44L2974.08,2906.51L2974.06,2906.58L2974.05,2906.65L2974.03,2906.72L2974.02,2906.78L2974.01,2906.85L2974,2906.92L2973.99,2906.99L2973.99,2907.06L2973.99,2907.13L2973.99,2907.2L2974,2907.26L2974.01,2907.33L2974.02,2907.4L2974.03,2907.47L2974.04,2907.53L2974.06,2907.6L2974.08,2907.67L2974.1,2907.73L2974.13,2907.8L2974.15,2907.86L2974.18,2907.92L2974.21,2907.98L2974.24,2908.04L2974.28,2908.1L2974.32,2908.16L2974.36,2908.22L2974.4,2908.27L2974.44,2908.32L2974.49,2908.38L2974.54,2908.43L2974.59,2908.48L2974.64,2908.52L2993.45,2924.9L2987.86,2949.21L2987.85,2949.28L2987.84,2949.35L2987.83,2949.42L2987.82,2949.49L2987.82,2949.56L2987.81,2949.63L2987.81,2949.7L2987.82,2949.76L2987.82,2949.83L2987.83,2949.9L2987.84,2949.97L2987.86,2950.04L2987.87,2950.1L2987.89,2950.17L2987.91,2950.23L2987.93,2950.3L2987.96,2950.36L2987.99,2950.42L2988.01,2950.49L2988.05,2950.55L2988.08,2950.61L2988.12,2950.66L2988.16,2950.72L2988.2,2950.78L2988.24,2950.83L2988.28,2950.88L2988.33,2950.93L2988.38,2950.99L2988.43,2951.03L2988.48,2951.08L2988.54,2951.12L2988.59,2951.17L2988.65,2951.21L2988.71,2951.24L2988.77,2951.28L2988.83,2951.32L2988.89,2951.35L2988.96,2951.37L2989.02,2951.4L2989.09,2951.42L2989.15,2951.45L2989.22,2951.46L2989.28,2951.48L2989.35,2951.49L2989.42,2951.51L2989.49,2951.51L2989.55,2951.52L2989.62,2951.53L2989.69,2951.53L2989.76,2951.53L2989.83,2951.52L2989.9,2951.52L2989.96,2951.51L2990.03,2951.5L2990.1,2951.49L2990.17,2951.47L2990.23,2951.45L2990.3,2951.43L2990.36,2951.41L2990.43,2951.39L2990.49,2951.36L2990.56,2951.33L2990.62,2951.29L2990.68,2951.26L3012.07,2938.43L3033.46,2951.26L3033.52,2951.29L3033.59,2951.33L3033.65,2951.36L3033.71,2951.39L3033.78,2951.41L3033.84,2951.43L3033.91,2951.45L3033.97,2951.47L3034.04,2951.49L3034.11,2951.5L3034.18,2951.51L3034.24,2951.52L3034.31,2951.52L3034.38,2951.53L3034.45,2951.53L3034.52,2951.53L3034.59,2951.52L3034.65,2951.51L3034.72,2951.51L3034.79,2951.49L3034.86,2951.48L3034.92,2951.46L3034.99,2951.45L3035.05,2951.42L3035.12,2951.4L3035.18,2951.37L3035.25,2951.35L3035.31,2951.32L3035.37,2951.28L3035.43,2951.24L3035.49,2951.21L3035.55,2951.17L3035.61,2951.12L3035.66,2951.08L3035.71,2951.03L3035.76,2950.99L3035.81,2950.93L3035.86,2950.88L3035.9,2950.83L3035.95,2950.78L3035.99,2950.72L3036.02,2950.66L3036.06,2950.61L3036.1,2950.55L3036.13,2950.49L3036.16,2950.42L3036.18,2950.36L3036.21,2950.3L3036.23,2950.23L3036.25,2950.17L3036.27,2950.1L3036.28,2950.04L3036.3,2949.97L3036.31,2949.9L3036.32,2949.83L3036.32,2949.76L3036.33,2949.7L3036.33,2949.63L3036.33,2949.56L3036.32,2949.49L3036.32,2949.42L3036.31,2949.35L3036.3,2949.28L3036.28,2949.21L3030.69,2924.9L3049.5,2908.52L3049.55,2908.48L3049.6,2908.43L3049.65,2908.38L3049.7,2908.32L3049.74,2908.27L3049.78,2908.22L3049.82,2908.16L3049.86,2908.1L3049.9,2908.04L3049.93,2907.98L3049.96,2907.92L3049.99,2907.86L3050.02,2907.8L3050.04,2907.73L3050.06,2907.67L3050.08,2907.6L3050.1,2907.53L3050.11,2907.47L3050.13,2907.4L3050.14,2907.33L3050.14,2907.26L3050.15,2907.2L3050.15,2907.13L3050.15,2907.06L3050.15,2906.99L3050.14,2906.92L3050.14,2906.85L3050.13,2906.78L3050.11,2906.72L3050.1,2906.65L3050.08,2906.58L3050.06,2906.51L3050.03,2906.44L3050.01,2906.38L3049.98,2906.31L3049.95,2906.25L3049.92,2906.19L3049.88,2906.13L3049.85,2906.07L3049.81,2906.01L3049.77,2905.96L3049.73,2905.9L3049.68,2905.85L3049.64,2905.8L3049.59,2905.75L3049.54,2905.7L3049.49,2905.66L3049.44,2905.61L3049.38,2905.57L3049.33,2905.53L3049.27,2905.49L3049.21,2905.46L3049.15,2905.43L3049.09,2905.39L3049.03,2905.37L3048.97,2905.34L3048.9,2905.31L3048.84,2905.29L3048.77,2905.27L3048.7,2905.26L3048.63,2905.24L3048.56,2905.23L3048.49,2905.22L3048.42,2905.21L3023.58,2903.01L3013.81,2880.06L3013.78,2880L3013.75,2879.94L3013.72,2879.87L3013.68,2879.81L3013.65,2879.76L3013.61,2879.7L3013.57,2879.64L3013.52,2879.59L3013.48,2879.54L3013.43,2879.49L3013.38,2879.44L3013.33,2879.39L3013.28,2879.35L3013.23,2879.3L3013.17,2879.26L3013.12,2879.22L3013.06,2879.19L3013,2879.15L3012.94,2879.12L3012.88,2879.09L3012.82,2879.06L3012.75,2879.04L3012.69,2879.01L3012.62,2878.99L3012.55,2878.97L3012.49,2878.96L3012.42,2878.94Z" style="fill:rgb(40,42,47);"/>
            </g>
        </g>
    </g>
</svg>
