<?xml version="1.0" encoding="UTF-8" standalone="no"?>
<!DOCTYPE svg PUBLIC "-//W3C//DTD SVG 1.1//EN" "http://www.w3.org/Graphics/SVG/1.1/DTD/svg11.dtd">
<svg width="100%" height="100%" viewBox="0 0 424 179" version="1.1" xmlns="http://www.w3.org/2000/svg" xmlns:xlink="http://www.w3.org/1999/xlink" xml:space="preserve" xmlns:serif="http://www.serif.com/" style="fill-rule:evenodd;clip-rule:evenodd;stroke-linejoin:round;stroke-miterlimit:1.41421;">
    <g transform="matrix(0.928155,0,0,0.928155,-985.978,-36.6625)">
        <g transform="matrix(82.3278,0,0,82.3278,1294.62,130.083)">
            <path d="M0.702,0L0.7,-0.371L0.52,-0.069L0.432,-0.069L0.253,-0.361L0.253,0L0.07,0L0.07,-0.7L0.233,-0.7L0.479,-0.296L0.719,-0.7L0.882,-0.7L0.884,0L0.702,0Z" style="fill:white;fill-rule:nonzero;"/>
        </g>
        <g transform="matrix(82.3278,0,0,82.3278,1373.16,130.083)">
            <path d="M0.061,-0.542L0.251,-0.542L0.251,0L0.061,0L0.061,-0.542ZM0.156,-0.602C0.121,-0.602 0.093,-0.612 0.072,-0.631C0.051,-0.65 0.04,-0.674 0.04,-0.703C0.04,-0.732 0.051,-0.756 0.072,-0.775C0.093,-0.794 0.121,-0.804 0.156,-0.804C0.191,-0.804 0.219,-0.795 0.24,-0.777C0.261,-0.758 0.272,-0.735 0.272,-0.706C0.272,-0.676 0.261,-0.651 0.24,-0.631C0.219,-0.612 0.191,-0.602 0.156,-0.602Z" style="fill:white;fill-rule:nonzero;"/>
        </g>
        <g transform="matrix(82.3278,0,0,82.3278,1398.93,130.083)">
            <path d="M0.307,-0.19L0.251,-0.133L0.251,0L0.061,0L0.061,-0.742L0.251,-0.742L0.251,-0.353L0.445,-0.542L0.67,-0.542L0.445,-0.31L0.689,0L0.459,0L0.307,-0.19Z" style="fill:white;fill-rule:nonzero;"/>
        </g>
        <g transform="matrix(82.3278,0,0,82.3278,1453.43,130.083)">
            <path d="M0.615,-0.27C0.615,-0.269 0.614,-0.253 0.612,-0.223L0.218,-0.223C0.226,-0.195 0.242,-0.173 0.265,-0.159C0.288,-0.143 0.316,-0.136 0.351,-0.136C0.377,-0.136 0.4,-0.14 0.419,-0.147C0.438,-0.154 0.457,-0.166 0.476,-0.183L0.576,-0.079C0.523,-0.02 0.446,0.009 0.345,0.009C0.282,0.009 0.226,-0.003 0.178,-0.027C0.13,-0.051 0.093,-0.084 0.067,-0.127C0.04,-0.17 0.027,-0.218 0.027,-0.272C0.027,-0.325 0.04,-0.373 0.066,-0.416C0.091,-0.458 0.127,-0.491 0.172,-0.515C0.217,-0.539 0.268,-0.551 0.325,-0.551C0.379,-0.551 0.428,-0.54 0.472,-0.518C0.516,-0.495 0.551,-0.463 0.577,-0.421C0.602,-0.378 0.615,-0.328 0.615,-0.27ZM0.326,-0.416C0.297,-0.416 0.272,-0.408 0.253,-0.391C0.233,-0.374 0.22,-0.352 0.215,-0.323L0.437,-0.323C0.432,-0.352 0.419,-0.374 0.4,-0.391C0.38,-0.408 0.355,-0.416 0.326,-0.416Z" style="fill:white;fill-rule:nonzero;"/>
        </g>
    </g>
    <g transform="matrix(0.327822,0,0,0.327822,-203.4,80.815)">
        <g transform="matrix(82.3278,0,0,82.3278,1294.62,130.083)">
            <path d="M0.551,-0.175L0.179,-0.175L0.102,0L-0.001,0L0.316,-0.7L0.415,-0.7L0.733,0L0.628,0L0.551,-0.175ZM0.516,-0.255L0.365,-0.598L0.214,-0.255L0.516,-0.255Z" style="fill:rgb(179,179,179);fill-rule:nonzero;"/>
        </g>
        <g transform="matrix(82.3278,0,0,82.3278,1377.03,130.083)">
            <path d="M0.105,-0.7L0.4,-0.7C0.474,-0.7 0.54,-0.685 0.597,-0.656C0.654,-0.627 0.699,-0.586 0.731,-0.533C0.762,-0.48 0.778,-0.419 0.778,-0.35C0.778,-0.281 0.762,-0.221 0.731,-0.168C0.699,-0.115 0.654,-0.073 0.597,-0.044C0.54,-0.015 0.474,0 0.4,0L0.105,0L0.105,-0.7ZM0.394,-0.087C0.451,-0.087 0.5,-0.098 0.544,-0.12C0.587,-0.142 0.62,-0.173 0.643,-0.213C0.666,-0.252 0.678,-0.298 0.678,-0.35C0.678,-0.402 0.666,-0.448 0.643,-0.488C0.62,-0.527 0.587,-0.558 0.544,-0.58C0.5,-0.602 0.451,-0.613 0.394,-0.613L0.205,-0.613L0.205,-0.087L0.394,-0.087Z" style="fill:rgb(179,179,179);fill-rule:nonzero;"/>
        </g>
        <g transform="matrix(82.3278,0,0,82.3278,1445.03,130.083)">
            <path d="M0.091,-0.53L0.187,-0.53L0.187,0L0.091,0L0.091,-0.53ZM0.139,-0.632C0.12,-0.632 0.105,-0.638 0.093,-0.65C0.08,-0.662 0.074,-0.677 0.074,-0.694C0.074,-0.711 0.08,-0.726 0.093,-0.739C0.105,-0.751 0.12,-0.757 0.139,-0.757C0.158,-0.757 0.173,-0.751 0.186,-0.74C0.198,-0.728 0.204,-0.713 0.204,-0.696C0.204,-0.678 0.198,-0.663 0.186,-0.651C0.173,-0.638 0.158,-0.632 0.139,-0.632Z" style="fill:rgb(179,179,179);fill-rule:nonzero;"/>
        </g>
        <g transform="matrix(82.3278,0,0,82.3278,1468,130.083)">
            <path d="M0.243,0.006C0.2,0.006 0.158,0 0.118,-0.012C0.078,-0.023 0.047,-0.038 0.024,-0.056L0.064,-0.132C0.087,-0.115 0.116,-0.102 0.149,-0.092C0.182,-0.082 0.216,-0.077 0.25,-0.077C0.334,-0.077 0.376,-0.101 0.376,-0.149C0.376,-0.165 0.37,-0.178 0.359,-0.187C0.348,-0.196 0.334,-0.203 0.317,-0.207C0.3,-0.212 0.275,-0.217 0.244,-0.222C0.201,-0.229 0.167,-0.236 0.14,-0.245C0.113,-0.254 0.089,-0.268 0.07,-0.289C0.051,-0.31 0.041,-0.339 0.041,-0.376C0.041,-0.424 0.061,-0.463 0.101,-0.492C0.141,-0.521 0.195,-0.535 0.262,-0.535C0.297,-0.535 0.333,-0.531 0.368,-0.522C0.403,-0.513 0.432,-0.502 0.455,-0.487L0.414,-0.411C0.371,-0.439 0.32,-0.453 0.261,-0.453C0.22,-0.453 0.189,-0.446 0.168,-0.433C0.147,-0.42 0.136,-0.402 0.136,-0.38C0.136,-0.363 0.142,-0.349 0.154,-0.339C0.166,-0.329 0.181,-0.322 0.199,-0.317C0.216,-0.312 0.241,-0.307 0.273,-0.301C0.316,-0.294 0.35,-0.286 0.377,-0.278C0.403,-0.269 0.425,-0.255 0.444,-0.235C0.463,-0.215 0.472,-0.187 0.472,-0.151C0.472,-0.103 0.452,-0.065 0.41,-0.037C0.37,-0.008 0.314,0.006 0.243,0.006Z" style="fill:rgb(179,179,179);fill-rule:nonzero;"/>
        </g>
        <g transform="matrix(82.3278,0,0,82.3278,1509.25,130.083)">
            <path d="M0.322,0.006C0.268,0.006 0.22,-0.006 0.178,-0.029C0.135,-0.052 0.102,-0.085 0.078,-0.126C0.054,-0.167 0.042,-0.213 0.042,-0.265C0.042,-0.317 0.054,-0.364 0.078,-0.405C0.102,-0.446 0.135,-0.477 0.178,-0.5C0.22,-0.524 0.268,-0.535 0.322,-0.535C0.37,-0.535 0.413,-0.525 0.451,-0.506C0.488,-0.487 0.517,-0.459 0.538,-0.422L0.465,-0.375C0.448,-0.4 0.428,-0.419 0.403,-0.432C0.378,-0.445 0.351,-0.451 0.321,-0.451C0.286,-0.451 0.255,-0.443 0.228,-0.428C0.2,-0.413 0.178,-0.391 0.163,-0.363C0.147,-0.334 0.139,-0.302 0.139,-0.265C0.139,-0.228 0.147,-0.195 0.163,-0.167C0.178,-0.138 0.2,-0.116 0.228,-0.101C0.255,-0.086 0.286,-0.078 0.321,-0.078C0.351,-0.078 0.378,-0.084 0.403,-0.097C0.428,-0.11 0.448,-0.129 0.465,-0.154L0.538,-0.108C0.517,-0.071 0.488,-0.043 0.451,-0.024C0.413,-0.004 0.37,0.006 0.322,0.006Z" style="fill:rgb(179,179,179);fill-rule:nonzero;"/>
        </g>
        <g transform="matrix(82.3278,0,0,82.3278,1555.6,130.083)">
            <path d="M0.318,0.006C0.265,0.006 0.218,-0.006 0.176,-0.029C0.134,-0.052 0.101,-0.085 0.078,-0.126C0.054,-0.167 0.042,-0.213 0.042,-0.265C0.042,-0.317 0.054,-0.364 0.078,-0.405C0.101,-0.446 0.134,-0.477 0.176,-0.5C0.218,-0.524 0.265,-0.535 0.318,-0.535C0.371,-0.535 0.418,-0.524 0.46,-0.5C0.501,-0.477 0.534,-0.446 0.558,-0.405C0.581,-0.364 0.593,-0.317 0.593,-0.265C0.593,-0.213 0.581,-0.167 0.558,-0.126C0.534,-0.085 0.501,-0.052 0.46,-0.029C0.418,-0.006 0.371,0.006 0.318,0.006ZM0.318,-0.078C0.352,-0.078 0.383,-0.086 0.409,-0.102C0.437,-0.117 0.458,-0.139 0.473,-0.168C0.488,-0.196 0.496,-0.228 0.496,-0.265C0.496,-0.302 0.488,-0.334 0.473,-0.363C0.458,-0.391 0.437,-0.413 0.409,-0.428C0.383,-0.443 0.352,-0.451 0.318,-0.451C0.284,-0.451 0.254,-0.443 0.227,-0.428C0.2,-0.413 0.178,-0.391 0.163,-0.363C0.147,-0.334 0.139,-0.302 0.139,-0.265C0.139,-0.228 0.147,-0.196 0.163,-0.168C0.178,-0.139 0.2,-0.117 0.227,-0.102C0.254,-0.086 0.284,-0.078 0.318,-0.078Z" style="fill:rgb(179,179,179);fill-rule:nonzero;"/>
        </g>
        <g transform="matrix(82.3278,0,0,82.3278,1607.87,130.083)">
            <path d="M0.183,-0.441C0.2,-0.472 0.224,-0.495 0.257,-0.511C0.29,-0.527 0.329,-0.535 0.376,-0.535L0.376,-0.442C0.371,-0.443 0.363,-0.443 0.354,-0.443C0.302,-0.443 0.261,-0.428 0.232,-0.397C0.202,-0.366 0.187,-0.321 0.187,-0.264L0.187,0L0.091,0L0.091,-0.53L0.183,-0.53L0.183,-0.441Z" style="fill:rgb(179,179,179);fill-rule:nonzero;"/>
        </g>
        <g transform="matrix(82.3278,0,0,82.3278,1640.64,130.083)">
            <path d="M0.591,-0.742L0.591,0L0.499,0L0.499,-0.084C0.478,-0.055 0.451,-0.032 0.418,-0.017C0.385,-0.002 0.349,0.006 0.31,0.006C0.259,0.006 0.213,-0.005 0.172,-0.028C0.131,-0.051 0.1,-0.083 0.077,-0.124C0.054,-0.165 0.042,-0.212 0.042,-0.265C0.042,-0.318 0.054,-0.365 0.077,-0.406C0.1,-0.447 0.131,-0.478 0.172,-0.501C0.213,-0.524 0.259,-0.535 0.31,-0.535C0.348,-0.535 0.383,-0.528 0.415,-0.514C0.447,-0.499 0.474,-0.478 0.495,-0.45L0.495,-0.742L0.591,-0.742ZM0.318,-0.078C0.351,-0.078 0.382,-0.086 0.409,-0.102C0.436,-0.117 0.458,-0.139 0.473,-0.168C0.488,-0.196 0.496,-0.228 0.496,-0.265C0.496,-0.302 0.488,-0.334 0.473,-0.363C0.458,-0.391 0.436,-0.413 0.409,-0.428C0.382,-0.443 0.351,-0.451 0.318,-0.451C0.284,-0.451 0.254,-0.443 0.227,-0.428C0.2,-0.413 0.178,-0.391 0.163,-0.363C0.147,-0.334 0.139,-0.302 0.139,-0.265C0.139,-0.228 0.147,-0.196 0.163,-0.168C0.178,-0.139 0.2,-0.117 0.227,-0.102C0.254,-0.086 0.284,-0.078 0.318,-0.078Z" style="fill:rgb(179,179,179);fill-rule:nonzero;"/>
        </g>
        <g transform="matrix(82.3278,0,0,82.3278,1718.93,130.083)">
            <path d="M0.576,-0.363C0.617,-0.352 0.649,-0.331 0.672,-0.302C0.695,-0.272 0.707,-0.234 0.707,-0.189C0.707,-0.128 0.684,-0.082 0.639,-0.049C0.593,-0.016 0.526,0 0.439,0L0.105,0L0.105,-0.7L0.419,-0.7C0.499,-0.7 0.561,-0.684 0.605,-0.652C0.648,-0.62 0.67,-0.576 0.67,-0.519C0.67,-0.482 0.662,-0.451 0.645,-0.424C0.627,-0.397 0.605,-0.377 0.576,-0.363ZM0.205,-0.619L0.205,-0.395L0.41,-0.395C0.461,-0.395 0.501,-0.405 0.529,-0.424C0.556,-0.443 0.57,-0.47 0.57,-0.507C0.57,-0.544 0.556,-0.572 0.529,-0.591C0.501,-0.61 0.461,-0.619 0.41,-0.619L0.205,-0.619ZM0.435,-0.081C0.492,-0.081 0.534,-0.09 0.563,-0.109C0.592,-0.128 0.606,-0.157 0.606,-0.197C0.606,-0.275 0.549,-0.314 0.435,-0.314L0.205,-0.314L0.205,-0.081L0.435,-0.081Z" style="fill:rgb(179,179,179);fill-rule:nonzero;"/>
        </g>
        <g transform="matrix(82.3278,0,0,82.3278,1781.26,130.083)">
            <path d="M0.318,0.006C0.265,0.006 0.218,-0.006 0.176,-0.029C0.134,-0.052 0.101,-0.085 0.078,-0.126C0.054,-0.167 0.042,-0.213 0.042,-0.265C0.042,-0.317 0.054,-0.364 0.078,-0.405C0.101,-0.446 0.134,-0.477 0.176,-0.5C0.218,-0.524 0.265,-0.535 0.318,-0.535C0.371,-0.535 0.418,-0.524 0.46,-0.5C0.501,-0.477 0.534,-0.446 0.558,-0.405C0.581,-0.364 0.593,-0.317 0.593,-0.265C0.593,-0.213 0.581,-0.167 0.558,-0.126C0.534,-0.085 0.501,-0.052 0.46,-0.029C0.418,-0.006 0.371,0.006 0.318,0.006ZM0.318,-0.078C0.352,-0.078 0.383,-0.086 0.409,-0.102C0.437,-0.117 0.458,-0.139 0.473,-0.168C0.488,-0.196 0.496,-0.228 0.496,-0.265C0.496,-0.302 0.488,-0.334 0.473,-0.363C0.458,-0.391 0.437,-0.413 0.409,-0.428C0.383,-0.443 0.352,-0.451 0.318,-0.451C0.284,-0.451 0.254,-0.443 0.227,-0.428C0.2,-0.413 0.178,-0.391 0.163,-0.363C0.147,-0.334 0.139,-0.302 0.139,-0.265C0.139,-0.228 0.147,-0.196 0.163,-0.168C0.178,-0.139 0.2,-0.117 0.227,-0.102C0.254,-0.086 0.284,-0.078 0.318,-0.078Z" style="fill:rgb(179,179,179);fill-rule:nonzero;"/>
        </g>
        <g transform="matrix(82.3278,0,0,82.3278,1833.53,130.083)">
            <path d="M0.389,-0.031C0.375,-0.019 0.358,-0.01 0.337,-0.004C0.316,0.003 0.295,0.006 0.273,0.006C0.22,0.006 0.178,-0.008 0.149,-0.037C0.12,-0.066 0.105,-0.107 0.105,-0.16L0.105,-0.451L0.015,-0.451L0.015,-0.53L0.105,-0.53L0.105,-0.646L0.201,-0.646L0.201,-0.53L0.353,-0.53L0.353,-0.451L0.201,-0.451L0.201,-0.164C0.201,-0.135 0.208,-0.113 0.223,-0.098C0.237,-0.083 0.257,-0.075 0.284,-0.075C0.313,-0.075 0.338,-0.083 0.359,-0.1L0.389,-0.031Z" style="fill:rgb(179,179,179);fill-rule:nonzero;"/>
        </g>
        <g transform="matrix(82.3278,0,0,82.3278,1294.62,212.411)">
            <path d="M0.285,-0.669C0.228,-0.669 0.199,-0.638 0.199,-0.576L0.199,-0.53L0.353,-0.53L0.353,-0.451L0.201,-0.451L0.201,0L0.105,0L0.105,-0.451L0.015,-0.451L0.015,-0.53L0.105,-0.53L0.105,-0.577C0.105,-0.63 0.12,-0.671 0.151,-0.702C0.182,-0.733 0.225,-0.748 0.28,-0.748C0.301,-0.748 0.321,-0.745 0.34,-0.74C0.359,-0.735 0.375,-0.727 0.388,-0.717L0.359,-0.644C0.337,-0.661 0.312,-0.669 0.285,-0.669Z" style="fill:rgb(179,179,179);fill-rule:nonzero;"/>
        </g>
        <g transform="matrix(82.3278,0,0,82.3278,1323.02,212.411)">
            <path d="M0.318,0.006C0.265,0.006 0.218,-0.006 0.176,-0.029C0.134,-0.052 0.101,-0.085 0.078,-0.126C0.054,-0.167 0.042,-0.213 0.042,-0.265C0.042,-0.317 0.054,-0.364 0.078,-0.405C0.101,-0.446 0.134,-0.477 0.176,-0.5C0.218,-0.524 0.265,-0.535 0.318,-0.535C0.371,-0.535 0.418,-0.524 0.46,-0.5C0.501,-0.477 0.534,-0.446 0.558,-0.405C0.581,-0.364 0.593,-0.317 0.593,-0.265C0.593,-0.213 0.581,-0.167 0.558,-0.126C0.534,-0.085 0.501,-0.052 0.46,-0.029C0.418,-0.006 0.371,0.006 0.318,0.006ZM0.318,-0.078C0.352,-0.078 0.383,-0.086 0.409,-0.102C0.437,-0.117 0.458,-0.139 0.473,-0.168C0.488,-0.196 0.496,-0.228 0.496,-0.265C0.496,-0.302 0.488,-0.334 0.473,-0.363C0.458,-0.391 0.437,-0.413 0.409,-0.428C0.383,-0.443 0.352,-0.451 0.318,-0.451C0.284,-0.451 0.254,-0.443 0.227,-0.428C0.2,-0.413 0.178,-0.391 0.163,-0.363C0.147,-0.334 0.139,-0.302 0.139,-0.265C0.139,-0.228 0.147,-0.196 0.163,-0.168C0.178,-0.139 0.2,-0.117 0.227,-0.102C0.254,-0.086 0.284,-0.078 0.318,-0.078Z" style="fill:rgb(179,179,179);fill-rule:nonzero;"/>
        </g>
        <g transform="matrix(82.3278,0,0,82.3278,1375.3,212.411)">
            <path d="M0.183,-0.441C0.2,-0.472 0.224,-0.495 0.257,-0.511C0.29,-0.527 0.329,-0.535 0.376,-0.535L0.376,-0.442C0.371,-0.443 0.363,-0.443 0.354,-0.443C0.302,-0.443 0.261,-0.428 0.232,-0.397C0.202,-0.366 0.187,-0.321 0.187,-0.264L0.187,0L0.091,0L0.091,-0.53L0.183,-0.53L0.183,-0.441Z" style="fill:rgb(179,179,179);fill-rule:nonzero;"/>
        </g>
        <g transform="matrix(82.3278,0,0,82.3278,1431.2,212.411)">
            <path d="M0.52,-0.707C0.61,-0.707 0.69,-0.689 0.761,-0.652C0.832,-0.615 0.887,-0.563 0.927,-0.496C0.966,-0.429 0.986,-0.353 0.986,-0.268C0.986,-0.183 0.97,-0.116 0.939,-0.067C0.908,-0.018 0.864,0.006 0.808,0.006C0.776,0.006 0.75,-0.002 0.729,-0.019C0.708,-0.035 0.694,-0.058 0.688,-0.089C0.668,-0.058 0.642,-0.035 0.61,-0.019C0.577,-0.002 0.54,0.006 0.498,0.006C0.451,0.006 0.409,-0.005 0.372,-0.027C0.335,-0.049 0.306,-0.08 0.284,-0.118C0.264,-0.158 0.253,-0.202 0.253,-0.251C0.253,-0.3 0.264,-0.344 0.284,-0.383C0.306,-0.422 0.335,-0.452 0.372,-0.473C0.409,-0.495 0.451,-0.506 0.498,-0.506C0.537,-0.506 0.572,-0.499 0.603,-0.485C0.634,-0.47 0.66,-0.449 0.681,-0.421L0.681,-0.502L0.768,-0.502L0.768,-0.142C0.768,-0.117 0.773,-0.099 0.784,-0.087C0.795,-0.076 0.808,-0.07 0.825,-0.07C0.854,-0.07 0.877,-0.087 0.893,-0.122C0.91,-0.156 0.918,-0.204 0.918,-0.267C0.918,-0.341 0.901,-0.406 0.868,-0.463C0.835,-0.519 0.788,-0.563 0.728,-0.594C0.667,-0.625 0.598,-0.641 0.52,-0.641C0.441,-0.641 0.372,-0.625 0.312,-0.592C0.251,-0.559 0.204,-0.514 0.171,-0.455C0.138,-0.396 0.121,-0.329 0.121,-0.254C0.121,-0.178 0.138,-0.111 0.171,-0.052C0.203,0.007 0.25,0.052 0.31,0.085C0.369,0.118 0.438,0.135 0.516,0.135C0.549,0.135 0.582,0.131 0.616,0.124C0.65,0.117 0.681,0.106 0.709,0.091L0.731,0.155C0.702,0.17 0.668,0.182 0.629,0.19C0.59,0.198 0.553,0.202 0.516,0.202C0.425,0.202 0.344,0.182 0.273,0.143C0.202,0.104 0.146,0.05 0.107,-0.019C0.068,-0.088 0.048,-0.167 0.048,-0.254C0.048,-0.341 0.068,-0.419 0.108,-0.488C0.147,-0.557 0.203,-0.61 0.275,-0.649C0.346,-0.688 0.428,-0.707 0.52,-0.707ZM0.512,-0.072C0.545,-0.072 0.574,-0.079 0.6,-0.094C0.625,-0.109 0.646,-0.13 0.661,-0.157C0.676,-0.184 0.683,-0.215 0.683,-0.251C0.683,-0.287 0.676,-0.319 0.661,-0.345C0.646,-0.373 0.625,-0.393 0.6,-0.407C0.574,-0.422 0.545,-0.429 0.512,-0.429C0.461,-0.429 0.42,-0.413 0.389,-0.381C0.358,-0.348 0.342,-0.305 0.342,-0.251C0.342,-0.197 0.358,-0.154 0.39,-0.121C0.421,-0.088 0.462,-0.072 0.512,-0.072Z" style="fill:rgb(105,126,197);fill-rule:nonzero;"/>
        </g>
        <g transform="matrix(82.3278,0,0,82.3278,1516.33,212.411)">
            <path d="M0.57,-0.262C0.57,-0.255 0.569,-0.245 0.568,-0.233L0.138,-0.233C0.144,-0.186 0.165,-0.149 0.2,-0.121C0.234,-0.092 0.278,-0.078 0.33,-0.078C0.393,-0.078 0.444,-0.099 0.483,-0.142L0.536,-0.08C0.512,-0.052 0.482,-0.031 0.447,-0.016C0.411,-0.001 0.371,0.006 0.327,0.006C0.271,0.006 0.221,-0.006 0.178,-0.029C0.135,-0.051 0.101,-0.084 0.078,-0.125C0.054,-0.166 0.042,-0.213 0.042,-0.265C0.042,-0.316 0.054,-0.363 0.077,-0.404C0.1,-0.445 0.131,-0.477 0.172,-0.5C0.212,-0.524 0.257,-0.535 0.308,-0.535C0.359,-0.535 0.404,-0.524 0.444,-0.5C0.483,-0.477 0.514,-0.445 0.537,-0.404C0.559,-0.363 0.57,-0.315 0.57,-0.262ZM0.308,-0.454C0.262,-0.454 0.224,-0.44 0.193,-0.412C0.162,-0.384 0.143,-0.347 0.138,-0.302L0.478,-0.302C0.473,-0.347 0.455,-0.383 0.424,-0.411C0.393,-0.44 0.354,-0.454 0.308,-0.454Z" style="fill:rgb(105,126,197);fill-rule:nonzero;"/>
        </g>
        <g transform="matrix(82.3278,0,0,82.3278,1565.89,212.411)">
            <path d="M0.56,-0.53L0.328,0L0.23,0L-0.002,-0.53L0.098,-0.53L0.28,-0.105L0.466,-0.53L0.56,-0.53Z" style="fill:rgb(105,126,197);fill-rule:nonzero;"/>
        </g>
        <g transform="matrix(82.3278,0,0,82.3278,1610.67,212.411)">
            <path d="M0.57,-0.262C0.57,-0.255 0.569,-0.245 0.568,-0.233L0.138,-0.233C0.144,-0.186 0.165,-0.149 0.2,-0.121C0.234,-0.092 0.278,-0.078 0.33,-0.078C0.393,-0.078 0.444,-0.099 0.483,-0.142L0.536,-0.08C0.512,-0.052 0.482,-0.031 0.447,-0.016C0.411,-0.001 0.371,0.006 0.327,0.006C0.271,0.006 0.221,-0.006 0.178,-0.029C0.135,-0.051 0.101,-0.084 0.078,-0.125C0.054,-0.166 0.042,-0.213 0.042,-0.265C0.042,-0.316 0.054,-0.363 0.077,-0.404C0.1,-0.445 0.131,-0.477 0.172,-0.5C0.212,-0.524 0.257,-0.535 0.308,-0.535C0.359,-0.535 0.404,-0.524 0.444,-0.5C0.483,-0.477 0.514,-0.445 0.537,-0.404C0.559,-0.363 0.57,-0.315 0.57,-0.262ZM0.308,-0.454C0.262,-0.454 0.224,-0.44 0.193,-0.412C0.162,-0.384 0.143,-0.347 0.138,-0.302L0.478,-0.302C0.473,-0.347 0.455,-0.383 0.424,-0.411C0.393,-0.44 0.354,-0.454 0.308,-0.454Z" style="fill:rgb(105,126,197);fill-rule:nonzero;"/>
        </g>
        <g transform="matrix(82.3278,0,0,82.3278,1661.06,212.411)">
            <path d="M0.183,-0.441C0.2,-0.472 0.224,-0.495 0.257,-0.511C0.29,-0.527 0.329,-0.535 0.376,-0.535L0.376,-0.442C0.371,-0.443 0.363,-0.443 0.354,-0.443C0.302,-0.443 0.261,-0.428 0.232,-0.397C0.202,-0.366 0.187,-0.321 0.187,-0.264L0.187,0L0.091,0L0.091,-0.53L0.183,-0.53L0.183,-0.441Z" style="fill:rgb(105,126,197);fill-rule:nonzero;"/>
        </g>
        <g transform="matrix(82.3278,0,0,82.3278,1696.05,212.411)">
            <path d="M0.56,-0.53L0.303,0.053C0.28,0.107 0.254,0.145 0.224,0.167C0.193,0.189 0.157,0.2 0.114,0.2C0.088,0.2 0.063,0.196 0.039,0.187C0.014,0.179 -0.006,0.167 -0.022,0.151L0.019,0.079C0.046,0.105 0.078,0.118 0.114,0.118C0.137,0.118 0.157,0.112 0.172,0.099C0.188,0.087 0.202,0.066 0.215,0.036L0.232,-0.001L-0.002,-0.53L0.098,-0.53L0.283,-0.106L0.466,-0.53L0.56,-0.53Z" style="fill:rgb(105,126,197);fill-rule:nonzero;"/>
        </g>
        <g transform="matrix(82.3278,0,0,82.3278,1740.83,212.411)">
            <path d="M0.318,0.006C0.265,0.006 0.218,-0.006 0.176,-0.029C0.134,-0.052 0.101,-0.085 0.078,-0.126C0.054,-0.167 0.042,-0.213 0.042,-0.265C0.042,-0.317 0.054,-0.364 0.078,-0.405C0.101,-0.446 0.134,-0.477 0.176,-0.5C0.218,-0.524 0.265,-0.535 0.318,-0.535C0.371,-0.535 0.418,-0.524 0.46,-0.5C0.501,-0.477 0.534,-0.446 0.558,-0.405C0.581,-0.364 0.593,-0.317 0.593,-0.265C0.593,-0.213 0.581,-0.167 0.558,-0.126C0.534,-0.085 0.501,-0.052 0.46,-0.029C0.418,-0.006 0.371,0.006 0.318,0.006ZM0.318,-0.078C0.352,-0.078 0.383,-0.086 0.409,-0.102C0.437,-0.117 0.458,-0.139 0.473,-0.168C0.488,-0.196 0.496,-0.228 0.496,-0.265C0.496,-0.302 0.488,-0.334 0.473,-0.363C0.458,-0.391 0.437,-0.413 0.409,-0.428C0.383,-0.443 0.352,-0.451 0.318,-0.451C0.284,-0.451 0.254,-0.443 0.227,-0.428C0.2,-0.413 0.178,-0.391 0.163,-0.363C0.147,-0.334 0.139,-0.302 0.139,-0.265C0.139,-0.228 0.147,-0.196 0.163,-0.168C0.178,-0.139 0.2,-0.117 0.227,-0.102C0.254,-0.086 0.284,-0.078 0.318,-0.078Z" style="fill:rgb(105,126,197);fill-rule:nonzero;"/>
        </g>
        <g transform="matrix(82.3278,0,0,82.3278,1793.11,212.411)">
            <path d="M0.374,-0.535C0.441,-0.535 0.495,-0.516 0.535,-0.476C0.574,-0.438 0.594,-0.38 0.594,-0.305L0.594,0L0.498,0L0.498,-0.294C0.498,-0.345 0.486,-0.384 0.461,-0.41C0.436,-0.436 0.401,-0.449 0.355,-0.449C0.303,-0.449 0.262,-0.434 0.232,-0.404C0.202,-0.373 0.187,-0.33 0.187,-0.273L0.187,0L0.091,0L0.091,-0.53L0.183,-0.53L0.183,-0.45C0.202,-0.477 0.229,-0.498 0.262,-0.513C0.295,-0.528 0.332,-0.535 0.374,-0.535Z" style="fill:rgb(105,126,197);fill-rule:nonzero;"/>
        </g>
        <g transform="matrix(82.3278,0,0,82.3278,1849.42,212.411)">
            <path d="M0.57,-0.262C0.57,-0.255 0.569,-0.245 0.568,-0.233L0.138,-0.233C0.144,-0.186 0.165,-0.149 0.2,-0.121C0.234,-0.092 0.278,-0.078 0.33,-0.078C0.393,-0.078 0.444,-0.099 0.483,-0.142L0.536,-0.08C0.512,-0.052 0.482,-0.031 0.447,-0.016C0.411,-0.001 0.371,0.006 0.327,0.006C0.271,0.006 0.221,-0.006 0.178,-0.029C0.135,-0.051 0.101,-0.084 0.078,-0.125C0.054,-0.166 0.042,-0.213 0.042,-0.265C0.042,-0.316 0.054,-0.363 0.077,-0.404C0.1,-0.445 0.131,-0.477 0.172,-0.5C0.212,-0.524 0.257,-0.535 0.308,-0.535C0.359,-0.535 0.404,-0.524 0.444,-0.5C0.483,-0.477 0.514,-0.445 0.537,-0.404C0.559,-0.363 0.57,-0.315 0.57,-0.262ZM0.308,-0.454C0.262,-0.454 0.224,-0.44 0.193,-0.412C0.162,-0.384 0.143,-0.347 0.138,-0.302L0.478,-0.302C0.473,-0.347 0.455,-0.383 0.424,-0.411C0.393,-0.44 0.354,-0.454 0.308,-0.454Z" style="fill:rgb(105,126,197);fill-rule:nonzero;"/>
        </g>
    </g>
    <g transform="matrix(0.586932,0,0,0.586932,-421.733,-236.684)">
        <g id="circle3811" transform="matrix(0.393227,0,0,0.393227,905.18,524.273)">
            <circle cx="-87.857" cy="79.033" r="386.786" style="fill:white;"/>
        </g>
        <g transform="matrix(0.745384,0,0,0.745384,221.677,141.401)">
            <g id="circle38111" serif:id="circle3811" transform="matrix(0.346231,0,0,0.346231,901.051,527.987)">
                <circle cx="-87.857" cy="79.033" r="386.786" style="fill:rgb(51,51,51);"/>
            </g>
            <g id="circle3815" transform="matrix(0.346231,0,0,0.346231,901.051,527.987)">
                <circle cx="-87.857" cy="76.89" r="334.286" style="fill:rgb(255,230,128);"/>
            </g>
            <g id="rect3817" transform="matrix(0.346231,0,0,0.346231,901.051,527.987)">
                <rect x="54.643" y="-248.825" width="53.571" height="651.429" style="fill:rgb(51,51,51);"/>
            </g>
            <g id="rect3819" transform="matrix(0.346231,0,0,0.346231,901.051,527.987)">
                <rect x="-283.928" y="-248.825" width="53.571" height="651.429" style="fill:rgb(51,51,51);"/>
            </g>
            <g id="rect3821" transform="matrix(0.346231,0,0,0.353411,901.051,529.943)">
                <rect x="-114.643" y="-272.396" width="53.571" height="683.571" style="fill:rgb(51,51,51);"/>
            </g>
            <g id="rect3823" transform="matrix(0.346231,0,0,0.346231,901.051,527.987)">
                <rect x="-156.429" y="-88.11" width="137.143" height="330" style="fill:rgb(255,230,128);"/>
            </g>
            <g id="circle3825" transform="matrix(0.346231,0,0,0.346231,901.051,527.987)">
                <circle cx="-87.857" cy="76.89" r="69.643" style="fill:rgb(51,51,51);"/>
            </g>
        </g>
    </g>
</svg>
